<?xml version="1.0" encoding="utf-8"?>
<!-- Generator: Adobe Illustrator 27.3.1, SVG Export Plug-In . SVG Version: 6.00 Build 0)  -->
<svg version="1.1" id="katman_1" xmlns="http://www.w3.org/2000/svg" xmlns:xlink="http://www.w3.org/1999/xlink" x="0px" y="0px"
	 viewBox="0 0 612 792" style="enable-background:new 0 0 612 792;" xml:space="preserve">
<style type="text/css">
	.st0{fill:#1D1D1B;}
</style>
<g>
	<path class="st0" d="M571,375.5c-1.5-30.2-2.5-60.5-4.7-90.7c-1.9-26.9-5.9-53.8-17.2-78.5c-10-21.7-25.9-40.5-47.2-51.7
		c-22-11.6-47-15.4-71.5-17.4c-57.6-4.7-116.1-6.6-173.8-3.1c-28.1,1.7-56.3,4.7-83.9,10.3c-21.6,4.4-43.1,11-62.3,21.9
		c-19.6,11.2-36.2,27.3-45.6,48c-5.5,12.1-9,25-12.2,37.9c-3.6,14.6-6.4,29.3-8.6,44.2c-4.2,28.3-6,56.9-5.2,85.5
		c0.7,26.2,2.1,54.4,11.6,79.1c8.6,22.5,25.9,37.3,46.3,49.8c12.8,7.8,26.8,13.7,40.9,18c-4.4-0.2-8.9,0.2-13.1,1.2
		c-16.5,4.3-30,17.3-37.5,32.3c-7.7,15.3-10.1,33.9-4.8,50.4c5,15.6,16.7,27.6,31.3,34.6c14.8,7.1,31.2,9.8,47.4,11.1
		c18,1.5,38,2.8,54.3-6.3c12.6-7,21-19.2,26.3-32.4c12.7,22.7,41.9,32.1,67.5,30.9c14.9-0.7,30.2-3.5,43.5-10.5
		c6.9-3.6,14.4-9.5,19.3-16.7c5.4,11.8,13.3,22.4,24.7,28.8c16.4,9.1,36.3,7.8,54.3,6.3c16.2-1.3,32.7-4,47.4-11.1
		c14.6-7,26.3-19.1,31.3-34.6c5.3-16.5,2.9-35-4.8-50.4c-7.5-15-21-28-37.5-32.3c-0.9-0.2-1.7-0.3-2.6-0.5
		c14.9-3.8,29.3-9.3,42.4-17.7c19.6-12.6,35.6-30.9,41.9-53.6C576.5,431.7,572.4,402.6,571,375.5z M239.2,590.7
		c-2,14.5-6.5,29.8-15.7,41.5c-9.5,12.2-23.1,17-38.2,17.4c-14,0.4-28.6-0.7-42.4-3.2c-12.8-2.4-25.9-6.4-36.1-14.7
		c-10.9-8.8-17-21.6-17.5-35.6c-0.9-26.1,18.3-58.6,47.5-57.6c14.2,0.5,28.7,10.6,28.3,25.9c-0.2,6.7-3.5,13.7-10.1,16.1
		c-5.7,2.1-13.1,0.9-16.6-4.4c-2.5-3.7-7.4-2.8-9,1.2c-4.6,11.5,0.5,24.7,10,32c10.5,8,25.2,7.1,36.3,0.8
		c25.2-14.2,24.7-45.1,18.2-70.2c19.3,2,33.7,1.9,37.6,2c1.4,0,2.8,0,4.2,0.1C240.1,557.9,241.5,574.4,239.2,590.7z M166.8,542.4
		c-3.1-3.6-6.9-6.4-11-8.6c9.6,2.2,18.9,3.8,27.6,5c6,19.8,9.3,44.4-7.7,59.5c-7.4,6.5-19.1,9.7-28.1,4.8c-5.6-3-9.2-8.7-9.8-14.8
		c9.1,5,21.4,3.8,29.1-4C178.3,572.9,176.7,554,166.8,542.4z M345.3,633c-11.7,5.5-25.1,7.6-37.8,8c-25.1,0.8-54.1-9.4-61.1-35.9
		c5.1-20.6,4.8-42.3-0.5-62.8c7.7,0.1,15.5,0.2,23.2,0.3c2.2,11.5,4.8,23.3,12.1,32.8c6.8,8.9,17.1,14.7,28.6,13.4
		c23-2.5,38.6-25.1,38.6-47.2c6.1-0.2,12.2-0.4,18.2-0.6c-5.8,21.4-6.1,44.1-0.6,65.6c0.3,1.2,0.7,2.5,1.1,3.7
		C365.5,620.7,353.8,628.9,345.3,633z M279,542.6c19.8,0,39.6-0.2,59.4-0.7c-0.2,16.8-11.8,35.8-29.9,37.2
		C288.7,580.7,282.3,558.5,279,542.6z M522.7,596.2c-0.5,13.9-6.6,26.8-17.5,35.6c-10.3,8.3-23.3,12.3-36.1,14.7
		c-13.8,2.6-28.4,3.7-42.4,3.2c-15.1-0.5-28.7-5.2-38.2-17.4c-9.2-11.7-13.7-27-15.7-41.5c-2.3-16.8-0.8-33.9,4-50.1
		c13.9-0.5,27.8-1.1,41.7-2c-6.9,25.3-7.9,57.1,17.8,71.6c11.1,6.3,25.8,7.1,36.3-0.8c9.6-7.3,14.6-20.5,10-32c-1.6-4-6.4-4.9-9-1.2
		c-3.6,5.2-10.9,6.5-16.6,4.4c-6.6-2.4-10-9.4-10.1-16.1c-0.4-15.3,14.2-25.4,28.3-25.9C504.4,537.6,523.6,570.1,522.7,596.2z
		 M445.1,584.3c7.8,7.8,20,9,29.1,4c-0.6,6.1-4.2,11.8-9.8,14.8c-9.1,4.9-20.7,1.7-28.1-4.8c-17.2-15.3-13.6-40.4-7.4-60.4
		c8.2-0.6,16.3-1.4,24.4-2.4c-3,1.9-5.7,4.2-8.1,6.9C435.3,554,433.7,572.9,445.1,584.3z M545.6,482.9
		c-32.5,40-88.1,43.4-135.6,46.2c-56.9,3.3-113.8,4.4-170.8,3.3c-6.8-0.1-111.7,0.4-163.4-48.2C58.2,467.6,53.6,442,51,418.6
		c-2.9-27.1-3.4-54.5-1.6-81.7c1.8-27.7,6-55.1,12.6-82c5.7-23.4,13-46.2,30.8-63.4c32.2-31.1,81.4-39,124.1-44
		c55.5-6.5,111.6-5.8,167.4-3.1c46.1,2.2,102.7,0.6,136.9,37.2c36.4,38.9,35.2,97.5,37.7,147.2c1.4,28.2,3.1,56.4,4.1,84.6
		C563.9,438.1,561.8,462.9,545.6,482.9z"/>
	<path class="st0" d="M510.6,229.1c-11.5-14.5-27-25.5-43.4-33.7c-39.1-19.6-85-26.9-128.3-27.5c-10.2-0.2-110.5-3.8-168.5,20.1
		c-18.5,7.6-35.7,19-49.7,33.4c-15.2,15.7-25.6,35-33.4,55.3c-8.4,22-13.5,45.5-13.3,69.1c0.2,23.2,4.8,46.5,11.3,68.7
		c5.5,19.1,13.5,38,26.9,52.9c14.4,15.9,34.4,24.1,54.5,30.2c45.1,13.7,92.7,16.8,139.6,15.6c23.8-0.6,47.6-2.4,71.4-4.5
		c22.9-2,47.3-2.4,69.4-9.4c36-11.4,62.3-42.1,76.2-76.3c17.5-42.9,15.2-91.5,9.1-136.5C529.6,265.5,524,245.9,510.6,229.1z
		 M522.9,389.5c-7.1,35.9-25.8,71-57.6,90.7c-17.9,11-37.8,14-58.4,16c-22.2,2.1-44.4,4.2-66.6,5.6c-44.6,2.9-89.8,3.3-133.9-4.8
		c-21.1-3.8-43.1-8.9-62.4-18.4c-18-8.8-30.9-22.8-39.5-40.8c-8.8-18.1-13.7-38.5-17.2-58.3c-4.1-22.7-4.5-45.7,0.2-68.3
		c4.5-21.3,12.2-42.5,23.6-61.2c10.3-16.8,24.4-30.7,41-41.3c36.1-22.9,79.3-29.2,121.3-30.3c9.2-0.2,102.7-8.6,162.4,14.6
		c31.9,12.4,66.9,30.1,79.9,63.7c8,20.7,9.4,44.6,10.7,66.5C527.6,345.3,527.2,367.7,522.9,389.5z"/>
	<path class="st0" d="M477.1,246.1c-10.1-12.6-23.8-22.1-38.4-28.7c-32.2-14.5-68.9-17.4-103.8-17.6c-10.8-0.1-88.3-5.2-145.2,15.9
		c-30.7,11.4-58.6,33.3-71.6,64.1c-7.7,18.3-9.6,38.4-9.5,58.1c0.1,19.3,2.1,39,7,57.7c4.3,16.1,11,31.7,21.4,44.7
		c11.1,14,26.2,22.8,42.9,28.3c38.9,12.9,81.1,15.4,121.8,14.9c21.1-0.3,42.1-1.4,63.1-2.7c18.7-1.2,37.5-2,55.9-6.1
		c17.1-3.8,33.5-10.9,46.5-22.8c12.6-11.5,21.5-26.7,27.3-42.7c6.7-18.8,8.7-39.1,8.8-58.9c0.1-18.8-0.9-37.9-4.7-56.4
		C494.9,276.6,488.3,260,477.1,246.1z M491.7,378.1c-2.5-6.4-6.1-12.3-10.8-17.4c-2.5-2.7-5.2-5-8.1-7.1c7.3-2.1,14.3-5.2,20.7-9.4
		C493.7,355.6,493.2,366.9,491.7,378.1z M410,217.7c30.5,8.1,58.3,24.5,71.5,54.3c6.9,15.5,9.6,32.7,10.9,49.5
		c0.3,3.6,0.5,7.2,0.7,10.8c-13.3,10.8-30.4,15.1-47.5,15c-33.5-0.1-71.6-14.3-92.3-41.4c-20.9-27.4-23.5-64.1-25.3-97.3
		C353.7,209,385.2,211.1,410,217.7z M318.2,208.6c1.1,21,2.7,42.3,8.1,62.7c4.9,18.1,13.2,35.4,26.3,49c4,4.1,8.4,7.8,13,11.2
		c-10.6,7-26,7.4-36.6,0.1c-11-7.5-16-20.4-16.2-32.2c-0.1-3.2-3-4.8-5.9-4.7c-2.9-0.1-5.8,1.5-5.9,4.7
		c-0.2,11.9-5.2,24.7-16.2,32.2c-10.8,7.4-26.5,7-37.1-0.4c4.5-3.3,8.7-6.9,12.6-10.9c13.1-13.6,21.4-30.9,26.3-49
		c5.4-20.3,7-41.4,8.1-62.2C301,208.8,309.1,208.6,318.2,208.6z M139.6,262.5c9.7-12.2,22.1-21.9,35.6-29.3
		c32-17.6,68.7-20.8,106.5-23.5c0.7,0,1.8-0.1,3.1-0.2c-1.8,33.1-4.5,69.3-25.2,96.5c-20.7,27.2-58.8,41.4-92.3,41.4
		c-17.7,0-35.6-4.6-49.1-16.4c0.2-7.2,0.8-14.4,1.8-21.5C122.7,292.4,128.8,276.1,139.6,262.5z M120.3,368.2
		c-1-8.1-1.7-16.4-1.9-24.7c6.8,4.6,14.1,7.9,21.9,10.1c-2.9,2.1-5.7,4.4-8.1,7.1c-4.5,4.8-8,10.5-10.5,16.5
		C121.1,374.2,120.7,371.2,120.3,368.2z M438.2,459.1c-15.6,6.7-32.8,9-49.6,10.4c-19,1.6-38.2,2.6-57.3,3.4
		c-38.9,1.7-78.3,1.7-116.6-5.6c-17.7-3.4-36.5-7.5-52-16.9c-13.5-8.3-23.2-21.1-29.9-35.3c-2.1-4.5-3.9-9.2-5.5-14
		c-0.7-12.2,3.3-24.4,11.7-33.5c4.5-4.9,10-8.6,16.1-11.1c18.7,2.1,38.4-1,55.9-6.9c9.5-3.2,18.9-7.3,27.5-12.5
		c14.2,11.1,36.1,12.8,51.7,2.9c7.6-4.8,13.1-11.4,16.7-18.8c3.6,7.4,9.1,14,16.7,18.8c15.5,9.8,37.1,8.2,51.3-2.6
		c8.5,5,17.7,9,27,12.2c17.5,5.9,37.2,9,55.9,6.9c6.1,2.5,11.6,6.2,16.1,11.1c7.4,8,12.3,21.3,12.9,32.7
		C479.1,425.7,463.6,448.2,438.2,459.1z"/>
	<path class="st0" d="M335.4,380.6c-6.8-5.4-15.5-6.3-23.8-6.9c-0.4,0-0.7,0-1.1,0c-14.6-1.1-30,1.9-39.1,14.4
		c-9.2,12.7-4.7,29,8,37.4c22.1,14.6,65.4,5.4,64.7-26.2C343.9,392.2,341.1,385.1,335.4,380.6z M320.8,419.2
		c-9.6,4.4-22.6,4.4-32.2,0.2c-9.5-4.1-15.9-14.2-10.2-24c6.9-11.9,21.9-12.9,34.2-11.6c0.3,0,0.6,0,0.9,0
		c9.1,0.8,19.3,3.1,20.7,13.8C335.4,407.1,329.3,415.3,320.8,419.2z"/>
	<path class="st0" d="M182.4,295c7.7,8.1,18.3,12.5,29.5,11c11-1.4,20.3-7.6,26.6-16.6c6.3-9.2,8.9-20.4,10.8-31.2
		c0.8-4.5-4.6-8.6-8.2-4.8c-17,17.9-43.9,20.7-64.4,7.2c-1.7-5.9-10.9-3.3-9.4,2.8C170.1,274.8,174.2,286.3,182.4,295z M236.6,269.6
		c-3.8,12.6-10.7,24.2-25,26.6c-15.6,2.6-25-9.1-30.4-22.1C199.2,281.8,220.1,280,236.6,269.6z"/>
	<path class="st0" d="M374.5,289.4c6.2,9,15.6,15.2,26.6,16.6c11.2,1.4,21.8-2.9,29.5-11c8.2-8.7,12.3-20.2,15.1-31.6
		c1.5-6.1-7.8-8.7-9.4-2.8c-20.5,13.4-47.3,10.7-64.4-7.2c-3.6-3.8-9,0.3-8.2,4.8C365.6,269,368.2,280.2,374.5,289.4z M431.9,274.2
		c-5.5,13-14.8,24.6-30.4,22.1c-14.3-2.4-21.2-14-25-26.6C393,280,413.8,281.8,431.9,274.2z"/>
</g>
</svg>
