<?xml version="1.0" encoding="utf-8"?>
<!-- Generator: Adobe Illustrator 27.3.1, SVG Export Plug-In . SVG Version: 6.00 Build 0)  -->
<svg version="1.1" id="katman_1" xmlns="http://www.w3.org/2000/svg" xmlns:xlink="http://www.w3.org/1999/xlink" x="0px" y="0px"
	 viewBox="0 0 612 792" style="enable-background:new 0 0 612 792;" xml:space="preserve">
<style type="text/css">
	.st0{fill:#1D1D1B;}
</style>
<g>
	<path class="st0" d="M571,375.5c-1.5-30.2-2.5-60.5-4.7-90.7c-1.9-26.9-5.9-53.8-17.2-78.5c-10-21.7-25.9-40.5-47.2-51.7
		c-22-11.6-47-15.4-71.5-17.4c-57.6-4.7-116.1-6.6-173.8-3.1c-28.1,1.7-56.3,4.7-83.9,10.3c-21.6,4.4-43.1,11-62.3,21.9
		c-19.6,11.2-36.2,27.3-45.6,48c-5.5,12.1-9,25-12.2,37.9c-3.6,14.6-6.4,29.3-8.6,44.2c-4.2,28.3-6,56.9-5.2,85.5
		c0.7,26.2,2.1,54.4,11.6,79.1c8.6,22.5,25.9,37.3,46.3,49.8c12.8,7.8,26.8,13.7,40.9,18c-4.4-0.2-8.9,0.2-13.1,1.2
		c-16.5,4.3-30,17.3-37.5,32.3c-7.7,15.3-10.1,33.9-4.8,50.4c5,15.6,16.7,27.6,31.3,34.6c14.8,7.1,31.2,9.8,47.4,11.1
		c18,1.5,38,2.8,54.3-6.3c12.6-7,21-19.2,26.3-32.4c12.7,22.7,41.9,32.1,67.5,30.9c14.9-0.7,30.2-3.5,43.5-10.5
		c6.9-3.6,14.4-9.5,19.3-16.7c5.4,11.8,13.3,22.4,24.7,28.8c16.4,9.1,36.3,7.8,54.3,6.3c16.2-1.3,32.7-4,47.4-11.1
		c14.6-7,26.3-19.1,31.3-34.6c5.3-16.5,2.9-35-4.8-50.4c-7.5-15-21-28-37.5-32.3c-0.9-0.2-1.7-0.3-2.6-0.5
		c14.9-3.8,29.3-9.3,42.4-17.7c19.6-12.6,35.6-30.9,41.9-53.6C576.5,431.7,572.4,402.6,571,375.5z M239.2,590.7
		c-2,14.5-6.5,29.8-15.7,41.5c-9.5,12.2-23.1,17-38.2,17.4c-14,0.4-28.6-0.7-42.4-3.2c-12.8-2.4-25.9-6.4-36.1-14.7
		c-10.9-8.8-17-21.6-17.5-35.6c-0.9-26.1,18.3-58.6,47.5-57.6c14.2,0.5,28.7,10.6,28.3,25.9c-0.2,6.7-3.5,13.7-10.1,16.1
		c-5.7,2.1-13.1,0.9-16.6-4.4c-2.5-3.7-7.4-2.8-9,1.2c-4.6,11.5,0.5,24.7,10,32c10.5,8,25.2,7.1,36.3,0.8
		c25.2-14.2,24.7-45.1,18.2-70.2c19.3,2,33.7,1.9,37.6,2c1.4,0,2.8,0,4.2,0.1C240.1,557.9,241.5,574.4,239.2,590.7z M166.8,542.4
		c-3.1-3.6-6.9-6.4-11-8.6c9.6,2.2,18.9,3.8,27.6,5c6,19.8,9.3,44.4-7.7,59.5c-7.4,6.5-19.1,9.7-28.1,4.8c-5.6-3-9.2-8.7-9.8-14.8
		c9.1,5,21.4,3.8,29.1-4C178.3,572.9,176.7,554,166.8,542.4z M345.3,633c-11.7,5.5-25.1,7.6-37.8,8c-25.1,0.8-54.1-9.4-61.1-35.9
		c5.1-20.6,4.8-42.3-0.5-62.8c7.7,0.1,15.5,0.2,23.2,0.3c2.2,11.5,4.8,23.3,12.1,32.8c6.8,8.9,17.1,14.7,28.6,13.4
		c23-2.5,38.6-25.1,38.6-47.2c6.1-0.2,12.2-0.4,18.2-0.6c-5.8,21.4-6.1,44.1-0.6,65.6c0.3,1.2,0.7,2.5,1.1,3.7
		C365.5,620.7,353.8,628.9,345.3,633z M279,542.6c19.8,0,39.6-0.2,59.4-0.7c-0.2,16.8-11.8,35.8-29.9,37.2
		C288.7,580.7,282.3,558.5,279,542.6z M522.7,596.2c-0.5,13.9-6.6,26.8-17.5,35.6c-10.3,8.3-23.3,12.3-36.1,14.7
		c-13.8,2.6-28.4,3.7-42.4,3.2c-15.1-0.5-28.7-5.2-38.2-17.4c-9.2-11.7-13.7-27-15.7-41.5c-2.3-16.8-0.8-33.9,4-50.1
		c13.9-0.5,27.8-1.1,41.7-2c-6.9,25.3-7.9,57.1,17.8,71.6c11.1,6.3,25.8,7.1,36.3-0.8c9.6-7.3,14.6-20.5,10-32c-1.6-4-6.4-4.9-9-1.2
		c-3.6,5.2-10.9,6.5-16.6,4.4c-6.6-2.4-10-9.4-10.1-16.1c-0.4-15.3,14.2-25.4,28.3-25.9C504.4,537.6,523.6,570.1,522.7,596.2z
		 M445.1,584.3c7.8,7.8,20,9,29.1,4c-0.6,6.1-4.2,11.8-9.8,14.8c-9.1,4.9-20.7,1.7-28.1-4.8c-17.2-15.3-13.6-40.4-7.4-60.4
		c8.2-0.6,16.3-1.4,24.4-2.4c-3,1.9-5.7,4.2-8.1,6.9C435.3,554,433.7,572.9,445.1,584.3z M545.6,482.9
		c-32.5,40-88.1,43.4-135.6,46.2c-56.9,3.3-113.8,4.4-170.8,3.3c-6.8-0.1-111.7,0.4-163.4-48.2C58.2,467.6,53.6,442,51,418.6
		c-2.9-27.1-3.4-54.5-1.6-81.7c1.8-27.7,6-55.1,12.6-82c5.7-23.4,13-46.2,30.8-63.4c32.2-31.1,81.4-39,124.1-44
		c55.5-6.5,111.6-5.8,167.4-3.1c46.1,2.2,102.7,0.6,136.9,37.2c36.4,38.9,35.2,97.5,37.7,147.2c1.4,28.2,3.1,56.4,4.1,84.6
		C563.9,438.1,561.8,462.9,545.6,482.9z"/>
	<path class="st0" d="M513.6,392.1c-0.1-0.1-0.2-0.1-0.4-0.1c2.2-5,3.4-10.5,3.3-16c-0.3-11.5-5.8-22-14-29.6
		c11.5-18,15.3-40.4,5.8-62c-5.7-13-16.4-21.9-28.7-28.2c1.9-6,3-12.3,2.8-18.9c-0.6-18.7-12-33.2-29.6-39.1
		c-20.7-7-42.7-0.8-63.7,1c-24.7,2.1-49.5,0.8-73.9-3.6c-0.2-0.2-0.3-0.4-0.5-0.6c-0.5-1.1-1.4-2-2.8-2.5
		c-57.3-21.3-125.1-1.9-166.1,42.5c-42.3,45.8-57.7,115.1-41.5,175c4.1,15.2,10.7,29.9,20.7,42.2c10.5,12.9,24.7,21.6,39.9,27.9
		c33.2,13.8,69.8,16.5,105.4,15.3c38.1-1.2,76.2-5.8,114.1-9.2c33.7-3.1,71.4-3.8,100.2-24.1c12.6-9,23.1-21,29.9-35
		C519.1,417.4,526.7,398.5,513.6,392.1z M374.8,209.5c-17.1,10-39,13.2-56.7,6.1c0.7-3.2,1-6.4,0.6-9.7c16.5,2.7,33.2,4.1,49.9,3.9
		C370.6,209.7,372.7,209.6,374.8,209.5z M312,243c-22.5,10.5-38.4,33.3-40.1,58.1c-6.8-1.7-13.3-4.1-19.2-7.4
		c-6.2-3.5-12-8.4-14.5-15.3c-2.8-7.8-0.9-16.2,1.3-24c19.3,3,40.6-2.9,57.3-12.4c4.4-2.5,8.5-5.8,12-9.6
		C309.6,236,310.7,239.6,312,243z M316.1,251.8c2.6,4.6,5.9,8.7,10.3,12c15,11.3,33.3,5.8,50.5,4c-3.3,12.1-14.4,20.8-25.4,26.3
		c-15.2,7.6-32.9,10.7-49.8,10.6c-6.5,0-13.3-0.5-20-1.5C282.7,281.4,296.2,260.9,316.1,251.8z M289.6,196c6,1.2,11.8,3,17.5,5
		c0,0,0,0,0,0c0.4,1.2,0.7,2.4,0.9,3.5c-19.4,5.6-38.8-1.3-56.2-10.8C264.4,192.7,277.1,193.4,289.6,196z M189.8,477.9
		c-15.5-4.2-31-10.1-44-19.6c-12.2-9-21.1-21.7-26.8-35.7c-3.2-7.7-5.5-15.7-7.3-23.9c28.4-17.5,62.4-25.3,95.7-21
		c33.9,4.4,72.1,25.7,75.1,63.6c1.4,17.4-6.5,35.2-21.7,44.3C236.9,485.8,212.9,484.1,189.8,477.9z M509.8,412.5
		c-4.4,13.9-13.1,26.4-24,36C461.4,470,427,472.2,396,475.1c-35.3,3.2-70.7,7-106.1,9.3c-4.4,0.3-8.7,0.5-13.1,0.7
		c8.7-9.1,14-21.2,15.3-33.9c1.9-18.4-5.5-36.5-17.2-50.4c-26.7-31.6-73.7-38.2-112.4-31.7c-18.6,3.2-36.5,9.8-52.7,19.3
		c-2.6-17.4-2.4-35.4-0.1-52.4c3.9-28.7,14.4-56.5,31.4-80.1c22.4-31.1,57.3-52.9,94.8-60.1c21.4,13.1,46.5,24.9,71.6,18.9
		c-3.3,11.3-14.8,18.5-19.9,21C272.4,243,254,248,237.3,244c-2.6-0.6-5.3,0.8-6,3.4c-4.4,15-7.3,31.2,3.5,44.2
		c9,10.9,23.5,16.1,36.8,19.3c29.9,7.1,66,4.5,92.3-12.6c12.7-8.3,22.6-20.3,23.7-35.9c0.2-2.6-2.4-5-4.9-4.9
		c-15.8,0.7-36.2,9.1-50.3-1.4c-9.3-6.9-12.8-19-15-30.2c24.7,8.9,55.8,0.5,75.5-17.5c1.9-0.2,3.7-0.3,5.6-0.5
		c10.4-1.2,20.7-3.1,31.2-3.3c16-0.3,35,4.7,41,21.5c6.2,17.1-1.8,34.8-11.4,48.9c-9.6,14-23.4,34.8-42.6,34.4
		c-6.3-0.1-6.3,9.7,0,9.8c19.2,0.4,32.8-15,43.6-29c5.9-7.7,11.7-16,15.9-24.8c11.5,6.1,21.1,14.6,25.3,27.8
		c4.4,14.1,2.7,29.9-3.9,43.1C485,360.6,458,376.2,430.7,374c-6.3-0.5-6.3,9.3,0,9.8c25.4,2,50.3-10.4,66.1-29.5
		c5.8,5.7,9.8,13.5,10,21.7c0.2,6.2-1.8,12.4-5.5,17.3c-2,1.2-3.9,2.8-5.6,4.4c-6.1,5.9-12.3,11.6-19.3,16.5
		c-13.3,9.2-28.2,15.9-43.9,19.8c-8,2-16.2,3.2-24.4,3.6c-6.3,0.3-6.3,10.1,0,9.8c29.9-1.6,58.5-12.5,81.9-31.1
		c2.9-2.3,5.7-4.7,8.3-7.2c2.6-2.4,5.2-6.2,8.6-7.6C512.9,398.6,510.7,409.7,509.8,412.5z"/>
	<path class="st0" d="M186.7,407.6c-10.9,0.1-16.5,13.3-14.4,23.9c2,10.1,10.7,17.8,20.6,19.5c5.7,1,11.6,0.6,17.1-1.1
		c5.2-1.6,10.9-4.2,13.9-9c3.5-5.8,1.3-12.3-3.3-16.7C217,420.9,207.7,407.4,186.7,407.6z"/>
</g>
</svg>
