<?xml version="1.0" encoding="utf-8"?>
<!-- Generator: Adobe Illustrator 27.3.1, SVG Export Plug-In . SVG Version: 6.00 Build 0)  -->
<svg version="1.1" id="katman_1" xmlns="http://www.w3.org/2000/svg" xmlns:xlink="http://www.w3.org/1999/xlink" x="0px" y="0px"
	 viewBox="0 0 612 792" style="enable-background:new 0 0 612 792;" xml:space="preserve">
<style type="text/css">
	.st0{fill:#1D1D1B;}
</style>
<g>
	<path class="st0" d="M571,375.5c-1.5-30.2-2.5-60.5-4.7-90.7c-1.9-26.9-5.9-53.8-17.2-78.5c-10-21.7-25.9-40.5-47.2-51.7
		c-22-11.6-47-15.4-71.5-17.4c-57.6-4.7-116.1-6.6-173.8-3.1c-28.1,1.7-56.3,4.7-83.9,10.3c-21.6,4.4-43.1,11-62.3,21.9
		c-19.6,11.2-36.2,27.3-45.6,48c-5.5,12.1-9,25-12.2,37.9c-3.6,14.6-6.4,29.3-8.6,44.2c-4.2,28.3-6,56.9-5.2,85.5
		c0.7,26.2,2.1,54.4,11.6,79.1c8.6,22.5,25.9,37.3,46.3,49.8c12.8,7.8,26.8,13.7,40.9,18c-4.4-0.2-8.9,0.2-13.1,1.2
		c-16.5,4.3-30,17.3-37.5,32.3c-7.7,15.3-10.1,33.9-4.8,50.4c5,15.6,16.7,27.6,31.3,34.6c14.8,7.1,31.2,9.8,47.4,11.1
		c18,1.5,38,2.8,54.3-6.3c12.6-7,21-19.2,26.3-32.4c12.7,22.7,41.9,32.1,67.5,30.9c14.9-0.7,30.2-3.5,43.5-10.5
		c6.9-3.6,14.4-9.5,19.3-16.7c5.4,11.8,13.3,22.4,24.7,28.8c16.4,9.1,36.3,7.8,54.3,6.3c16.2-1.3,32.7-4,47.4-11.1
		c14.6-7,26.3-19.1,31.3-34.6c5.3-16.5,2.9-35-4.8-50.4c-7.5-15-21-28-37.5-32.3c-0.9-0.2-1.7-0.3-2.6-0.5
		c14.9-3.8,29.3-9.3,42.4-17.7c19.6-12.6,35.6-30.9,41.9-53.6C576.5,431.7,572.4,402.6,571,375.5z M239.2,590.7
		c-2,14.5-6.5,29.8-15.7,41.5c-9.5,12.2-23.1,17-38.2,17.4c-14,0.4-28.6-0.7-42.4-3.2c-12.8-2.4-25.9-6.4-36.1-14.7
		c-10.9-8.8-17-21.6-17.5-35.6c-0.9-26.1,18.3-58.6,47.5-57.6c14.2,0.5,28.7,10.6,28.3,25.9c-0.2,6.7-3.5,13.7-10.1,16.1
		c-5.7,2.1-13.1,0.9-16.6-4.4c-2.5-3.7-7.4-2.8-9,1.2c-4.6,11.5,0.5,24.7,10,32c10.5,8,25.2,7.1,36.3,0.8
		c25.2-14.2,24.7-45.1,18.2-70.2c19.3,2,33.7,1.9,37.6,2c1.4,0,2.8,0,4.2,0.1C240.1,557.9,241.5,574.4,239.2,590.7z M166.8,542.4
		c-3.1-3.6-6.9-6.4-11-8.6c9.6,2.2,18.9,3.8,27.6,5c6,19.8,9.3,44.4-7.7,59.5c-7.4,6.5-19.1,9.7-28.1,4.8c-5.6-3-9.2-8.7-9.8-14.8
		c9.1,5,21.4,3.8,29.1-4C178.3,572.9,176.7,554,166.8,542.4z M345.3,633c-11.7,5.5-25.1,7.6-37.8,8c-25.1,0.8-54.1-9.4-61.1-35.9
		c5.1-20.6,4.8-42.3-0.5-62.8c7.7,0.1,15.5,0.2,23.2,0.3c2.2,11.5,4.8,23.3,12.1,32.8c6.8,8.9,17.1,14.7,28.6,13.4
		c23-2.5,38.6-25.1,38.6-47.2c6.1-0.2,12.2-0.4,18.2-0.6c-5.8,21.4-6.1,44.1-0.6,65.6c0.3,1.2,0.7,2.5,1.1,3.7
		C365.5,620.7,353.8,628.9,345.3,633z M279,542.6c19.8,0,39.6-0.2,59.4-0.7c-0.2,16.8-11.8,35.8-29.9,37.2
		C288.7,580.7,282.3,558.5,279,542.6z M522.7,596.2c-0.5,13.9-6.6,26.8-17.5,35.6c-10.3,8.3-23.3,12.3-36.1,14.7
		c-13.8,2.6-28.4,3.7-42.4,3.2c-15.1-0.5-28.7-5.2-38.2-17.4c-9.2-11.7-13.7-27-15.7-41.5c-2.3-16.8-0.8-33.9,4-50.1
		c13.9-0.5,27.8-1.1,41.7-2c-6.9,25.3-7.9,57.1,17.8,71.6c11.1,6.3,25.8,7.1,36.3-0.8c9.6-7.3,14.6-20.5,10-32c-1.6-4-6.4-4.9-9-1.2
		c-3.6,5.2-10.9,6.5-16.6,4.4c-6.6-2.4-10-9.4-10.1-16.1c-0.4-15.3,14.2-25.4,28.3-25.9C504.4,537.6,523.6,570.1,522.7,596.2z
		 M445.1,584.3c7.8,7.8,20,9,29.1,4c-0.6,6.1-4.2,11.8-9.8,14.8c-9.1,4.9-20.7,1.7-28.1-4.8c-17.2-15.3-13.6-40.4-7.4-60.4
		c8.2-0.6,16.3-1.4,24.4-2.4c-3,1.9-5.7,4.2-8.1,6.9C435.3,554,433.7,572.9,445.1,584.3z M545.6,482.9
		c-32.5,40-88.1,43.4-135.6,46.2c-56.9,3.3-113.8,4.4-170.8,3.3c-6.8-0.1-111.7,0.4-163.4-48.2C58.2,467.6,53.6,442,51,418.6
		c-2.9-27.1-3.4-54.5-1.6-81.7c1.8-27.7,6-55.1,12.6-82c5.7-23.4,13-46.2,30.8-63.4c32.2-31.1,81.4-39,124.1-44
		c55.5-6.5,111.6-5.8,167.4-3.1c46.1,2.2,102.7,0.6,136.9,37.2c36.4,38.9,35.2,97.5,37.7,147.2c1.4,28.2,3.1,56.4,4.1,84.6
		C563.9,438.1,561.8,462.9,545.6,482.9z"/>
	<path class="st0" d="M509.2,212.8c-15.7-15.4-35.6-26.8-56.3-33.8c-23.3-8-48.4-10.1-72.8-12.3c-22.6-2-125.6-2-148.1,0
		c-24.4,2.2-49.5,4.4-72.8,12.3c-20.7,7.1-40.6,18.4-56.3,33.8c-15.9,15.7-23.1,35.8-25.9,57.6c-3,24.1-3,48.9-3,73.1
		c0,25.3,1.3,50.6,5.1,75.7c3.2,20.8,6.4,46.8,22.4,62.2c8,7.7,18.6,12.3,28.6,16.7c10.9,4.8,22,9.3,33.5,12.6
		c27.4,8,55.5,6.8,83.7,6.5h117.6c28.3,0.3,56.3,1.4,83.7-6.5c11.5-3.3,22.6-7.8,33.5-12.6c10-4.5,20.6-9,28.6-16.7
		c16-15.4,19.2-41.4,22.4-62.2c3.8-25,5.1-50.4,5.1-75.7c0-24.2,0-49-3-73.1C532.3,248.6,525.1,228.4,509.2,212.8z M520.6,433.2
		c-2.1,10.4-4.3,21.2-9.2,30.7c-5.2,9.8-13.4,15.7-23.2,20.5c-20.6,10.2-42.8,18.9-65.7,21.8c-23.7,3.1-48.3,1.2-72.2,1
		c-4.1,0-137,2.1-160.7-1c-22.9-3-45.1-11.7-65.7-21.8c-9.7-4.8-18-10.7-23.2-20.5c-5-9.4-7.1-20.3-9.2-30.7
		c-9.5-46.8-8.8-95.3-6.4-142.8c1.1-21,3.5-43.1,16-60.7c12-16.8,31.3-29.1,50-37.2c24-10.4,50.3-13.2,76.1-15.6
		c26.2-2.5,131.6-2.5,157.8,0c25.8,2.5,52.1,5.2,76.1,15.6c18.7,8.1,38,20.4,50,37.2c12.5,17.6,14.9,39.7,16,60.7
		C529.3,337.9,530.1,386.4,520.6,433.2z"/>
	<path class="st0" d="M410.7,190.1c-22-2.8-44.4-2.4-66.5-1.5c-23.2,0.9-46.4,2.8-69.5,5.8c-21.1,2.7-42.4,5.6-63,11
		c-18.5,4.9-36.7,12.5-51.1,25.4c-27.5,24.5-38,65.5-27.7,100.6c-3.6,2.3-7,5.2-9.9,8.5c-11.1,12.7-15.7,29.6-18.6,45.9
		c-3.7,21.3-3.8,42.8-0.5,64.2c0.7,4.9,8.4,4.4,9.5,0c3-12.3,6.6-25.7,13.5-36.3c0.7,0.9,1.5,1.8,2.5,2.5c5.6,4.5,12.4,3.7,18.6,0.9
		c7.5-3.3,13.6-7.3,22-7.8c0.8,0,1.6,0,2.4,0c-0.3,1.6-0.4,3.2-0.5,4.8c-4.3-0.1-8.6,0.2-12.9,0.8c-9.6,1.4-35.6,8.9-29.5,23.4
		c2.5,5.8,8.8,7,14.3,5.6c6.2,22.1,29.6,33.6,50.9,37.7c28.1,5.4,57.2,5.9,85.7,5.7c29-0.3,58.1-1.1,87-2.9
		c28.1-1.7,57.3-4.5,84.1-13.5c11.3-3.8,22.2-9.4,30-18.6c7.8-9.2,12.3-20.8,14.9-32.4c5.4-24.3,2.8-50.8-9.4-72.7
		c-0.1-0.1-0.2-0.3-0.3-0.4c22.2-29.6,35.4-68.4,16.1-103C484.1,210.3,446.9,194.7,410.7,190.1z M111.3,423.1
		c-0.2-8.3,0.2-16.6,1.2-24.9c1.7-14.9,4.7-31,12.3-44.1c6.8-11.7,18.8-21.1,33-19.5c14.4,1.6,26.4,12.5,36.2,22.3
		c6.7,6.7,12.9,14,17.9,22.1c0.2,0.4,0.4,0.8,0.7,1.1c1.9,3.2,3.6,6.6,5.1,10.1c-23.9-4.9-50.6-11.5-73.7-2.7
		C126.9,394,117.4,407.6,111.3,423.1z M436,305.9c-5.2-1.5-10.4-2.3-15.7-2.7c5.3-8.5,10.8-16.9,16.5-25.1
		c5.6,6.3,11.3,12.5,16.9,18.7c-2.6,4.3-5.5,8.5-8.5,12.4C442.2,308,439.2,306.8,436,305.9z M161.3,325.4c-0.1-0.5-0.3-0.9-0.4-1.4
		c4.1-6.9,8.3-13.7,12.5-20.5c4.8,7.9,9.6,15.7,14.5,23.5c-1.6,2.7-3.1,5.3-4.7,8c-5.8-4-12.1-7.2-18.9-8.9
		C163.3,325.7,162.3,325.5,161.3,325.4z M179.1,294.1c6.3-10.2,12.7-20.4,19.1-30.5c3.8,9.1,7.9,18.1,12.2,27
		c-5.8,8.9-11.4,17.9-16.9,27C188.7,309.7,183.9,301.9,179.1,294.1z M193.8,336.2c4.3,6.8,8.7,13.5,13,20.2
		c-1.1-1.2-2.1-2.3-3.2-3.5c-3.9-4.1-8.1-8.2-12.6-12.1C192,339.3,192.9,337.8,193.8,336.2z M227.6,370.3
		c-9.5-14.4-18.9-29-28.1-43.6c5.2-8.7,10.6-17.4,16.1-26c2.7,5.4,5.6,10.7,8.5,15.9c-5.6,9-7.7,20-3.9,30.6
		c4.4,12.5,17.2,21.3,30,20.6C242.6,368.7,235.1,369.5,227.6,370.3z M264.8,229.9c0.3-0.1,0.6-0.1,0.9-0.2c4.1-0.8,8.1-1.5,12.2-2.3
		c4,6.4,8,12.8,12.1,19.2c-8.5,10.4-16.7,21-24.7,31.7c-5-9.8-9.8-19.6-14.5-29.5C255.4,242.5,260.1,236.2,264.8,229.9z
		 M328.2,220.3c5.6,8.5,11.3,16.9,17.1,25.2c-8.1,10.7-16.2,21.4-24.1,32.3c-6.4-10.1-12.7-20.2-19.1-30.3c7.5-9.1,15.2-18,23-26.8
		C326.2,220.5,327.2,220.4,328.2,220.3z M387.9,219.9c4.3,5.3,8.5,10.7,12.9,16c-8.6,11.5-16.9,23.2-25.2,35
		c-6.2-8.3-12.2-16.7-18.2-25.2c6.9-8.9,13.9-17.8,20.9-26.6C381.5,219.3,384.7,219.6,387.9,219.9z M408.9,303
		c-2.8,0.1-5.7,0.2-8.5,0.5c-6.3-8-12.6-16.1-18.7-24.2c8.3-12,16.8-23.9,25.5-35.6c7.5,9.1,15.2,18,23,26.9
		C422.7,281.1,415.6,291.9,408.9,303z M369.7,279.4c-8.3,12.1-16.5,24.2-24.5,36.5c-6.1-9.7-12.2-19.5-18.4-29.2
		c8-11,16.1-22,24.4-32.8C357.2,262.4,363.4,270.9,369.7,279.4z M315,286.3c-5.2,7.2-10.3,14.5-15.3,21.8c-1-1.1-2.1-2.2-3.2-3.2
		c-6.1-5.5-14-7.9-22-8.9c-1.4-2.6-2.7-5.3-4.1-7.9c8.2-11,16.6-22,25.2-32.7C302,265.7,308.5,276,315,286.3z M258.8,287.2
		c-2.4,3.3-4.9,6.6-7.3,9.9c-4,1-7.8,2.5-11.4,4.4c-3.4,1.9-6.6,4.2-9.4,6.9c-3.1-5.7-6.1-11.4-9-17.2C229,280,236.6,269,244.3,258
		C249,267.8,253.9,277.5,258.8,287.2z M271.1,339.9c-3.7-9.7-14.8-14.5-24.5-10.9c-5.9,2.2-3.3,11.7,2.6,9.5
		c5.9-2.2,12.8,0.6,13.3,7.5c0.5,6.3-5.5,10.8-11.2,11.8c-13,2.3-23.2-9-23.4-21.3c-0.2-13.7,10.3-24.9,22.8-29
		c12.5-4.2,31.3-4.1,40.8,6.3c10.5,11.5,14.8,28.3,14,43.6c-3.9,3.7-8.7,5.2-14.6,6c-8.2,1-16.5,1.8-24.8,2.7c-4.5,0.5-9,1-13.4,1.5
		c3.1-0.5,6.1-1.6,9-3.3C270.1,359.2,274.6,349.4,271.1,339.9z M314.9,343.5c-1.2-9.5-4.2-19-9.1-27.1c4.9-7.1,9.8-14.1,14.8-21.1
		c5.4,8.6,10.8,17.2,16.3,25.9c-2,1.3-4,2.7-6,4.1c-4.7,3.6-8.8,7.8-12.4,12.6C317.2,339.6,316,341.5,314.9,343.5z M375.9,287.6
		c4.3,5.7,8.7,11.3,13.1,17c-8.7,1.1-17.3,2.6-25.6,5c-1,0.3-1.9,0.6-2.8,0.9C365.6,302.8,370.7,295.2,375.9,287.6z M458.4,287.4
		c-5.3-5.8-10.5-11.6-15.7-17.5c4.2-5.8,8.5-11.5,13-17.2c3.5,5.7,5.8,12,5.9,18.9C461.7,277.1,460.4,282.4,458.4,287.4z M436,262.3
		c-7.7-8.8-15.3-17.7-22.8-26.7c2.2-2.9,4.3-5.7,6.5-8.6c6.6,2.4,13,5.3,18.9,9.1c3.9,2.4,7.6,5.4,10.8,8.8
		C444.9,250.6,440.4,256.4,436,262.3z M406.8,227.9c-1.6-1.9-3.1-3.8-4.7-5.7c2.6,0.5,5.1,1.1,7.6,1.8
		C408.8,225.3,407.8,226.6,406.8,227.9z M351.5,237.3c-4.1-5.9-8.1-11.9-12.2-17.9c5.1-0.3,10.1-0.6,15.2-0.7
		c3.8-0.1,7.7-0.1,11.7,0C361.3,224.8,356.4,231.1,351.5,237.3z M296.7,238.7c-2.8-4.4-5.5-8.7-8.3-13.1c7.4-1.2,14.9-2.4,22.4-3.4
		C306,227.7,301.3,233.2,296.7,238.7z M246,238.9c-0.7-1.6-1.4-3.1-2.2-4.7c2.2-0.5,4.4-0.9,6.6-1.4
		C249,234.9,247.5,236.9,246,238.9z M234.2,236.4c1.8,3.8,3.5,7.6,5.3,11.4c-7.8,10.9-15.4,22-22.8,33.1c-4.3-9.1-8.3-18.3-12-27.6
		c2.5-3.9,5.1-7.9,7.6-11.8c2.4-0.6,4.8-1.2,7.1-1.8C224.3,238.7,229.3,237.6,234.2,236.4z M192.1,248.1c0.5,1.4,1.1,2.8,1.6,4.3
		c-6.8,10.7-13.6,21.5-20.3,32.3c-2.5-4.1-5-8.3-7.4-12.4c3.4-6.5,8.1-12.4,14.3-17.3C184,252.2,188,250,192.1,248.1z M161.4,283.7
		c2.1,3.5,4.1,6.9,6.2,10.3c-3,4.8-5.9,9.7-8.9,14.5C158.3,300.1,159.1,291.7,161.4,283.7z M148.8,405.6c-3,1.6-6.7,4.3-10.3,4.1
		c-1.9-0.1-5.6-2-4.3-4.2c0.3-0.4,0.4-0.8,0.5-1.2c4-3.6,8.8-6.5,14.5-8.3c23.3-7.4,50.1,0.8,73.2,5.2c0,0,0,0,0,0
		c0.9,0.3,1.9,0.3,3-0.1c15.2-5.9,31.3-8.5,47.6-7.3c16.3,1.2,32.2,7.6,48.7,5.5c7.8-1,15.3-3.7,22.9-5.6c6.8-1.7,14.6-2.8,20.9,1
		c9.2,5.7,11.1,19.1,7.3,28.5c-4.6,11.8-17.6,17.9-29.4,19.8c-15.6,2.6-31.4-2.1-46.1-6.6c-7.8-2.4-15.7-5.2-23.8-6.4
		c-1.2-0.2-2.4-0.2-3.7-0.3c0.4-1.2,0.9-2.3,1.3-3.4c2.1-0.2,4.3-0.5,6.4-0.6c16.9-1.2,33.8,1.8,50.6,2.2
		c11.2,0.3,33.6,1.3,35.4-14.2c2-17.4-23.2-12.6-33-11.1c-8.8,1.4-17.1,1.2-25.8-0.4c-7.7-1.4-15.3-3.3-23.1-4.1
		c-16.3-1.8-31.3,4.1-47,6.9C205.7,410.4,176.8,390.5,148.8,405.6z M195.7,445.4c-3.6-3.5-6.8-7.4-9.3-11.8c-4-7-6.1-15.7-4.4-23.8
		c4,0.5,7.9,1.3,11.8,2c1.2,0.2,2.3,0.4,3.5,0.7C193.3,422.9,193.4,434.4,195.7,445.4z M234.4,415c-0.2,2-0.3,4.1-0.3,6.1
		c-8.7,0.2-17.3-0.9-25.9-2.3c-0.8-0.1-1.7-0.3-2.5-0.4c0.4-1.4,1-2.8,1.6-4.1C216.3,415.5,225.2,416.1,234.4,415z M204,427.9
		c7.9,1.4,15.8,2.7,23.9,3c2.5,0.1,4.9,0,7.3-0.1c0.5,2.6,1.3,5.2,2.2,7.7c-2.1,0.6-4.2,1.1-6.4,1.3c-6.3,0.6-12.6-0.2-18.8-1.6
		c-2.7-0.6-5.4-1.3-8.1-2.1C203.9,433.4,203.8,430.6,204,427.9z M244.6,413.1c7-1.7,14-3.7,21.2-4.8c1.7-0.3,3.3-0.4,5-0.5
		c-9.2,12.4-14,27.6-13.9,43.1C246.9,441.3,242,426.8,244.6,413.1z M283.2,408.3c3.2,0.4,6.4,1,9.7,1.6c8.2,1.6,16.4,3.6,24.8,3.8
		c8.9,0.2,17.4-2.3,26.2-2.8c2.3-0.1,11.7-1.3,9.9,3c-1.4,3.4-7.7,3.6-10.7,3.9c-8.9,0.9-17.8,0.4-26.6-0.2
		c-13.5-1-26.5-1.8-39.8-1.2C278.6,413.5,280.8,410.8,283.2,408.3z M138.4,434.4c-0.7-1.2,6.8-5.2,7.7-5.6c3.4-1.7,7-2.8,10.7-3.6
		c5.2-1.1,10.5-1.4,15.7-1.3c0.3,1.6,0.7,3.2,1.2,4.8c-5.9-0.8-11.7-0.9-17.5,0.3c-2.9,0.6-5.6,1.5-8.3,2.6
		C146.7,432,139.6,436.5,138.4,434.4z M489.2,393.8c0.4,22.7-6,49.6-27,61.8c-10.6,6.2-23.1,9-35,11.5c-13,2.7-26.1,4.6-39.3,5.9
		c-26.8,2.6-53.9,3.2-80.8,4c-30.5,0.9-61.2,1.1-91.6-2.2c-23.3-2.5-55.6-8.4-62.6-34.3c3.9-1.5,7.8-2.6,12.5-2.6
		c4.4,0,8.7,0.6,13,1.5c5.9,10,14.9,17.7,24.3,24.5c3.3,2.4,8.8-1.6,7.2-5.5c-1.4-3.6-2.7-7.4-3.8-11.3c12.1,3,23.9,4,35.6,0.5
		c4.4,7.4,10.7,13.7,18.3,18c4,2.2,7.9-1.4,7.2-5.5c-1.2-6.8-1-13.7,0.2-20.4c1.2,0,2.4,0,3.7,0.1c8.9,1,17.8,4.6,26.3,7.2
		c26.7,8.1,63.2,13.2,81.5-13.8c6.6-9.8,7.3-23.4,2.5-34.1c-5.8-12.8-18.6-17.9-32-16c-8.1,1.1-15.8,4.1-23.8,5.9
		c-9,2-18,1.1-27-0.6c-17.3-3.3-33.7-5.6-51.4-3c-6.6,1-13.1,2.6-19.5,4.8c-1.2-3.2-2.5-6.3-4.1-9.3c11.6-1.3,23.1-2.5,34.7-3.8
		c12.8-1.4,26-2,38.6-4.4c11.7-2.2,18.2-9.9,23.8-19.8c5-8.8,10.8-16.3,19.3-22c17.3-11.6,39-15.5,59.5-17.2
		c12.5-1.1,25.1-1,37.2,3.1c9.7,3.3,18.7,8.9,26.3,15.9C480.1,348.2,488.8,370.7,489.2,393.8z M502.4,286
		c-1.4,18.9-10.2,36.7-21.3,52c-7.2-9.8-16.4-18.2-26.9-24.3c7.7-10.5,14.9-21.8,16.8-34.9c2-14.1-3.1-27.7-12.2-38.5
		c-19.8-23.2-55.3-29.6-84.2-31.2c-33.5-1.9-67.3,3.3-100.1,9.1c-16.8,3-33.5,6.4-50.1,10.4c-15.4,3.7-32.2,6.8-45.7,15.6
		c-26.9,17.5-33.8,51.1-27.5,80.8c-3.2,0.3-6.3,1-9.3,2c-7.5-28.1-1-59.8,18.3-81.9c24.8-28.4,65.5-33.9,100.8-39.1
		c41.1-6,83.3-9.4,124.9-8.1c35.7,1.1,73.6,8.8,98.5,36.6C497,248.8,503.8,266.9,502.4,286z"/>
	<path class="st0" d="M147.8,371.1c6.3-4,8.9-11.2,5.8-15.9c-3.1-4.7-10.6-5.3-16.9-1.2c-6.3,4-8.9,11.2-5.8,15.9
		C134,374.6,141.5,375.1,147.8,371.1z"/>
</g>
</svg>
