<?xml version="1.0" encoding="utf-8"?>
<!-- Generator: Adobe Illustrator 27.3.1, SVG Export Plug-In . SVG Version: 6.00 Build 0)  -->
<svg version="1.1" id="katman_1" xmlns="http://www.w3.org/2000/svg" xmlns:xlink="http://www.w3.org/1999/xlink" x="0px" y="0px"
	 viewBox="0 0 612 792" style="enable-background:new 0 0 612 792;" xml:space="preserve">
<style type="text/css">
	.st0{fill:#1D1D1B;}
</style>
<g>
	<path class="st0" d="M477.2,246.1c-10.1-12.6-23.8-22.1-38.4-28.7c-32.2-14.5-68.9-17.4-103.8-17.6c-10.8-0.1-88.3-5.2-145.2,15.9
		c-30.7,11.4-58.6,33.3-71.6,64.1c-7.7,18.3-9.6,38.4-9.5,58.1c0.1,19.3,2.1,39,7,57.7c4.3,16.1,11,31.7,21.4,44.7
		c11.1,14,26.2,22.8,42.9,28.3c38.9,12.9,81.1,15.4,121.8,14.9c21.1-0.3,42.1-1.4,63.1-2.7c18.7-1.2,37.5-2,55.9-6.1
		c17.1-3.8,33.5-10.9,46.5-22.8c12.6-11.5,21.5-26.7,27.3-42.7c6.7-18.8,8.7-39.1,8.8-58.9c0.1-18.8-0.9-37.9-4.7-56.4
		C495,276.6,488.4,260,477.2,246.1z M405.2,216.5c-2.8,31.3-31.9,54.4-60.1,63.8c-18.7,6.2-38.9,7.6-57.8,3.6
		c10-7.6,17.9-17.9,22.5-29.7c5.7-14.5,5.7-30.8,1-45.5C336.8,208.3,375,209.4,405.2,216.5z M300.5,208.8c5.2,13.7,5.3,29-0.2,42.7
		c-5,12.3-14.2,22.2-25.5,28.7c-11.5-4.2-22.2-10.6-31.3-19.5c-12-11.8-20.5-27.1-23.3-43.7c19.8-4.2,40.6-5.9,61.7-7.4
		C284.4,209.5,291.1,209.1,300.5,208.8z M162.9,450.4c-13.5-8.3-23.2-21.1-29.9-35.3c-6.9-14.7-10.6-30.9-12.6-46.9
		c-1.8-14.4-2.6-29.2-1.7-43.8c24.7-1.4,48,9.7,65.4,27c19.5,19.5,29.7,45.9,34,72.7c2.3,14.6,2.8,29.4,2.5,44.1
		c-1.9-0.3-3.8-0.6-5.7-0.9C197.2,464,178.4,459.9,162.9,450.4z M159.1,322.3c19.9,0,39.5,3,56.6,13.6c27.4,17,41.1,48.9,46.6,79.5
		c3.4,19,3.9,38.4,4.3,57.7c-12.1-0.6-24.2-1.6-36.2-3.3c0.9-29.5-2.1-59.7-13.8-87c-10.9-25.5-30.1-47.8-55.5-59.7
		C160.4,322.8,159.7,322.6,159.1,322.3z M276.3,473.6c-0.7-35.8-2.4-72.8-19.2-105.2c-7.4-14.2-17.5-27-30.4-36.7
		c-13.8-10.3-30.3-15.7-47.2-17.9c-17.6-2.2-35.4-1.1-53,0.7c-2.3-0.1-4.6-0.1-6.9,0c0.2-1.7,0.4-3.3,0.6-5
		c2.6-17.1,8.7-33.4,19.5-47.1c9.7-12.2,22.1-21.9,35.6-29.3c11.3-6.2,23.1-10.6,35.4-13.8c6.3,34.7,33.7,63,67.6,72.7
		c38.5,11,84-0.1,112.7-28c12.5-12.1,21.5-27.7,23.6-44.9c28.7,8.5,54.4,24.7,66.9,53c5.9,13.3,8.7,27.9,10.3,42.3
		c-1.5,0-3,0-4.5,0.1c-17.6-1.7-35.4-2.9-53-0.7c-16.9,2.1-33.4,7.5-47.2,17.9c-12.9,9.7-23,22.5-30.4,36.7
		c-16.6,32.1-18.5,68.7-19.2,104.2c-2,0.1-4.1,0.2-6.1,0.3C313.2,473.7,294.7,474.1,276.3,473.6z M347.5,472.1
		c0.4-18.9,0.9-37.9,4.3-56.6c5.4-30.6,19.1-62.5,46.6-79.5c17.1-10.6,36.7-13.6,56.6-13.6c-0.6,0.3-1.3,0.5-1.9,0.8
		c-25.4,11.9-44.6,34.2-55.5,59.7c-11.7,27.4-14.6,57.5-13.8,87C371.6,470.7,359.5,471.5,347.5,472.1z M491.7,378.7
		c-4.6,33.6-21,66.4-53.4,80.3c-14.1,6.1-29.6,8.5-44.9,10c-0.4-15,0.1-30.1,2.4-44.9c4.3-26.9,14.5-53.2,34-72.7
		c16.7-16.7,39-27.7,62.8-27.2C494,342.3,494.2,360.8,491.7,378.7z"/>
	<path class="st0" d="M571,375.5c-1.5-30.2-2.5-60.5-4.7-90.7c-1.9-26.9-5.9-53.8-17.2-78.5c-10-21.7-25.9-40.5-47.2-51.7
		c-22-11.6-47-15.4-71.5-17.4c-57.6-4.7-116.1-6.6-173.8-3.1c-28.1,1.7-56.3,4.7-83.9,10.3c-21.6,4.4-43.1,11-62.3,21.9
		c-19.6,11.2-36.2,27.3-45.6,48c-5.5,12.1-9,25-12.2,37.9c-3.6,14.6-6.4,29.3-8.6,44.2c-4.2,28.3-6,56.9-5.2,85.5
		c0.7,26.2,2.1,54.4,11.6,79.1c8.6,22.5,25.9,37.3,46.3,49.8c12.8,7.8,26.8,13.7,40.9,18c-4.4-0.2-8.9,0.2-13.1,1.2
		c-16.5,4.3-30,17.3-37.5,32.3c-7.7,15.3-10.1,33.9-4.8,50.4c5,15.6,16.7,27.6,31.3,34.6c14.8,7.1,31.2,9.8,47.4,11.1
		c18,1.5,38,2.8,54.3-6.3c12.6-7,21-19.2,26.3-32.4c12.7,22.7,41.9,32.1,67.5,30.9c14.9-0.7,30.2-3.5,43.5-10.5
		c6.9-3.6,14.4-9.5,19.3-16.7c5.4,11.8,13.3,22.4,24.7,28.8c16.4,9.1,36.3,7.8,54.3,6.3c16.2-1.3,32.7-4,47.4-11.1
		c14.6-7,26.3-19.1,31.3-34.6c5.3-16.5,2.9-35-4.8-50.4c-7.5-15-21-28-37.5-32.3c-0.9-0.2-1.7-0.3-2.6-0.5
		c14.9-3.8,29.3-9.3,42.4-17.7c19.6-12.6,35.6-30.9,41.9-53.6C576.5,431.7,572.4,402.6,571,375.5z M239.2,590.7
		c-2,14.5-6.5,29.8-15.7,41.5c-9.5,12.2-23.1,17-38.2,17.4c-14,0.4-28.6-0.7-42.4-3.2c-12.8-2.4-25.9-6.4-36.1-14.7
		c-10.9-8.8-17-21.6-17.5-35.6c-0.9-26.1,18.3-58.6,47.5-57.6c14.2,0.5,28.7,10.6,28.3,25.9c-0.2,6.7-3.5,13.7-10.1,16.1
		c-5.7,2.1-13.1,0.9-16.6-4.4c-2.5-3.7-7.4-2.8-9,1.2c-4.6,11.5,0.5,24.7,10,32c10.5,8,25.2,7.1,36.3,0.8
		c25.2-14.2,24.7-45.1,18.2-70.2c19.3,2,33.7,1.9,37.6,2c1.4,0,2.8,0,4.2,0.1C240.1,557.9,241.5,574.4,239.2,590.7z M166.8,542.4
		c-3.1-3.6-6.9-6.4-11-8.6c9.6,2.2,18.9,3.8,27.6,5c6,19.8,9.3,44.4-7.7,59.5c-7.4,6.5-19.1,9.7-28.1,4.8c-5.6-3-9.2-8.7-9.8-14.8
		c9.1,5,21.4,3.8,29.1-4C178.3,572.9,176.7,554,166.8,542.4z M345.3,633c-11.7,5.5-25.1,7.6-37.8,8c-25.1,0.8-54.1-9.4-61.1-35.9
		c5.1-20.6,4.8-42.3-0.5-62.8c7.7,0.1,15.5,0.2,23.2,0.3c2.2,11.5,4.8,23.3,12.1,32.8c6.8,8.9,17.1,14.7,28.6,13.4
		c23-2.5,38.6-25.1,38.6-47.2c6.1-0.2,12.2-0.4,18.2-0.6c-5.8,21.4-6.1,44.1-0.6,65.6c0.3,1.2,0.7,2.5,1.1,3.7
		C365.5,620.7,353.8,628.9,345.3,633z M279,542.6c19.8,0,39.6-0.2,59.4-0.7c-0.2,16.8-11.8,35.8-29.9,37.2
		C288.7,580.7,282.3,558.5,279,542.6z M522.7,596.2c-0.5,13.9-6.6,26.8-17.5,35.6c-10.3,8.3-23.3,12.3-36.1,14.7
		c-13.8,2.6-28.4,3.7-42.4,3.2c-15.1-0.5-28.7-5.2-38.2-17.4c-9.2-11.7-13.7-27-15.7-41.5c-2.3-16.8-0.8-33.9,4-50.1
		c13.9-0.5,27.8-1.1,41.7-2c-6.9,25.3-7.9,57.1,17.8,71.6c11.1,6.3,25.8,7.1,36.3-0.8c9.6-7.3,14.6-20.5,10-32c-1.6-4-6.4-4.9-9-1.2
		c-3.6,5.2-10.9,6.5-16.6,4.4c-6.6-2.4-10-9.4-10.1-16.1c-0.4-15.3,14.2-25.4,28.3-25.9C504.4,537.6,523.6,570.1,522.7,596.2z
		 M445.1,584.3c7.8,7.8,20,9,29.1,4c-0.6,6.1-4.2,11.8-9.8,14.8c-9.1,4.9-20.7,1.7-28.1-4.8c-17.2-15.3-13.6-40.4-7.4-60.4
		c8.2-0.6,16.3-1.4,24.4-2.4c-3,1.9-5.7,4.2-8.1,6.9C435.3,554,433.7,572.9,445.1,584.3z M545.6,482.9
		c-32.5,40-88.1,43.4-135.6,46.2c-56.9,3.3-113.8,4.4-170.8,3.3c-6.8-0.1-111.7,0.4-163.4-48.2C58.2,467.6,53.6,442,51,418.6
		c-2.9-27.1-3.4-54.5-1.6-81.7c1.8-27.7,6-55.1,12.6-82c5.7-23.4,13-46.2,30.8-63.4c32.2-31.1,81.4-39,124.1-44
		c55.5-6.5,111.6-5.8,167.4-3.1c46.1,2.2,102.7,0.6,136.9,37.2c36.4,38.9,35.2,97.5,37.7,147.2c1.4,28.2,3.1,56.4,4.1,84.6
		C563.9,438.1,561.8,462.9,545.6,482.9z"/>
</g>
</svg>
