<?xml version="1.0" encoding="utf-8"?>
<!-- Generator: Adobe Illustrator 27.3.1, SVG Export Plug-In . SVG Version: 6.00 Build 0)  -->
<svg version="1.1" id="katman_1" xmlns="http://www.w3.org/2000/svg" xmlns:xlink="http://www.w3.org/1999/xlink" x="0px" y="0px"
	 viewBox="0 0 612 792" style="enable-background:new 0 0 612 792;" xml:space="preserve">
<style type="text/css">
	.st0{fill:#1D1D1B;}
</style>
<g>
	<path class="st0" d="M477.2,246.1c-10.1-12.6-23.8-22.1-38.4-28.7c-32.2-14.5-68.9-17.4-103.8-17.6c-10.8-0.1-88.3-5.2-145.2,15.9
		c-30.7,11.4-58.6,33.3-71.6,64.1c-7.7,18.3-9.6,38.4-9.5,58.1c0.1,18.5,1.9,37.3,6.4,55.3c-0.3,11.1-0.3,22.3,1.6,33.3
		c1.7,9.9,7.5,21.5,19.4,19.6c1.7-0.3,3.3-0.8,4.7-1.5c10.6,11.5,24.2,19.1,39.2,24c38.9,12.9,81.1,15.4,121.8,14.9
		c21.1-0.3,42.1-1.4,63.1-2.7c18.7-1.2,37.5-2,55.9-6.1c17.1-3.8,33.5-10.9,46.5-22.8c12.6-11.5,21.5-26.7,27.3-42.7
		c6.7-18.8,8.7-39.1,8.8-58.9c0.1-18.8-0.9-37.9-4.7-56.4C495,276.6,488.4,260,477.2,246.1z M481.6,272.1c0,0.1,0.1,0.2,0.1,0.2
		c-26.4,4.2-52.1,13.8-72.9,30.8c-12.7,10.4-23.2,23.6-30,38.5c-0.8-44.8,9.7-92,48.4-118.4C450.7,232.6,470.9,247.9,481.6,272.1z
		 M281.9,209.7c9.4-0.7,80.9-4.6,128.2,8.1c2,0.5,3.9,1.1,5.9,1.7c-17.9,14.3-30.8,34.1-38.3,55.7c-10.4,29.9-10.4,62.4-7,93.5
		c-27.5,9.2-51.3,27.4-80.2,33c-14.8,2.8-30.2,2.9-45,0.1c-14.9-2.8-28.4-9-42-15.4c-14.7-7-29.7-12.9-46.2-13.2
		c-12.1-0.2-24.1,2.3-35.1,7.2c-0.7-4-1.4-8-1.9-12.1c-0.3-2.7-0.6-5.5-0.9-8.3c20.7-8.9,36.6-27,42.3-48.9
		c5.3-20.4,0.7-42.8-11.4-59.9c7.5-7,16-13,25-18C207.4,215.5,244.1,212.3,281.9,209.7z M173.3,437.4c-8.2-1.5-7.4-17.8-7.5-23.7
		c-0.2-9.9,0.8-19.9,2.2-29.7c9.1,1.6,17.7,4.9,26.2,8.7c-0.5,8.6-1.7,17.3-4,25.6C188.3,425.2,182.8,439.1,173.3,437.4z
		 M143.3,258.3c9.7,14.6,13.2,32.8,9.1,49.9c-4.3,18-17.2,33.2-33.7,41.3c-0.2-2.7-0.3-5.5-0.3-8.3c5.5-2.4,10.2-6.9,13.9-11.5
		c4.9-6.1,8.7-13,11-20.5c4.5-14.9,2.5-31.2-5.1-44.6c0.5-0.7,1-1.4,1.6-2.1C140.9,261,142.1,259.6,143.3,258.3z M132,274.1
		c4.2,9.8,5.1,20.8,2.2,31.3c-1.7,6.1-4.6,11.9-8.5,16.9c-2.1,2.7-4.5,5.4-7.2,7.4c0.2-6.8,0.8-13.6,1.8-20.3
		C122.1,297.1,125.9,285,132,274.1z M125,389.8c9.9-4.6,20.6-7,31.6-6.9c0.5,0,1,0.1,1.6,0.1c-1.6,8.6-3.8,17.1-6.7,25.4
		c-1.8,5.3-3.8,10.5-6.1,15.5c-1.9,4.2-4,9.5-8.4,11.8C123.8,442.6,124.4,404.4,125,389.8z M148.4,438.4c3.6-4.5,6-10.3,8.1-15.7
		c0.9,9.5,3.3,21,13.2,23.8c-2.6,1.3-5.3,2.3-8,3C156.8,446.4,152.3,442.7,148.4,438.4z M331.5,472.9c-38.9,1.7-78.3,1.7-116.6-5.6
		c-14-2.7-28.7-5.8-41.9-11.7c9.9-4.5,19.1-11.3,28.8-16.4c21.5-11.2,45.6-6.4,68.5-4c11.4,1.2,22.8,1.7,34.2,0
		c11.3-1.7,22-5.7,32.3-10.3c10.9-4.8,21.4-10.6,32.1-15.7c9.9-4.7,22.9-11,33.4-4.5c12.8,7.8,2.2,23.4-0.9,33.8
		c-2.9,9.5-3.2,19.8-1,29.5c0,0.1,0.1,0.2,0.1,0.3c-4,0.5-7.9,0.9-11.9,1.2C369.7,471,350.6,472,331.5,472.9z M410.4,466.9
		c-2.3-9.5-1.9-19.4,1.6-28.9c3.8-10.5,9.8-21.7,4-32.7c-4.6-8.8-15.1-13.2-24.7-12.9c-12.4,0.4-24,6.9-34.9,12.3
		c-22.1,11.1-43.8,22.4-69.1,22c-23.9-0.4-47.8-7.5-71.6-2.7c-7.2,1.4-13.8,4.3-20.2,7.7c0.8-1.5,1.5-3,2.1-4.5
		c3.7-9.3,5.4-19.7,6.2-29.9c10.2,4.8,20.5,9.5,31.5,12.3c13.3,3.4,27.3,4.7,41,3.8c13.8-0.9,27.4-4,40.2-9.1
		c12.9-5.2,25.1-12,37.7-18.1c23.1-11.1,53.9-21.1,76.1-2.7c10.8,8.9,14.6,21.5,11.1,35c-3.5,13.6-10.6,26-11.7,40.2
		c-0.1,1.4,0.3,2.5,1,3.3C424.1,464.1,417.3,465.7,410.4,466.9z M491.7,378.7c-4.5,33.1-20.6,65.5-52.2,79.7
		c1.1-13.4,8.4-25.3,11.5-38.2c3-12.3,1.6-24.9-5.9-35.2c-14.9-20.6-40.6-24.4-64-19.3c4.4-22.1,17.1-41.4,34.5-55.7
		c19.7-16.1,44.5-24.6,69.5-28.5c4.3,12.9,6.3,26.5,7.3,40C493.9,340.5,494.3,359.9,491.7,378.7z"/>
	<path class="st0" d="M571,375.5c-1.5-30.2-2.5-60.5-4.7-90.7c-1.9-26.9-5.9-53.8-17.2-78.5c-10-21.7-25.9-40.5-47.2-51.7
		c-22-11.6-47-15.4-71.5-17.4c-57.6-4.7-116.1-6.6-173.8-3.1c-28.1,1.7-56.3,4.7-83.9,10.3c-21.6,4.4-43.1,11-62.3,21.9
		c-19.6,11.2-36.2,27.3-45.6,48c-5.5,12.1-9,25-12.2,37.9c-3.6,14.6-6.4,29.3-8.6,44.2c-4.2,28.3-6,56.9-5.2,85.5
		c0.7,26.2,2.1,54.4,11.6,79.1c8.6,22.5,25.9,37.3,46.3,49.8c12.8,7.8,26.8,13.7,40.9,18c-4.4-0.2-8.9,0.2-13.1,1.2
		c-16.5,4.3-30,17.3-37.5,32.3c-7.7,15.3-10.1,33.9-4.8,50.4c5,15.6,16.7,27.6,31.3,34.6c14.8,7.1,31.2,9.8,47.4,11.1
		c18,1.5,38,2.8,54.3-6.3c12.6-7,21-19.2,26.3-32.4c12.7,22.7,41.9,32.1,67.5,30.9c14.9-0.7,30.2-3.5,43.5-10.5
		c6.9-3.6,14.4-9.5,19.3-16.7c5.4,11.8,13.3,22.4,24.7,28.8c16.4,9.1,36.3,7.8,54.3,6.3c16.2-1.3,32.7-4,47.4-11.1
		c14.6-7,26.3-19.1,31.3-34.6c5.3-16.5,2.9-35-4.8-50.4c-7.5-15-21-28-37.5-32.3c-0.9-0.2-1.7-0.3-2.6-0.5
		c14.9-3.8,29.3-9.3,42.4-17.7c19.6-12.6,35.6-30.9,41.9-53.6C576.5,431.7,572.4,402.6,571,375.5z M239.2,590.7
		c-2,14.5-6.5,29.8-15.7,41.5c-9.5,12.2-23.1,17-38.2,17.4c-14,0.4-28.6-0.7-42.4-3.2c-12.8-2.4-25.9-6.4-36.1-14.7
		c-10.9-8.8-17-21.6-17.5-35.6c-0.9-26.1,18.3-58.6,47.5-57.6c14.2,0.5,28.7,10.6,28.3,25.9c-0.2,6.7-3.5,13.7-10.1,16.1
		c-5.7,2.1-13.1,0.9-16.6-4.4c-2.5-3.7-7.4-2.8-9,1.2c-4.6,11.5,0.5,24.7,10,32c10.5,8,25.2,7.1,36.3,0.8
		c25.2-14.2,24.7-45.1,18.2-70.2c19.3,2,33.7,1.9,37.6,2c1.4,0,2.8,0,4.2,0.1C240.1,557.9,241.5,574.4,239.2,590.7z M166.8,542.4
		c-3.1-3.6-6.9-6.4-11-8.6c9.6,2.2,18.9,3.8,27.6,5c6,19.8,9.3,44.4-7.7,59.5c-7.4,6.5-19.1,9.7-28.1,4.8c-5.6-3-9.2-8.7-9.8-14.8
		c9.1,5,21.4,3.8,29.1-4C178.3,572.9,176.7,554,166.8,542.4z M345.3,633c-11.7,5.5-25.1,7.6-37.8,8c-25.1,0.8-54.1-9.4-61.1-35.9
		c5.1-20.6,4.8-42.3-0.5-62.8c7.7,0.1,15.5,0.2,23.2,0.3c2.2,11.5,4.8,23.3,12.1,32.8c6.8,8.9,17.1,14.7,28.6,13.4
		c23-2.5,38.6-25.1,38.6-47.2c6.1-0.2,12.2-0.4,18.2-0.6c-5.8,21.4-6.1,44.1-0.6,65.6c0.3,1.2,0.7,2.5,1.1,3.7
		C365.5,620.7,353.8,628.9,345.3,633z M279,542.6c19.8,0,39.6-0.2,59.4-0.7c-0.2,16.8-11.8,35.8-29.9,37.2
		C288.7,580.7,282.3,558.5,279,542.6z M522.7,596.2c-0.5,13.9-6.6,26.8-17.5,35.6c-10.3,8.3-23.3,12.3-36.1,14.7
		c-13.8,2.6-28.4,3.7-42.4,3.2c-15.1-0.5-28.7-5.2-38.2-17.4c-9.2-11.7-13.7-27-15.7-41.5c-2.3-16.8-0.8-33.9,4-50.1
		c13.9-0.5,27.8-1.1,41.7-2c-6.9,25.3-7.9,57.1,17.8,71.6c11.1,6.3,25.8,7.1,36.3-0.8c9.6-7.3,14.6-20.5,10-32c-1.6-4-6.4-4.9-9-1.2
		c-3.6,5.2-10.9,6.5-16.6,4.4c-6.6-2.4-10-9.4-10.1-16.1c-0.4-15.3,14.2-25.4,28.3-25.9C504.4,537.6,523.6,570.1,522.7,596.2z
		 M445.1,584.3c7.8,7.8,20,9,29.1,4c-0.6,6.1-4.2,11.8-9.8,14.8c-9.1,4.9-20.7,1.7-28.1-4.8c-17.2-15.3-13.6-40.4-7.4-60.4
		c8.2-0.6,16.3-1.4,24.4-2.4c-3,1.9-5.7,4.2-8.1,6.9C435.3,554,433.7,572.9,445.1,584.3z M545.6,482.9
		c-32.5,40-88.1,43.4-135.6,46.2c-56.9,3.3-113.8,4.4-170.8,3.3c-6.8-0.1-111.7,0.4-163.4-48.2C58.2,467.6,53.6,442,51,418.6
		c-2.9-27.1-3.4-54.5-1.6-81.7c1.8-27.7,6-55.1,12.6-82c5.7-23.4,13-46.2,30.8-63.4c32.2-31.1,81.4-39,124.1-44
		c55.5-6.5,111.6-5.8,167.4-3.1c46.1,2.2,102.7,0.6,136.9,37.2c36.4,38.9,35.2,97.5,37.7,147.2c1.4,28.2,3.1,56.4,4.1,84.6
		C563.9,438.1,561.8,462.9,545.6,482.9z"/>
	<path class="st0" d="M474.1,303.9c-9.5,0-9.5,14.7,0,14.7C483.5,318.6,483.6,303.9,474.1,303.9z"/>
	<path class="st0" d="M448.8,323.5c-0.7-0.7-1.5-1.2-2.4-1.5c-0.9-0.5-1.8-0.7-2.8-0.6c-0.7,0.1-1.3,0.2-2,0.3
		c-1.2,0.3-2.3,1-3.2,1.9c-0.4,0.5-0.8,1-1.2,1.5c-0.7,1.1-1,2.4-1,3.7v1.5c0,1,0.2,2,0.6,2.8c0.3,0.9,0.8,1.7,1.5,2.4
		c0.7,0.7,1.5,1.2,2.4,1.5c0.9,0.5,1.8,0.7,2.8,0.6c0.7-0.1,1.3-0.2,2-0.3c1.2-0.3,2.3-1,3.2-1.9c0.4-0.5,0.8-1,1.2-1.5
		c0.7-1.1,1-2.4,1-3.7v-1.5c0-1-0.2-2-0.6-2.8C450,324.9,449.5,324.2,448.8,323.5z"/>
	<path class="st0" d="M421.2,349.5c-0.5-0.4-1-0.8-1.5-1.1c-1.1-0.7-2.4-1-3.7-1h-1.5c-1,0-2,0.2-2.8,0.6c-0.9,0.3-1.7,0.8-2.4,1.5
		c-0.7,0.7-1.2,1.5-1.5,2.4c-0.5,0.9-0.7,1.8-0.6,2.8c0.1,0.7,0.2,1.3,0.3,2c0.3,1.2,1,2.3,1.9,3.2c0.5,0.4,1,0.8,1.5,1.1
		c1.1,0.7,2.4,1,3.7,1h1.5c1,0,2-0.2,2.8-0.6c0.9-0.3,1.7-0.8,2.4-1.5c0.7-0.7,1.2-1.5,1.5-2.4c0.5-0.9,0.7-1.8,0.6-2.8
		c-0.1-0.7-0.2-1.3-0.3-2C422.7,351.5,422.1,350.4,421.2,349.5z"/>
	<path class="st0" d="M378.8,233.7c0.7,0.7,1.5,1.2,2.4,1.5c0.9,0.5,1.8,0.7,2.8,0.6c0.7-0.1,1.3-0.2,2-0.3c1.2-0.3,2.3-1,3.2-1.9
		c0.4-0.5,0.8-1,1.1-1.5c0.7-1.1,1-2.4,1-3.7V227c0-1-0.2-2-0.6-2.8c-0.3-0.9-0.8-1.7-1.5-2.4c-0.7-0.7-1.5-1.2-2.4-1.5
		c-0.9-0.5-1.8-0.7-2.8-0.6c-0.7,0.1-1.3,0.2-2,0.3c-1.2,0.3-2.3,1-3.2,1.9c-0.4,0.5-0.8,1-1.1,1.5c-0.7,1.1-1,2.4-1,3.7v1.5
		c0,1,0.2,2,0.6,2.8C377.6,232.2,378.1,233,378.8,233.7z"/>
	<path class="st0" d="M355.6,265.6l1.5,1.5c0.7,0.7,1.5,1.2,2.4,1.5c0.9,0.5,1.8,0.7,2.8,0.6c1,0,2-0.2,2.8-0.6
		c0.9-0.3,1.7-0.8,2.4-1.5c0.4-0.5,0.8-1,1.1-1.5c0.7-1.1,1-2.4,1-3.7c-0.1-0.7-0.2-1.3-0.3-2c-0.3-1.2-1-2.3-1.9-3.2
		c-0.5-0.5-1-1-1.5-1.5c-0.7-0.7-1.5-1.2-2.4-1.5c-0.9-0.5-1.8-0.7-2.8-0.6c-1,0-2,0.2-2.8,0.6c-0.9,0.3-1.7,0.8-2.4,1.5
		c-0.4,0.5-0.8,1-1.1,1.5c-0.7,1.1-1,2.4-1,3.7c0.1,0.7,0.2,1.3,0.3,2C354.1,263.6,354.7,264.7,355.6,265.6z"/>
	<path class="st0" d="M346.3,307c9.5,0,9.5-14.7,0-14.7C336.8,292.3,336.8,307,346.3,307z"/>
	<path class="st0" d="M343.4,340.2c-9.5,0-9.5,14.7,0,14.7C352.8,354.9,352.9,340.2,343.4,340.2z"/>
	<path class="st0" d="M191.3,348.4c1.2-16.3,22.7-18.1,34.8-17.9c15.2,0.2,29.1-0.3,42.9-7.3c23-11.8,39-36.3,39.5-62.2
		c0.8,0,1.5,0,2.3-0.1c13.9-1.1,27.2-6.1,35.6-17.6c3.7-5.1-4.8-10-8.5-4.9c-8.4,11.5-24.2,13.4-37.3,12.9
		c-16.4-0.5-32.2-3.1-48.4,0.6c-27.5,6.3-54.9,26.2-67.9,51.5c-7.6,14.9-9.3,32.1-2.1,47.5C184.4,355.7,191,352.8,191.3,348.4z
		 M225.6,294.7c1.4-9.4,4.1-19.7,10.8-26.9c6.4-3.1,13.1-5.4,20-6.9c-4.5,9.7-7.8,20-6.4,30.7c1.2,9.3,5.6,18.2,12.9,23.7
		c-2.9,1.4-5.9,2.5-9,3.4c-5.8,1.7-11.7,2-17.7,2C227.7,316.3,224.3,302.7,225.6,294.7z M219.4,278.1c-2.1,6-3.3,12.4-3.9,18.5
		c-0.8,7.7,1.7,16.9,6.7,24c-5.5,0-10.9,0.4-16.3,1.8c-7.3,2-14,6-18.6,11.6C184.8,312.2,202,291.2,219.4,278.1z"/>
</g>
</svg>
