<?xml version="1.0" encoding="utf-8"?>
<!-- Generator: Adobe Illustrator 27.3.1, SVG Export Plug-In . SVG Version: 6.00 Build 0)  -->
<svg version="1.1" id="katman_1" xmlns="http://www.w3.org/2000/svg" xmlns:xlink="http://www.w3.org/1999/xlink" x="0px" y="0px"
	 viewBox="0 0 612 792" style="enable-background:new 0 0 612 792;" xml:space="preserve">
<style type="text/css">
	.st0{fill:#1D1D1B;}
</style>
<g>
	<path class="st0" d="M571,375.5c-1.5-30.2-2.5-60.5-4.7-90.7c-1.9-26.9-5.9-53.8-17.2-78.5c-10-21.7-25.9-40.5-47.2-51.7
		c-22-11.6-47-15.4-71.5-17.4c-57.6-4.7-116.1-6.6-173.8-3.1c-28.1,1.7-56.3,4.7-83.9,10.3c-21.6,4.4-43.1,11-62.3,21.9
		c-19.6,11.2-36.2,27.3-45.6,48c-5.5,12.1-9,25-12.2,37.9c-3.6,14.6-6.4,29.3-8.6,44.2c-4.2,28.3-6,56.9-5.2,85.5
		c0.7,26.2,2.1,54.4,11.6,79.1c8.6,22.5,25.9,37.3,46.3,49.8c12.8,7.8,26.8,13.7,40.9,18c-4.4-0.2-8.9,0.2-13.1,1.2
		c-16.5,4.3-30,17.3-37.5,32.3c-7.7,15.3-10.1,33.9-4.8,50.4c5,15.6,16.7,27.6,31.3,34.6c14.8,7.1,31.2,9.8,47.4,11.1
		c18,1.5,38,2.8,54.3-6.3c12.6-7,21-19.2,26.3-32.4c12.7,22.7,41.9,32.1,67.5,30.9c14.9-0.7,30.2-3.5,43.5-10.5
		c6.9-3.6,14.4-9.5,19.3-16.7c5.4,11.8,13.3,22.4,24.7,28.8c16.4,9.1,36.3,7.8,54.3,6.3c16.2-1.3,32.7-4,47.4-11.1
		c14.6-7,26.3-19.1,31.3-34.6c5.3-16.5,2.9-35-4.8-50.4c-7.5-15-21-28-37.5-32.3c-0.9-0.2-1.7-0.3-2.6-0.5
		c14.9-3.8,29.3-9.3,42.4-17.7c19.6-12.6,35.6-30.9,41.9-53.6C576.5,431.7,572.4,402.6,571,375.5z M183.4,538.8
		c6,19.8,9.3,44.4-7.7,59.5c-7.4,6.5-19.1,9.7-28.1,4.8c-5.6-3-9.2-8.7-9.8-14.8c9.1,5,21.4,3.8,29.1-4c11.4-11.4,9.8-30.2-0.1-41.9
		c-3.1-3.6-6.9-6.4-11-8.6C165.4,536,174.7,537.6,183.4,538.8z M223.6,632.2c-9.5,12.2-23.1,17-38.2,17.4c-14,0.4-28.6-0.7-42.4-3.2
		c-12.8-2.4-25.9-6.4-36.1-14.7c-10.9-8.8-17-21.6-17.5-35.6c-0.9-26.1,18.3-58.6,47.5-57.6c14.2,0.5,28.7,10.6,28.3,25.9
		c-0.2,6.7-3.5,13.7-10.1,16.1c-5.7,2.1-13.1,0.9-16.6-4.4c-2.5-3.7-7.4-2.8-9,1.2c-4.6,11.5,0.5,24.7,10,32
		c10.5,8,25.2,7.1,36.3,0.8c25.2-14.2,24.7-45.1,18.2-70.2c19.3,2,33.7,1.9,37.6,2c1.4,0,2.8,0,4.2,0.1c4.4,15.8,5.8,32.3,3.6,48.6
		C237.2,605.3,232.7,620.5,223.6,632.2z M345.3,633c-11.7,5.5-25.1,7.6-37.8,8c-25.1,0.8-54.1-9.4-61.1-35.9
		c5.1-20.6,4.8-42.3-0.5-62.8c7.7,0.1,15.5,0.2,23.2,0.3c2.2,11.5,4.8,23.3,12.1,32.8c6.8,8.9,17.1,14.7,28.6,13.4
		c23-2.5,38.6-25.1,38.6-47.2c6.1-0.2,12.2-0.4,18.2-0.6c-5.8,21.4-6.1,44.1-0.6,65.6c0.3,1.2,0.7,2.5,1.1,3.7
		C365.5,620.7,353.8,628.9,345.3,633z M279,542.6c19.8,0,39.6-0.2,59.4-0.7c-0.2,16.8-11.8,35.8-29.9,37.2
		C288.7,580.7,282.3,558.5,279,542.6z M522.7,596.2c-0.5,13.9-6.6,26.8-17.5,35.6c-10.3,8.3-23.3,12.3-36.1,14.7
		c-13.8,2.6-28.4,3.7-42.4,3.2c-15.1-0.5-28.7-5.2-38.2-17.4c-9.2-11.7-13.7-27-15.7-41.5c-2.3-16.8-0.8-33.9,4-50.1
		c13.9-0.5,27.8-1.1,41.7-2c-6.9,25.3-7.9,57.1,17.8,71.6c11.1,6.3,25.8,7.1,36.3-0.8c9.6-7.3,14.6-20.5,10-32c-1.6-4-6.4-4.9-9-1.2
		c-3.6,5.2-10.9,6.5-16.6,4.4c-6.6-2.4-10-9.4-10.1-16.1c-0.4-15.3,14.2-25.4,28.3-25.9C504.4,537.6,523.6,570.1,522.7,596.2z
		 M445.1,584.3c7.8,7.8,20,9,29.1,4c-0.6,6.1-4.2,11.8-9.8,14.8c-9.1,4.9-20.7,1.7-28.1-4.8c-17.2-15.3-13.6-40.4-7.4-60.4
		c8.2-0.6,16.3-1.4,24.4-2.4c-3,1.9-5.7,4.2-8.1,6.9C435.3,554,433.7,572.9,445.1,584.3z M545.6,482.9
		c-32.5,40-88.1,43.4-135.6,46.2c-56.9,3.3-113.8,4.4-170.8,3.3c-6.8-0.1-111.7,0.4-163.4-48.2C58.2,467.6,53.6,442,51,418.6
		c-2.9-27.1-3.4-54.5-1.6-81.7c1.8-27.7,6-55.1,12.6-82c5.7-23.4,13-46.2,30.8-63.4c32.2-31.1,81.4-39,124.1-44
		c55.5-6.5,111.6-5.8,167.4-3.1c46.1,2.2,102.7,0.6,136.9,37.2c36.4,38.9,35.2,97.5,37.7,147.2c1.4,28.2,3.1,56.4,4.1,84.6
		C563.9,438.1,561.8,462.9,545.6,482.9z"/>
	<path class="st0" d="M532.4,286.5c-2.8-21-8.4-40.6-21.8-57.4c-11.5-14.5-27-25.5-43.4-33.7c-39.1-19.6-85-26.9-128.3-27.5
		c-10.2-0.2-110.5-3.8-168.5,20.1c-18.5,7.6-35.7,19-49.7,33.4c-15.2,15.7-25.6,35-33.4,55.3c-8.4,22-13.5,45.5-13.3,69.1
		c0.2,23.2,4.8,46.5,11.3,68.7c5.5,19.1,13.5,38,26.9,52.9c14.4,15.9,34.4,24.1,54.5,30.2c45.1,13.7,92.7,16.8,139.6,15.6
		c23.8-0.6,47.6-2.4,71.4-4.5c22.9-2,47.3-2.4,69.4-9.4c36-11.4,62.3-42.1,76.2-76.3C540.7,380,538.4,331.5,532.4,286.5z
		 M522.9,389.5c-7.1,35.9-25.8,71-57.6,90.7c-17.9,11-37.8,14-58.4,16c-22.2,2.1-44.4,4.2-66.6,5.6c-44.6,2.9-89.8,3.3-133.9-4.8
		c-21.1-3.8-43.1-8.9-62.4-18.4c-18-8.8-30.9-22.8-39.5-40.8c-8.8-18.1-13.7-38.5-17.2-58.3c-4.1-22.7-4.5-45.7,0.2-68.3
		c4.5-21.3,12.2-42.5,23.6-61.2c10.3-16.8,24.4-30.7,41-41.3c36.1-22.9,79.3-29.2,121.3-30.3c9.2-0.2,102.7-8.6,162.4,14.6
		c31.9,12.4,66.9,30.1,79.9,63.7c8,20.7,9.4,44.6,10.7,66.5C527.6,345.3,527.2,367.7,522.9,389.5z"/>
	<path class="st0" d="M498.5,294c-3.6-17.3-10.2-34-21.4-47.9c-10.1-12.6-23.8-22.1-38.4-28.7c-32.2-14.5-68.9-17.4-103.8-17.6
		c-10.8-0.1-88.3-5.2-145.2,15.9c-30.7,11.4-58.6,33.3-71.6,64.1c-7.7,18.3-9.6,38.4-9.5,58.1c0.1,19.3,2.1,39,7,57.7
		c4.3,16.1,11,31.7,21.4,44.7c11.1,14,26.2,22.8,42.9,28.3c38.9,12.9,81.1,15.4,121.8,14.9c21.1-0.3,42.1-1.4,63.1-2.7
		c18.7-1.2,37.5-2,55.9-6.1c17.1-3.8,33.5-10.9,46.5-22.8c12.6-11.5,21.5-26.7,27.3-42.7c6.7-18.8,8.7-39.1,8.8-58.9
		C503.3,331.6,502.3,312.4,498.5,294z M491.6,378.7c-4.6,33.6-21,66.4-53.4,80.3c-15.6,6.7-32.8,9-49.6,10.4
		c-19,1.6-38.2,2.6-57.3,3.4c-38.9,1.7-78.3,1.7-116.6-5.6c-17.7-3.4-36.5-7.5-52-16.9c-13.5-8.3-23.2-21.1-29.9-35.3
		c-6.9-14.7-10.6-30.9-12.6-46.9c-2.4-19.3-3.1-39.4-0.2-58.6c2.6-17.1,8.7-33.4,19.5-47.1c9.7-12.2,22.1-21.9,35.6-29.3
		c32-17.6,68.7-20.8,106.5-23.5c9.4-0.7,80.9-4.6,128.2,8.1c30.5,8.1,58.3,24.5,71.5,54.3c6.9,15.5,9.6,32.7,10.9,49.5
		C493.9,340.5,494.2,359.9,491.6,378.7z"/>
	<g>
		<path class="st0" d="M452,293.8c-9.2-8.8-22.1-12.3-34.4-13.9c-15-2-30.3-2.7-45.3-3.9c-14.6-1.2-97-1.2-111.6,0
			c-15.1,1.2-30.3,1.9-45.3,3.9c-12.3,1.7-25.2,5.1-34.4,13.9c-7.7,7.4-12.8,18.5-11.4,29.3c3.3,26.6,34.8,25.6,54.7,23.4
			c8-0.9,16-1.8,24-2.6c7.1-0.8,14.6-2.4,21.7-2c8.4,0.5,7.4,9.7,8.1,16.1c0.8,7.9,1.6,15.8,2.4,23.7c1.6,15.3,1,32.8,8,46.8
			c15.5,30.8,48.1,19.7,56,0c5.8-14.6,6.5-31.5,8-46.8c0.8-7.9,1.6-15.8,2.4-23.7c0.7-6.4-0.3-15.6,8.1-16.1
			c7.1-0.4,14.6,1.2,21.7,2c8,0.9,16,1.8,24,2.6c19.9,2.2,51.4,3.2,54.7-23.4C464.7,312.3,459.7,301.2,452,293.8z M448.7,331.7
			c-7.1,6.5-18.1,6.6-27.2,6.2c-13.6-0.7-27.2-2.8-40.7-4.3c-9.8-1.1-24.1-4.9-31.2,4.4c-3.8,5-3.7,12-4.4,18
			c-0.7,7-1.4,13.9-2.1,20.9c-1.3,13-0.9,26.9-4.8,39.4c-8.1,26.4-36.5,26.5-43.9,0c-3.5-12.6-3.4-26.4-4.8-39.4
			c-0.7-7-1.4-13.9-2.1-20.9c-0.6-6-0.5-13-4.4-18c-7.1-9.3-21.4-5.5-31.2-4.4c-13.5,1.5-27.1,3.6-40.7,4.3
			c-9,0.5-20.1,0.4-27.2-6.2c-7.9-7.3-5.7-19,0-26.9c6.8-9.3,18.3-12.9,29.2-14.8c14.9-2.5,30.3-2.9,45.3-4.1
			c16.3-1.3,99.1-1.3,115.4,0c15,1.2,30.4,1.5,45.3,4.1c10.9,1.8,22.4,5.5,29.2,14.8C454.3,312.7,456.5,324.4,448.7,331.7z"/>
		<path class="st0" d="M429.3,301.7c-9.4-4.5-20.3-5.5-30.6-6.8c-25.3-3.1-139.3-3.1-164.7,0c-10.3,1.3-21.1,2.3-30.6,6.8
			c-6.6,3.2-17.9,12.4-11.1,20.5c2.9,3.4,7.5,3.7,11.6,3.8c6.6,0.3,13.1,0.3,19.7,0.1c12.6-0.3,25.2-1.5,37.7-3.3
			c5.8-0.8,12.4-2.9,18.3-2.2c5.2,0.6,9.1,4.4,11.4,9c5.3,10.4,4.2,24.3,5.4,35.6c1.5,14.5,3,29.1,6.1,43.4c5.5,25,23.8,24.7,27.7,0
			c2.3-14.4,4.6-28.8,6.1-43.4c1.2-11.3,0.1-25.2,5.4-35.6c2.3-4.6,6.1-8.4,11.4-9c5.9-0.7,12.4,1.4,18.3,2.2
			c12.5,1.8,25.1,2.9,37.7,3.3c6.6,0.2,13.1,0.2,19.7-0.1c4.1-0.2,8.8-0.4,11.6-3.8C447.3,314,436,304.9,429.3,301.7z M430.7,316.1
			c-4.9,0.5-10.1,0.3-15,0.3c-11.3-0.1-22.5-0.8-33.7-2c-5.8-0.7-11.5-1.5-17.3-2.5c-4.8-0.8-9.6-1.7-14.5-0.8
			c-20.1,3.7-21.3,27.5-22.7,43.5c-1,11.4-2.3,22.8-4,34.2c-0.8,5.7-1.9,11.4-2.8,17.2c-2,12.5-6.3,17.2-8.8,0
			c-0.8-5.7-1.9-11.4-2.8-17.2c-1.7-11.3-3-22.8-4-34.2c-1.4-16-2.7-39.8-22.7-43.5c-4.9-0.9-9.7,0-14.5,0.8
			c-5.7,1-11.5,1.8-17.3,2.5c-11.2,1.3-22.4,1.9-33.7,2c-4.9,0-10.1,0.3-15-0.3c-0.5-0.1-1-0.2-1.3-0.2c0.4-0.4,0.9-1.1,1.1-1.2
			c1.7-1.8,3.7-3.1,5.9-4.2c8.4-4.2,18.9-6.2,28.1-7.3c23.8-2.8,137.1-2.8,161,0c9.2,1.1,19.7,3.1,28.1,7.3c2.2,1.1,4.2,2.4,5.9,4.2
			c0.1,0.1,0.7,0.8,1.1,1.2C431.7,315.9,431.2,316,430.7,316.1z"/>
	</g>
</g>
</svg>
