<?xml version="1.0" encoding="utf-8"?>
<!-- Generator: Adobe Illustrator 27.3.1, SVG Export Plug-In . SVG Version: 6.00 Build 0)  -->
<svg version="1.1" id="katman_1" xmlns="http://www.w3.org/2000/svg" xmlns:xlink="http://www.w3.org/1999/xlink" x="0px" y="0px"
	 viewBox="0 0 612 792" style="enable-background:new 0 0 612 792;" xml:space="preserve">
<style type="text/css">
	.st0{fill:#1D1D1B;}
</style>
<g>
	<path class="st0" d="M477.2,246.1c-10.1-12.6-23.8-22.1-38.4-28.7c-32.2-14.5-68.9-17.4-103.8-17.6c-10.8-0.1-88.3-5.2-145.2,15.9
		c-30.7,11.4-58.6,33.3-71.6,64.1c-7.7,18.3-9.6,38.4-9.5,58.1c0.1,19.3,2.1,39,7,57.7c4.3,16.1,11,31.7,21.4,44.7
		c11.1,14,26.2,22.8,42.9,28.3c38.9,12.9,81.1,15.4,121.8,14.9c21.1-0.3,42.1-1.4,63.1-2.7c18.7-1.2,37.5-2,55.9-6.1
		c17.1-3.8,33.5-10.9,46.5-22.8c12.6-11.5,21.5-26.7,27.3-42.7c6.7-18.8,8.7-39.1,8.8-58.9c0.1-18.8-0.9-37.9-4.7-56.4
		C495,276.6,488.4,260,477.2,246.1z M331.5,472.9c-38.9,1.7-78.3,1.7-116.6-5.6c-17.7-3.4-36.5-7.5-52-16.9
		c-13.5-8.3-23.2-21.1-29.9-35.3c-6.9-14.7-10.6-30.9-12.6-46.9c-1.4-11-2.1-22.3-2-33.5c9,4.5,20.1,6,28.7,3.8
		c6.5-1.7,12.1-4.9,17.2-8.9c12.5,5.5,25.5,9.6,39,11.7c11.7,1.8,24.1,2.3,35.2-2.5c11.6-5,18-15.5,20-27.8
		c2.3-14.6,2.2-29.9,1.6-44.7c5.8-0.4,11.7-0.5,17.6-0.3c3.8,0.1,7.6,0.3,11.5,0.4c3.8,32.6,6.2,73.1-23.7,94.1
		c-7,4.9-14.6,7.1-23,8c-8.3,0.9-17.2,1.4-24.1,6.6c-5.8,4.3-10.2,11.3-9.3,18.7c0.4,3.5,2,6.5,4.4,9.1c2.4,2.7,6,4.5,8,7.4
		c4.7,6.6-6.3,15.9-9.2,21.3c-4.8,8.8-4.5,19-0.1,27.9c2.8,5.7,11.3,0.7,8.5-4.9c-4.3-8.7-1.2-16.6,4.1-23.9
		c4.1-5.7,8.9-11.9,7.6-19.4c-0.6-3.4-2.4-6.3-4.7-8.8c-2.3-2.4-5.7-4.1-7.6-6.9c-5.2-7.6,5.9-14.3,11.9-15.7
		c8.6-2,17.5-1.4,25.9-4.4c6.9-2.4,13.1-6.3,18.6-11.1c11.3-10,18.8-24.2,22.2-38.7c4.5-19.4,2.9-39.2,0.6-58.8
		c13.1,0.7,26.3,1.5,39.3,2.7c16.6,1.4,33.7,3.8,49.2,10.3c15.2,6.4,27.6,17.2,35.4,31.8c6.5,12.4,9.6,26.4,10.7,40.3
		c-7.5-0.6-15-1.2-22.5-1.8c-8-0.6-16-1-23.9,0.8c-14.5,3.3-25.7,15.7-32.7,28.3c-7,12.7-10.4,27.7-9,42.2
		c1.2,12.5,6.3,26.2,18.4,32c8,3.9,17.1,3.3,25.7,3c7.8-0.2,15.7-0.5,23.5-0.7c-2.7,4.2-5.6,8.3-8.9,12.1c0,0,0,0,0,0.1
		c-5.1,0.7-10.2,1.2-15.3,1.6C369.7,471,350.6,472,331.5,472.9z M208.4,312.5c-1.4-1.3-2.7-2.5-4.1-3.8c3.8-3.7,7.6-7.4,11.4-11.1
		c2.4,2.4,4.7,4.9,7,7.3c-3.5,3.7-6.9,7.5-10.3,11.2C211.1,314.9,209.8,313.7,208.4,312.5z M203.2,321c0.9,0.8,1.8,1.6,2.7,2.4
		c-2.1,2.4-4.2,4.7-6.3,7.1c-4.8-1-9.5-2.1-14.1-3.5c4-3.8,7.9-7.7,11.8-11.5C199.3,317.4,201.3,319.2,203.2,321z M213.2,330.1
		c1,0.9,1.9,1.8,2.9,2.6c-1.7-0.1-3.4-0.1-5-0.3C211.8,331.6,212.5,330.8,213.2,330.1z M229.2,331.5c-1.9-1.7-3.6-3.4-5.3-5
		c-1.4-1.2-2.7-2.5-4.1-3.7c3.3-3.6,6.5-7.3,9.9-10.9c4.1,4.2,8.2,8.3,12.4,12.4c-2.2,2.4-4.9,4.5-8.4,5.8
		C232.2,330.7,230.7,331.1,229.2,331.5z M249.5,304.6c-0.4,3.8-1.1,7.6-2.3,11c-3.6-3.6-7.2-7.2-10.7-10.8
		c4.6-4.9,9.2-9.8,13.9-14.6C250.2,295,249.9,299.8,249.5,304.6z M250.2,267.3c0.1,2.9,0.2,5.8,0.2,8.8c-7.1,7.2-14.1,14.5-21,21.8
		c-2.3-2.3-4.5-4.7-6.8-7.1c7.6-7.5,15.1-15,22.6-22.6C246.9,267.8,248.6,267.5,250.2,267.3z M215.9,283.6c-0.9-0.9-1.8-1.8-2.6-2.7
		c2.8-1.8,5.6-3.5,8.7-5c1.1-0.5,2.2-1,3.2-1.4C222.1,277.5,219,280.5,215.9,283.6z M205.2,286.7c1.2,1.3,2.5,2.6,3.7,3.9
		c-3.9,3.9-7.8,7.7-11.8,11.5c-1.4-1.3-2.8-2.6-4.1-3.8C196.8,294.1,200.9,290.2,205.2,286.7z M186.5,305.6c1.2,1.1,2.4,2.2,3.6,3.3
		c-5,4.9-10,9.7-15,14.6c-0.9-0.4-1.9-0.8-2.8-1.2c3.7-3.8,7.2-8,10.5-12.1C184,308.6,185.2,307.1,186.5,305.6z M434,361.7
		c0.1,2.6,0.1,5.2,0.1,7.8c-4.1,5.4-8.1,10.8-12.2,16.2c-3.8-5-7.5-10-11.3-14.9c2.8-3.4,5.7-6.9,8.6-10.3
		C424.2,360.9,429.1,361.3,434,361.7z M388.8,397.8c5.1-6.4,10.3-12.8,15.5-19.2c3.9,5.1,7.7,10.2,11.6,15.3
		c-4.8,6.4-9.5,12.7-14.3,19.1C397.3,407.9,393,402.9,388.8,397.8z M395.6,421c-3.4,4.6-6.9,9.2-10.3,13.8
		c-4.5-5.1-9-10.2-13.6-15.3c3.6-4.7,7.3-9.3,10.9-13.9C386.9,410.8,391.2,415.9,395.6,421z M404.6,362.8c-0.9-1.2-1.7-2.3-2.6-3.5
		c1.8,0,3.5,0.2,5.3,0.3C406.4,360.7,405.5,361.8,404.6,362.8z M390.4,360.2c2.6,3.5,5.2,6.9,7.8,10.4c-5.3,6.5-10.6,13-15.8,19.6
		c-4.4-5.3-8.7-10.7-13-16.1c3.7-4.5,8-8.4,13-11.1C385,361.6,387.7,360.7,390.4,360.2z M363.8,382.5c4.1,5.2,8.3,10.3,12.5,15.5
		c-3.7,4.7-7.4,9.4-11.1,14.1c-3-3.3-5.9-6.6-8.9-10C357.7,395.6,360.2,388.8,363.8,382.5z M359.1,420c-1.2,1.6-2.4,3.1-3.6,4.7
		c-0.5-3.1-0.7-6.3-0.7-9.4C356.2,416.8,357.7,418.4,359.1,420z M365.7,427.4c4.5,5.1,9.1,10.2,13.6,15.3c-1,1.3-2,2.7-3,4
		c-3.6-0.3-7-1.2-9.9-3.1c-3.1-2-5.4-4.7-7.2-7.8C361.4,433.1,363.5,430.3,365.7,427.4z M395.6,446.4c-1.2-1.4-2.5-2.8-3.7-4.2
		c3.4-4.6,6.8-9.1,10.2-13.7c5,5.8,10.1,11.5,15.2,17.2C410.1,446,402.9,446.2,395.6,446.4z M422.5,436.8
		c-4.8-5.4-9.6-10.8-14.4-16.3c4.6-6.2,9.3-12.4,13.9-18.5c2.6,3.4,5.2,6.9,7.8,10.3C428,420.7,425.6,429,422.5,436.8z M432.1,399.2
		c-1.3-1.8-2.7-3.6-4-5.3c1.8-2.4,3.6-4.8,5.4-7.2C433.1,390.9,432.7,395,432.1,399.2z M491.7,378.7c-4.6,33.6-21,66.4-53.4,80.3
		c-6.5,2.8-13.3,4.8-20.2,6.3c17.6-25.6,23.9-57.5,25.5-88.3c1.6-31.9-3.3-68.2-28.1-91c-26.5-24.3-65.2-25.9-99.2-28
		c-21.2-1.3-43.1-3.6-64.2-1.1c-17.8,2.1-34.9,8.5-49.4,19c-7.9,5.7-14.8,12.4-21,19.9c-6.3,7.7-12.2,15.8-19.5,22.7
		c-9.2,8.7-31.3,14.5-43.6,5.4c0.3-4.8,0.8-9.6,1.5-14.4c2.6-17.1,8.7-33.4,19.5-47.1c9.7-12.2,22.1-21.9,35.6-29.3
		c32-17.6,68.7-20.8,106.5-23.5c9.4-0.7,80.9-4.6,128.2,8.1c30.5,8.1,58.3,24.5,71.5,54.3c6.9,15.5,9.6,32.7,10.9,49.5
		C493.9,340.5,494.3,359.9,491.7,378.7z"/>
	<path class="st0" d="M571,375.5c-1.5-30.2-2.5-60.5-4.7-90.7c-1.9-26.9-5.9-53.8-17.2-78.5c-10-21.7-25.9-40.5-47.2-51.7
		c-22-11.6-47-15.4-71.5-17.4c-57.6-4.7-116.1-6.6-173.8-3.1c-28.1,1.7-56.3,4.7-83.9,10.3c-21.6,4.4-43.1,11-62.3,21.9
		c-19.6,11.2-36.2,27.3-45.6,48c-5.5,12.1-9,25-12.2,37.9c-3.6,14.6-6.4,29.3-8.6,44.2c-4.2,28.3-6,56.9-5.2,85.5
		c0.7,26.2,2.1,54.4,11.6,79.1c8.6,22.5,25.9,37.3,46.3,49.8c12.8,7.8,26.8,13.7,40.9,18c-4.4-0.2-8.9,0.2-13.1,1.2
		c-16.5,4.3-30,17.3-37.5,32.3c-7.7,15.3-10.1,33.9-4.8,50.4c5,15.6,16.7,27.6,31.3,34.6c14.8,7.1,31.2,9.8,47.4,11.1
		c18,1.5,38,2.8,54.3-6.3c12.6-7,21-19.2,26.3-32.4c12.7,22.7,41.9,32.1,67.5,30.9c14.9-0.7,30.2-3.5,43.5-10.5
		c6.9-3.6,14.4-9.5,19.3-16.7c5.4,11.8,13.3,22.4,24.7,28.8c16.4,9.1,36.3,7.8,54.3,6.3c16.2-1.3,32.7-4,47.4-11.1
		c14.6-7,26.3-19.1,31.3-34.6c5.3-16.5,2.9-35-4.8-50.4c-7.5-15-21-28-37.5-32.3c-0.9-0.2-1.7-0.3-2.6-0.5
		c14.9-3.8,29.3-9.3,42.4-17.7c19.6-12.6,35.6-30.9,41.9-53.6C576.5,431.7,572.4,402.6,571,375.5z M239.2,590.7
		c-2,14.5-6.5,29.8-15.7,41.5c-9.5,12.2-23.1,17-38.2,17.4c-14,0.4-28.6-0.7-42.4-3.2c-12.8-2.4-25.9-6.4-36.1-14.7
		c-10.9-8.8-17-21.6-17.5-35.6c-0.9-26.1,18.3-58.6,47.5-57.6c14.2,0.5,28.7,10.6,28.3,25.9c-0.2,6.7-3.5,13.7-10.1,16.1
		c-5.7,2.1-13.1,0.9-16.6-4.4c-2.5-3.7-7.4-2.8-9,1.2c-4.6,11.5,0.5,24.7,10,32c10.5,8,25.2,7.1,36.3,0.8
		c25.2-14.2,24.7-45.1,18.2-70.2c19.3,2,33.7,1.9,37.6,2c1.4,0,2.8,0,4.2,0.1C240.1,557.9,241.5,574.4,239.2,590.7z M166.8,542.4
		c-3.1-3.6-6.9-6.4-11-8.6c9.6,2.2,18.9,3.8,27.6,5c6,19.8,9.3,44.4-7.7,59.5c-7.4,6.5-19.1,9.7-28.1,4.8c-5.6-3-9.2-8.7-9.8-14.8
		c9.1,5,21.4,3.8,29.1-4C178.3,572.9,176.7,554,166.8,542.4z M345.3,633c-11.7,5.5-25.1,7.6-37.8,8c-25.1,0.8-54.1-9.4-61.1-35.9
		c5.1-20.6,4.8-42.3-0.5-62.8c7.7,0.1,15.5,0.2,23.2,0.3c2.2,11.5,4.8,23.3,12.1,32.8c6.8,8.9,17.1,14.7,28.6,13.4
		c23-2.5,38.6-25.1,38.6-47.2c6.1-0.2,12.2-0.4,18.2-0.6c-5.8,21.4-6.1,44.1-0.6,65.6c0.3,1.2,0.7,2.5,1.1,3.7
		C365.5,620.7,353.8,628.9,345.3,633z M279,542.6c19.8,0,39.6-0.2,59.4-0.7c-0.2,16.8-11.8,35.8-29.9,37.2
		C288.7,580.7,282.3,558.5,279,542.6z M522.7,596.2c-0.5,13.9-6.6,26.8-17.5,35.6c-10.3,8.3-23.3,12.3-36.1,14.7
		c-13.8,2.6-28.4,3.7-42.4,3.2c-15.1-0.5-28.7-5.2-38.2-17.4c-9.2-11.7-13.7-27-15.7-41.5c-2.3-16.8-0.8-33.9,4-50.1
		c13.9-0.5,27.8-1.1,41.7-2c-6.9,25.3-7.9,57.1,17.8,71.6c11.1,6.3,25.8,7.1,36.3-0.8c9.6-7.3,14.6-20.5,10-32c-1.6-4-6.4-4.9-9-1.2
		c-3.6,5.2-10.9,6.5-16.6,4.4c-6.6-2.4-10-9.4-10.1-16.1c-0.4-15.3,14.2-25.4,28.3-25.9C504.4,537.6,523.6,570.1,522.7,596.2z
		 M445.1,584.3c7.8,7.8,20,9,29.1,4c-0.6,6.1-4.2,11.8-9.8,14.8c-9.1,4.9-20.7,1.7-28.1-4.8c-17.2-15.3-13.6-40.4-7.4-60.4
		c8.2-0.6,16.3-1.4,24.4-2.4c-3,1.9-5.7,4.2-8.1,6.9C435.3,554,433.7,572.9,445.1,584.3z M545.6,482.9
		c-32.5,40-88.1,43.4-135.6,46.2c-56.9,3.3-113.8,4.4-170.8,3.3c-6.8-0.1-111.7,0.4-163.4-48.2C58.2,467.6,53.6,442,51,418.6
		c-2.9-27.1-3.4-54.5-1.6-81.7c1.8-27.7,6-55.1,12.6-82c5.7-23.4,13-46.2,30.8-63.4c32.2-31.1,81.4-39,124.1-44
		c55.5-6.5,111.6-5.8,167.4-3.1c46.1,2.2,102.7,0.6,136.9,37.2c36.4,38.9,35.2,97.5,37.7,147.2c1.4,28.2,3.1,56.4,4.1,84.6
		C563.9,438.1,561.8,462.9,545.6,482.9z"/>
</g>
</svg>
