<?xml version="1.0" encoding="utf-8"?>
<!-- Generator: Adobe Illustrator 27.3.1, SVG Export Plug-In . SVG Version: 6.00 Build 0)  -->
<svg version="1.1" id="katman_1" xmlns="http://www.w3.org/2000/svg" xmlns:xlink="http://www.w3.org/1999/xlink" x="0px" y="0px"
	 viewBox="0 0 612 792" style="enable-background:new 0 0 612 792;" xml:space="preserve">
<style type="text/css">
	.st0{fill:#1D1D1B;}
</style>
<g>
	<path class="st0" d="M511.2,226.2c-11.5-14.5-27-25.5-43.4-33.7c-39.1-19.6-85-26.9-128.3-27.5c-10.2-0.2-110.5-3.8-168.5,20.1
		c-18.5,7.6-35.7,19-49.7,33.4c-15.2,15.7-25.6,35-33.4,55.3c-8.4,22-13.5,45.5-13.3,69.1c0.2,23.2,4.8,46.5,11.3,68.7
		c5.5,19.1,13.5,38,26.9,52.9c14.4,15.9,34.4,24.1,54.5,30.2c45.1,13.7,92.7,16.8,139.6,15.6c23.8-0.6,47.6-2.4,71.4-4.5
		c22.9-2,47.3-2.4,69.4-9.4c36-11.4,62.3-42.1,76.2-76.3c17.5-42.9,15.2-91.5,9.1-136.5C530.1,262.6,524.5,243,511.2,226.2z
		 M509.2,428.4c-14.6-2.4-28.8-7.6-41.7-15.1c-15-8.7-28.3-20.4-38.5-34.4c-5.1-7-9.4-14.4-12.8-22.3c-3.7-8.3-6.5-17-10.7-25.1
		c-4.1-7.9-9.8-14.9-17.3-19.7c-8.2-5.2-17.8-7.5-27.2-9.2c-13.1-2.3-26.4-3.8-39.7-4.5c-9.4-0.5-16.3-0.5-30.4,0
		c-13.3,0.8-26.6,2.2-39.7,4.5c-9.4,1.7-19.1,4-27.2,9.2c-7.6,4.8-13.2,11.8-17.3,19.7c-4.2,8.1-7.1,16.8-10.7,25.1
		c-3.5,7.9-7.8,15.4-12.8,22.3c-10.2,14-23.5,25.7-38.5,34.4c-13.1,7.6-27.5,12.8-42.4,15.2c-3.1-7.4-5.7-15.1-7.9-22.9
		c10.6-0.4,21.1-3.7,30.4-8.9c16.5-9.1,28.6-23.7,38.7-39.3c10.7-16.6,19.4-34.9,32.1-50c6.6-7.8,14.4-14.2,23.8-18.3
		c9.4-4.1,19.7-6,29.7-8.2c2.5-0.6,5.1-1.1,7.5-1.6c0.8,0,1.6-0.1,2.3-0.4c38.5-7.1,71.3-4.6,104.3,2c10,2,20.2,4.2,29.7,8.2
		c9.5,4.1,17.2,10.4,23.8,18.3c12.8,15.2,21.4,33.5,32.1,50c10.1,15.6,22.2,30.2,38.7,39.3c9.6,5.3,20.3,8.7,31.1,8.9
		C516,413.5,512.9,421.1,509.2,428.4z M319.9,203.3c-5,5.2-10.1,10.4-15.1,15.7c-4.7-4.7-9.3-9.5-13.9-14.3
		c5.3-5.3,10.5-10.6,15.8-15.9C311.1,193.7,315.5,198.5,319.9,203.3z M307,174.1c0.2,0,0.3,0,0.5,0c-0.1,0.1-0.2,0.2-0.3,0.3
		C307.2,174.3,307.1,174.2,307,174.1z M259.3,236.5c1-1,2-2,2.9-2.9c4.9,5.2,9.8,10.4,14.7,15.5c-5.4,6-10.8,12-16.1,18.1
		C260.2,257,259.7,246.7,259.3,236.5z M283.7,256.3c2.9,3,5.7,6.1,8.6,9.1c-6.2,0.3-12.2,0.8-18.1,1.5
		C277.4,263.3,280.5,259.8,283.7,256.3z M305.2,264.7c-5-5.2-9.9-10.5-14.9-15.7c4.9-5.3,9.8-10.6,14.8-15.9
		c5.1,5.1,10.2,10.2,15.4,15.2C315.4,253.7,310.2,259.2,305.2,264.7z M327.6,255.1c4.3,4.1,8.7,8.1,13,12.2
		c-7.9-0.9-15.5-1.6-22.7-1.9C321.1,261.9,324.3,258.5,327.6,255.1z M334.3,247.9c4.7-5,9.5-9.9,14.3-14.8c0.9,0.9,1.9,1.9,2.8,2.8
		c0.1,9.4,0.1,18.8,0.2,28.2C345.8,258.8,340,253.4,334.3,247.9z M351.3,216.3c-0.9,0.9-1.8,1.9-2.8,2.9
		c-5.1-5.2-10.1-10.4-15.1-15.7c5.8-6,11.8-11.9,17.7-17.8C351.2,195.9,351.2,206.1,351.3,216.3z M341.7,226.2
		c-4.8,5-9.7,9.9-14.5,14.9c-5.2-5-10.4-10.1-15.5-15.2c4.9-5.2,9.9-10.3,14.9-15.4C331.6,215.8,336.6,221,341.7,226.2z
		 M298.1,226.2c-4.9,5.2-9.7,10.4-14.5,15.7c-4.8-5.1-9.6-10.2-14.4-15.2c5-5,9.9-10,14.9-15C288.7,216.5,293.4,221.4,298.1,226.2z
		 M262.4,219.5c-1.2-1.3-2.4-2.6-3.7-3.9c-0.2-10.4-0.2-20.8-0.1-31.2c6.1,6.8,12.3,13.5,18.6,20.1
		C272.3,209.5,267.4,214.5,262.4,219.5z M251.2,270.4c-5.3,0.9-10.6,2-15.9,3.2c-0.3-31.7-0.6-63.4-0.9-95.2
		c4.8-0.6,9.7-1.1,14.6-1.6C248.4,208.1,249.1,239.3,251.2,270.4z M361.4,270.5c-0.2-31.7-0.4-63.5-0.6-95.2
		c5.5,0.4,11.1,0.9,16.7,1.6c-2.2,32-3.1,64.1-2.8,96.2C370.2,272.1,365.8,271.2,361.4,270.5z M348.4,174.5
		c-7.3,7.2-14.5,14.4-21.7,21.7c-4.4-4.8-8.7-9.6-13-14.5c2.6-2.6,5.2-5.3,7.8-7.9C329.9,173.9,339,174.1,348.4,174.5z M294.5,174.5
		c1.9,2.3,3.9,4.6,5.8,6.8c-5.4,5.4-10.8,10.9-16.2,16.3c-6.8-7.2-13.4-14.4-20-21.7c3.3-0.2,6.5-0.3,9.8-0.4
		C276.1,175.5,283.6,174.9,294.5,174.5z M87.9,308.3c4.5-21.3,12.2-42.5,23.6-61.2c10.3-16.8,24.4-30.7,41-41.3
		c22-14,46.7-21.7,72-25.9c0.3,32.1,0.6,64.3,1,96.4c-8.4,2.6-16.5,6.2-23.5,11.3c-31.6,23.3-39.9,66.4-69.5,91.7
		c-11.3,9.7-26,16.6-40.8,16.3c-1.5-6.4-2.8-12.8-3.9-19.1C83.6,353.9,83.2,330.9,87.9,308.3z M340.4,498.9
		c-14.9-12.3-25.6-29.3-30.4-48.1c-0.7-2.7-7.3-2.7-8,0c-4.9,19.5-16.3,37.2-32.2,49.6c-3.5-0.1-7-0.2-10.5-0.4
		c2.7-2.2,5.3-4.7,7.7-7.2c7-7.4,13.6-15.3,19.6-23.6c8.2-11.4,14.9-23.9,19.5-37.1c4.5,13.3,11.3,25.7,19.5,37.1
		c5.9,8.3,12.5,16.2,19.6,23.6c1.8,1.9,3.7,3.7,5.6,5.4c-3.3,0.2-6.5,0.5-9.8,0.7C340.7,498.9,340.5,498.9,340.4,498.9z
		 M284.2,500.7c9.2-9.1,16.7-19.7,21.8-31.6c5,11.4,12.1,21.7,20.8,30.5C312.6,500.4,298.4,500.8,284.2,500.7z M465.8,477.3
		c-17.9,11-37.8,14-58.4,16c-13.9,1.3-27.8,2.6-41.8,3.8c-6.4-3.2-11.5-8.7-16.3-13.9c-6.2-6.7-12-13.8-17.2-21.3
		c-10.4-15.1-18.2-31.8-21.3-50c-0.5-2.8-2.7-3.8-4.9-3.5c-2.2-0.4-4.4,0.6-4.9,3.5c-3.1,18.2-10.9,34.8-21.3,50
		c-5.2,7.5-11,14.6-17.2,21.3c-5.9,6.4-12.1,13.2-20.8,15.7c-11.7-1.1-23.4-2.6-35-4.7c-21.1-3.8-43.1-8.9-62.4-18.4
		c-17.1-8.4-29.4-21.4-38.1-38c27.8-5.1,53.7-19.2,73.2-39.6c12-12.6,21-27.2,27.5-43.2c3.4-8.4,6.5-17.2,11.7-24.7
		c5.7-8.3,14.1-13,23.7-15.6c20.3-5.6,42.2-7.2,63.5-7.4c21.3,0.2,43.2,1.8,63.5,7.4c9.6,2.6,18,7.3,23.7,15.6
		c5.2,7.5,8.3,16.3,11.7,24.7c6.5,16.1,15.4,30.7,27.5,43.2c19.3,20.1,44.6,34.1,71.9,39.4C494.6,453.4,481.9,467.3,465.8,477.3z
		 M523.5,386.6c-0.6,3.1-1.3,6.1-2.1,9.1c-15.2,0.6-30.2-6.3-41.8-16.3c-29.6-25.3-38-68.4-69.5-91.7c-7.6-5.6-16.3-9.3-25.5-12
		c-0.4-32.6,0.5-65.1,2.7-97.6c17.2,2.5,34.2,6.3,49,12.1c31.9,12.4,66.9,30.1,79.9,63.7c8,20.7,9.4,44.6,10.7,66.5
		C528.2,342.4,527.8,364.8,523.5,386.6z"/>
	<path class="st0" d="M571,375.5c-1.5-30.2-2.5-60.5-4.7-90.7c-1.9-26.9-5.9-53.8-17.2-78.5c-10-21.7-25.9-40.5-47.2-51.7
		c-22-11.6-47-15.4-71.5-17.4c-57.6-4.7-116.1-6.6-173.8-3.1c-28.1,1.7-56.3,4.7-83.9,10.3c-21.6,4.4-43.1,11-62.3,21.9
		c-19.6,11.2-36.2,27.3-45.6,48c-5.5,12.1-9,25-12.2,37.9c-3.6,14.6-6.4,29.3-8.6,44.2c-4.2,28.3-6,56.9-5.2,85.5
		c0.7,26.2,2.1,54.4,11.6,79.1c8.6,22.5,25.9,37.3,46.3,49.8c12.8,7.8,26.8,13.7,40.9,18c-4.4-0.2-8.9,0.2-13.1,1.2
		c-16.5,4.3-30,17.3-37.5,32.3c-7.7,15.3-10.1,33.9-4.8,50.4c5,15.6,16.7,27.6,31.3,34.6c14.8,7.1,31.2,9.8,47.4,11.1
		c18,1.5,38,2.8,54.3-6.3c12.6-7,21-19.2,26.3-32.4c12.7,22.7,41.9,32.1,67.5,30.9c14.9-0.7,30.2-3.5,43.5-10.5
		c6.9-3.6,14.4-9.5,19.3-16.7c5.4,11.8,13.3,22.4,24.7,28.8c16.4,9.1,36.3,7.8,54.3,6.3c16.2-1.3,32.7-4,47.4-11.1
		c14.6-7,26.3-19.1,31.3-34.6c5.3-16.5,2.9-35-4.8-50.4c-7.5-15-21-28-37.5-32.3c-0.9-0.2-1.7-0.3-2.6-0.5
		c14.9-3.8,29.3-9.3,42.4-17.7c19.6-12.6,35.6-30.9,41.9-53.6C576.5,431.7,572.4,402.6,571,375.5z M239.2,590.7
		c-2,14.5-6.5,29.8-15.7,41.5c-9.5,12.2-23.1,17-38.2,17.4c-14,0.4-28.6-0.7-42.4-3.2c-12.8-2.4-25.9-6.4-36.1-14.7
		c-10.9-8.8-17-21.6-17.5-35.6c-0.9-26.1,18.3-58.6,47.5-57.6c14.2,0.5,28.7,10.6,28.3,25.9c-0.2,6.7-3.5,13.7-10.1,16.1
		c-5.7,2.1-13.1,0.9-16.6-4.4c-2.5-3.7-7.4-2.8-9,1.2c-4.6,11.5,0.5,24.7,10,32c10.5,8,25.2,7.1,36.3,0.8
		c25.2-14.2,24.7-45.1,18.2-70.2c19.3,2,33.7,1.9,37.6,2c1.4,0,2.8,0,4.2,0.1C240.1,557.9,241.5,574.4,239.2,590.7z M166.8,542.4
		c-3.1-3.6-6.9-6.4-11-8.6c9.6,2.2,18.9,3.8,27.6,5c6,19.8,9.3,44.4-7.7,59.5c-7.4,6.5-19.1,9.7-28.1,4.8c-5.6-3-9.2-8.7-9.8-14.8
		c9.1,5,21.4,3.8,29.1-4C178.3,572.9,176.7,554,166.8,542.4z M345.3,633c-11.7,5.5-25.1,7.6-37.8,8c-25.1,0.8-54.1-9.4-61.1-35.9
		c5.1-20.6,4.8-42.3-0.5-62.8c7.7,0.1,15.5,0.2,23.2,0.3c2.2,11.5,4.8,23.3,12.1,32.8c6.8,8.9,17.1,14.7,28.6,13.4
		c23-2.5,38.6-25.1,38.6-47.2c6.1-0.2,12.2-0.4,18.2-0.6c-5.8,21.4-6.1,44.1-0.6,65.6c0.3,1.2,0.7,2.5,1.1,3.7
		C365.5,620.7,353.8,628.9,345.3,633z M279,542.6c19.8,0,39.6-0.2,59.4-0.7c-0.2,16.8-11.8,35.8-29.9,37.2
		C288.7,580.7,282.3,558.5,279,542.6z M522.7,596.2c-0.5,13.9-6.6,26.8-17.5,35.6c-10.3,8.3-23.3,12.3-36.1,14.7
		c-13.8,2.6-28.4,3.7-42.4,3.2c-15.1-0.5-28.7-5.2-38.2-17.4c-9.2-11.7-13.7-27-15.7-41.5c-2.3-16.8-0.8-33.9,4-50.1
		c13.9-0.5,27.8-1.1,41.7-2c-6.9,25.3-7.9,57.1,17.8,71.6c11.1,6.3,25.8,7.1,36.3-0.8c9.6-7.3,14.6-20.5,10-32c-1.6-4-6.4-4.9-9-1.2
		c-3.6,5.2-10.9,6.5-16.6,4.4c-6.6-2.4-10-9.4-10.1-16.1c-0.4-15.3,14.2-25.4,28.3-25.9C504.4,537.6,523.6,570.1,522.7,596.2z
		 M445.1,584.3c7.8,7.8,20,9,29.1,4c-0.6,6.1-4.2,11.8-9.8,14.8c-9.1,4.9-20.7,1.7-28.1-4.8c-17.2-15.3-13.6-40.4-7.4-60.4
		c8.2-0.6,16.3-1.4,24.4-2.4c-3,1.9-5.7,4.2-8.1,6.9C435.3,554,433.7,572.9,445.1,584.3z M545.6,482.9
		c-32.5,40-88.1,43.4-135.6,46.2c-56.9,3.3-113.8,4.4-170.8,3.3c-6.8-0.1-111.7,0.4-163.4-48.2C58.2,467.6,53.6,442,51,418.6
		c-2.9-27.1-3.4-54.5-1.6-81.7c1.8-27.7,6-55.1,12.6-82c5.7-23.4,13-46.2,30.8-63.4c32.2-31.1,81.4-39,124.1-44
		c55.5-6.5,111.6-5.8,167.4-3.1c46.1,2.2,102.7,0.6,136.9,37.2c36.4,38.9,35.2,97.5,37.7,147.2c1.4,28.2,3.1,56.4,4.1,84.6
		C563.9,438.1,561.8,462.9,545.6,482.9z"/>
</g>
</svg>
