<?xml version="1.0" encoding="utf-8"?>
<!-- Generator: Adobe Illustrator 27.3.1, SVG Export Plug-In . SVG Version: 6.00 Build 0)  -->
<svg version="1.1" id="katman_1" xmlns="http://www.w3.org/2000/svg" xmlns:xlink="http://www.w3.org/1999/xlink" x="0px" y="0px"
	 viewBox="0 0 612 792" style="enable-background:new 0 0 612 792;" xml:space="preserve">
<style type="text/css">
	.st0{fill:#1D1D1B;}
</style>
<g>
	<path class="st0" d="M511.2,229.1c-11.5-14.5-27-25.5-43.4-33.7c-39.1-19.6-85-26.9-128.3-27.5c-10.2-0.2-110.5-3.8-168.5,20.1
		c-18.5,7.6-35.7,19-49.7,33.4c-15.2,15.7-25.6,35-33.4,55.3c-8.4,22-13.5,45.5-13.3,69.1c0.2,23.2,4.8,46.5,11.3,68.7
		c5.5,19.1,13.5,38,26.9,52.9c14.4,15.9,34.4,24.1,54.5,30.2c45.1,13.7,92.7,16.8,139.6,15.6c23.8-0.6,47.6-2.4,71.4-4.5
		c22.9-2,47.3-2.4,69.4-9.4c36-11.4,62.3-42.1,76.2-76.3c17.5-42.9,15.2-91.5,9.1-136.5C530.1,265.5,524.5,245.9,511.2,229.1z
		 M523.5,389.5c-7.1,35.9-25.8,71-57.6,90.7c-17.9,11-37.8,14-58.4,16c-22.2,2.1-44.4,4.2-66.6,5.6c-44.6,2.9-89.8,3.3-133.9-4.8
		c-21.1-3.8-43.1-8.9-62.4-18.4c-18-8.8-30.9-22.8-39.5-40.8c-8.8-18.1-13.7-38.5-17.2-58.3c-4.1-22.7-4.5-45.7,0.2-68.3
		c4.5-21.3,12.2-42.5,23.6-61.2c10.3-16.8,24.4-30.7,41-41.3c36.1-22.9,79.3-29.2,121.3-30.3c9.2-0.2,102.7-8.6,162.4,14.6
		c31.9,12.4,66.9,30.1,79.9,63.7c8,20.7,9.4,44.6,10.7,66.5C528.2,345.3,527.8,367.7,523.5,389.5z"/>
	<path class="st0" d="M477.2,246.1c-10.1-12.6-23.8-22.1-38.4-28.7c-32.2-14.5-68.9-17.4-103.8-17.6c-10.8-0.1-88.3-5.2-145.2,15.9
		c-30.7,11.4-58.6,33.3-71.6,64.1c-7.7,18.3-9.6,38.4-9.5,58.1c0.1,19.3,2.1,39,7,57.7c4.3,16.1,11,31.7,21.4,44.7
		c11.1,14,26.2,22.8,42.9,28.3c38.9,12.9,81.1,15.4,121.8,14.9c21.1-0.3,42.1-1.4,63.1-2.7c18.7-1.2,37.5-2,55.9-6.1
		c17.1-3.8,33.5-10.9,46.5-22.8c12.6-11.5,21.5-26.7,27.3-42.7c6.7-18.8,8.7-39.1,8.8-58.9c0.1-18.8-0.9-37.9-4.7-56.4
		C495,276.6,488.4,260,477.2,246.1z M162.9,450.4c-7.6-4.6-13.9-10.7-19.2-17.7c15.2-3.9,31.6-1.8,45.1,6.6
		c10.4,6.5,18.2,16.2,22.8,27.4C194.8,463.4,177.4,459.3,162.9,450.4z M222.6,468.6c-4.8-15.5-15.1-29.2-28.9-37.8
		c-16.5-10.3-37.3-12.4-55.8-6.6c-1.8-3-3.4-6-4.9-9.2c-6.9-14.7-10.6-30.9-12.6-46.9c-2.4-19.3-3.1-39.4-0.2-58.6
		c2.3-15.3,7.4-29.9,16.2-42.6c26.9-1,53.8-2.2,80.7-2.8c21.8-0.5,44.2,0,65.1,6.9c21.6,7.2,37.8,22.2,47.1,42.9
		c10,22.2,13.1,47.9,14.2,72c1.3,29.2-1.7,58.4-8.8,86.8c-1.1,0-2.1,0.1-3.2,0.2C295.2,474.5,258.5,474.5,222.6,468.6z M343.5,324.1
		c-0.7-2.3-1.5-4.5-2.3-6.8c-4.5-11.9-10.9-22.8-19.1-31.9c7.3-4.5,15.1-8.5,23.7-9.1c7.6-0.5,16.4,1.9,20.9,8.5
		c5.1,7.5,2.2,17.6-3,24.3C358.4,315.7,350.9,320.1,343.5,324.1z M375.9,333c7.6,3.1,14.3,10.6,14,19.2c-0.3,9.6-9.3,17.9-16.3,23.3
		c-6.1,4.7-12.9,8.3-20.2,10.8c-0.7-17.2-2.5-34.7-6.8-51.5C355.9,331.3,366.4,329.2,375.9,333z M353.6,396.6
		c16.5-5,33.2-15.7,41.9-30.7c4.8-8.3,5.4-17.8,1.1-26.5c-4-8-11.7-14-20.2-16.5c-3.7-1.1-7.6-1.6-11.4-1.6
		c7.9-6.9,13.7-15.5,14-26.9c0.5-18.6-18.2-29.7-35.2-27.7c-10.6,1.3-20.1,6.1-29,11.7c-4.2-3.7-8.9-6.9-14-9.7
		c13.5-8.8,28.2-16.9,44.4-17.4c18.4-0.6,35.1,9.3,46.7,23c12.3,14.5,20,33.5,24.3,51.9c4.5,19.6,2,39.2-11.9,54.4
		C391,395,372.4,402,353.6,406C353.6,402.9,353.7,399.7,353.6,396.6z M491.7,378.7c-4.6,33.6-21,66.4-53.4,80.3
		c-15.6,6.7-32.8,9-49.6,10.4c-14.6,1.2-29.2,2-43.8,2.8c4.4-18.4,7.2-37.2,8.2-56.1c19.8-4,39.3-10.9,54.3-24.9
		c16-14.9,22.8-35.2,20.1-56.8c-4.9-39-29.7-86.8-72.7-92.5c-23.7-3.2-45.4,9-64.4,21.9c-18.9-7.4-39.6-9.3-59.8-9.5
		c-28.6-0.3-57.4,1.4-86,2.6c8.8-9.5,19.4-17.4,30.8-23.7c32-17.6,68.7-20.8,106.5-23.5c9.4-0.7,80.9-4.6,128.2,8.1
		c30.5,8.1,58.3,24.5,71.5,54.3c6.9,15.5,9.6,32.7,10.9,49.5C493.9,340.5,494.3,359.9,491.7,378.7z"/>
	<path class="st0" d="M571,375.5c-1.5-30.2-2.5-60.5-4.7-90.7c-1.9-26.9-5.9-53.8-17.2-78.5c-10-21.7-25.9-40.5-47.2-51.7
		c-22-11.6-47-15.4-71.5-17.4c-57.6-4.7-116.1-6.6-173.8-3.1c-28.1,1.7-56.3,4.7-83.9,10.3c-21.6,4.4-43.1,11-62.3,21.9
		c-19.6,11.2-36.2,27.3-45.6,48c-5.5,12.1-9,25-12.2,37.9c-3.6,14.6-6.4,29.3-8.6,44.2c-4.2,28.3-6,56.9-5.2,85.5
		c0.7,26.2,2.1,54.4,11.6,79.1c8.6,22.5,25.9,37.3,46.3,49.8c12.8,7.8,26.8,13.7,40.9,18c-4.4-0.2-8.9,0.2-13.1,1.2
		c-16.5,4.3-30,17.3-37.5,32.3c-7.7,15.3-10.1,33.9-4.8,50.4c5,15.6,16.7,27.6,31.3,34.6c14.8,7.1,31.2,9.8,47.4,11.1
		c18,1.5,38,2.8,54.3-6.3c12.6-7,21-19.2,26.3-32.4c12.7,22.7,41.9,32.1,67.5,30.9c14.9-0.7,30.2-3.5,43.5-10.5
		c6.9-3.6,14.4-9.5,19.3-16.7c5.4,11.8,13.3,22.4,24.7,28.8c16.4,9.1,36.3,7.8,54.3,6.3c16.2-1.3,32.7-4,47.4-11.1
		c14.6-7,26.3-19.1,31.3-34.6c5.3-16.5,2.9-35-4.8-50.4c-7.5-15-21-28-37.5-32.3c-0.9-0.2-1.7-0.3-2.6-0.5
		c14.9-3.8,29.3-9.3,42.4-17.7c19.6-12.6,35.6-30.9,41.9-53.6C576.5,431.7,572.4,402.6,571,375.5z M239.2,590.7
		c-2,14.5-6.5,29.8-15.7,41.5c-9.5,12.2-23.1,17-38.2,17.4c-14,0.4-28.6-0.7-42.4-3.2c-12.8-2.4-25.9-6.4-36.1-14.7
		c-10.9-8.8-17-21.6-17.5-35.6c-0.9-26.1,18.3-58.6,47.5-57.6c14.2,0.5,28.7,10.6,28.3,25.9c-0.2,6.7-3.5,13.7-10.1,16.1
		c-5.7,2.1-13.1,0.9-16.6-4.4c-2.5-3.7-7.4-2.8-9,1.2c-4.6,11.5,0.5,24.7,10,32c10.5,8,25.2,7.1,36.3,0.8
		c25.2-14.2,24.7-45.1,18.2-70.2c19.3,2,33.7,1.9,37.6,2c1.4,0,2.8,0,4.2,0.1C240.1,557.9,241.5,574.4,239.2,590.7z M166.8,542.4
		c-3.1-3.6-6.9-6.4-11-8.6c9.6,2.2,18.9,3.8,27.6,5c6,19.8,9.3,44.4-7.7,59.5c-7.4,6.5-19.1,9.7-28.1,4.8c-5.6-3-9.2-8.7-9.8-14.8
		c9.1,5,21.4,3.8,29.1-4C178.3,572.9,176.7,554,166.8,542.4z M345.3,633c-11.7,5.5-25.1,7.6-37.8,8c-25.1,0.8-54.1-9.4-61.1-35.9
		c5.1-20.6,4.8-42.3-0.5-62.8c7.7,0.1,15.5,0.2,23.2,0.3c2.2,11.5,4.8,23.3,12.1,32.8c6.8,8.9,17.1,14.7,28.6,13.4
		c23-2.5,38.6-25.1,38.6-47.2c6.1-0.2,12.2-0.4,18.2-0.6c-5.8,21.4-6.1,44.1-0.6,65.6c0.3,1.2,0.7,2.5,1.1,3.7
		C365.5,620.7,353.8,628.9,345.3,633z M279,542.6c19.8,0,39.6-0.2,59.4-0.7c-0.2,16.8-11.8,35.8-29.9,37.2
		C288.7,580.7,282.3,558.5,279,542.6z M522.7,596.2c-0.5,13.9-6.6,26.8-17.5,35.6c-10.3,8.3-23.3,12.3-36.1,14.7
		c-13.8,2.6-28.4,3.7-42.4,3.2c-15.1-0.5-28.7-5.2-38.2-17.4c-9.2-11.7-13.7-27-15.7-41.5c-2.3-16.8-0.8-33.9,4-50.1
		c13.9-0.5,27.8-1.1,41.7-2c-6.9,25.3-7.9,57.1,17.8,71.6c11.1,6.3,25.8,7.1,36.3-0.8c9.6-7.3,14.6-20.5,10-32c-1.6-4-6.4-4.9-9-1.2
		c-3.6,5.2-10.9,6.5-16.6,4.4c-6.6-2.4-10-9.4-10.1-16.1c-0.4-15.3,14.2-25.4,28.3-25.9C504.4,537.6,523.6,570.1,522.7,596.2z
		 M445.1,584.3c7.8,7.8,20,9,29.1,4c-0.6,6.1-4.2,11.8-9.8,14.8c-9.1,4.9-20.7,1.7-28.1-4.8c-17.2-15.3-13.6-40.4-7.4-60.4
		c8.2-0.6,16.3-1.4,24.4-2.4c-3,1.9-5.7,4.2-8.1,6.9C435.3,554,433.7,572.9,445.1,584.3z M545.6,482.9
		c-32.5,40-88.1,43.4-135.6,46.2c-56.9,3.3-113.8,4.4-170.8,3.3c-6.8-0.1-111.7,0.4-163.4-48.2C58.2,467.6,53.6,442,51,418.6
		c-2.9-27.1-3.4-54.5-1.6-81.7c1.8-27.7,6-55.1,12.6-82c5.7-23.4,13-46.2,30.8-63.4c32.2-31.1,81.4-39,124.1-44
		c55.5-6.5,111.6-5.8,167.4-3.1c46.1,2.2,102.7,0.6,136.9,37.2c36.4,38.9,35.2,97.5,37.7,147.2c1.4,28.2,3.1,56.4,4.1,84.6
		C563.9,438.1,561.8,462.9,545.6,482.9z"/>
	<path class="st0" d="M207.1,284.7c-25,1-49.6,15.4-59.8,38.5c-10,22.6-4.5,50.4,12.9,67.9c19.5,19.6,50.2,20.7,74.1,9
		c24.9-12.2,40.5-37.8,36.2-65.6C266,305.2,237.9,283.5,207.1,284.7z M261.2,347.6c-4.5-4.4-9.1-8.7-13.6-13.1
		c3.3-3.5,6.5-6.9,9.8-10.4c0.6,1.4,1.2,2.9,1.7,4.4C261.1,335,261.8,341.4,261.2,347.6z M252.3,315.3c-3.9,4.2-7.8,8.3-11.7,12.5
		c-6.5-6.3-13.1-12.6-19.6-18.9c3.4-3.3,6.8-6.6,10.3-9.8C239.6,302.4,247,307.9,252.3,315.3z M197.8,333
		c5.3-5.9,10.7-11.6,16.2-17.2c6.6,6.3,13.2,12.8,19.8,19.1c-5.3,5.6-10.6,11.2-15.8,16.8C211.3,345.5,204.5,339.2,197.8,333z
		 M211.3,358.8c-5.3,5.6-10.6,11.3-15.9,16.9c-6.5-5.6-13-11.2-19.6-16.8c5-6.3,10.2-12.5,15.5-18.6
		C198,346.5,204.6,352.7,211.3,358.8z M193.9,296.3c4.3,4.1,8.6,8.3,13.1,12.6c-5.6,5.7-11,11.5-16.3,17.4
		c-6.6-6.1-13.1-12.2-19.7-18.2C177.6,302.6,185.5,298.5,193.9,296.3z M220.2,296c-2.1,2-4.2,4-6.3,6c-2.2-2.2-4.5-4.3-6.7-6.5
		C211.6,295.1,215.9,295.3,220.2,296z M164,315c6.7,6.2,13.4,12.4,20.1,18.7c-5.4,6.2-10.6,12.5-15.7,18.9
		c-5.2-4.5-10.5-9-15.7-13.5c0.2-1.5,0.5-2.9,0.9-4.3C155.5,327.4,159.2,320.7,164,315z M152.3,351.7c3.4,2.9,6.7,5.8,10.1,8.7
		c-2,2.6-4,5.3-5.9,7.9C154.2,363,152.8,357.3,152.3,351.7z M161.7,377.6c2.7-3.7,5.4-7.3,8.1-11c6.3,5.4,12.6,10.8,18.8,16.1
		c-3.2,3.4-6.3,6.7-9.5,10.1c-2.6-1.3-5.1-2.8-7.5-4.7C167.8,385.2,164.5,381.6,161.7,377.6z M189.2,396.5c2.3-2.4,4.6-4.8,6.8-7.3
		c3.3,2.8,6.6,5.7,10,8.5C200.4,398.2,194.7,397.8,189.2,396.5z M218.5,395.6c-5.2-4.5-10.5-9-15.7-13.5
		c5.2-5.5,10.4-11.1,15.7-16.6c7.1,6.6,14.2,13.2,21.3,19.8c-1,0.8-2,1.5-3.1,2.2C231.2,391,225,393.8,218.5,395.6z M247.1,378.7
		c-7.3-6.8-14.6-13.6-22-20.3c5.2-5.5,10.5-11.1,15.7-16.6c6.2,5.9,12.2,11.8,18,17.4C256.5,366.3,252.5,373,247.1,378.7z"/>
</g>
</svg>
