<?xml version="1.0" encoding="utf-8"?>
<!-- Generator: Adobe Illustrator 27.3.1, SVG Export Plug-In . SVG Version: 6.00 Build 0)  -->
<svg version="1.1" id="katman_1" xmlns="http://www.w3.org/2000/svg" xmlns:xlink="http://www.w3.org/1999/xlink" x="0px" y="0px"
	 viewBox="0 0 612 792" style="enable-background:new 0 0 612 792;" xml:space="preserve">
<style type="text/css">
	.st0{fill:#1D1D1B;}
</style>
<g>
	<circle class="st0" cx="166.3" cy="407.8" r="10.4"/>
	<circle class="st0" cx="305.4" cy="407.8" r="10.4"/>
	<circle class="st0" cx="445.7" cy="407.8" r="10.4"/>
	<path class="st0" d="M571,375.5c-1.5-30.2-2.5-60.5-4.7-90.7c-1.9-26.9-5.9-53.8-17.2-78.5c-10-21.7-25.9-40.5-47.2-51.7
		c-22-11.6-47-15.4-71.5-17.4c-57.6-4.7-116.1-6.6-173.8-3.1c-28.1,1.7-56.3,4.7-83.9,10.3c-21.6,4.4-43.1,11-62.3,21.9
		c-19.6,11.2-36.2,27.3-45.6,48c-5.5,12.1-9,25-12.2,37.9c-3.6,14.6-6.4,29.3-8.6,44.2c-4.2,28.3-6,56.9-5.2,85.5
		c0.7,26.2,2.1,54.4,11.6,79.1c8.6,22.5,25.9,37.3,46.3,49.8c12.8,7.8,26.8,13.7,40.9,18c-4.4-0.2-8.9,0.2-13.1,1.2
		c-16.5,4.3-30,17.3-37.5,32.3c-7.7,15.3-10.1,33.9-4.8,50.4c5,15.6,16.7,27.6,31.3,34.6c14.8,7.1,31.2,9.8,47.4,11.1
		c18,1.5,38,2.8,54.3-6.3c12.6-7,21-19.2,26.3-32.4c12.7,22.7,41.9,32.1,67.5,30.9c14.9-0.7,30.2-3.5,43.5-10.5
		c6.9-3.6,14.4-9.5,19.3-16.7c5.4,11.8,13.3,22.4,24.7,28.8c16.4,9.1,36.3,7.8,54.3,6.3c16.2-1.3,32.7-4,47.4-11.1
		c14.6-7,26.3-19.1,31.3-34.6c5.3-16.5,2.9-35-4.8-50.4c-7.5-15-21-28-37.5-32.3c-0.9-0.2-1.7-0.3-2.6-0.5
		c14.9-3.8,29.3-9.3,42.4-17.7c19.6-12.6,35.6-30.9,41.9-53.6C576.5,431.7,572.4,402.6,571,375.5z M239.2,590.7
		c-2,14.5-6.5,29.8-15.7,41.5c-9.5,12.2-23.1,17-38.2,17.4c-14,0.4-28.6-0.7-42.4-3.2c-12.8-2.4-25.9-6.4-36.1-14.7
		c-10.9-8.8-17-21.6-17.5-35.6c-0.9-26.1,18.3-58.6,47.5-57.6c14.2,0.5,28.7,10.6,28.3,25.9c-0.2,6.7-3.5,13.7-10.1,16.1
		c-5.7,2.1-13.1,0.9-16.6-4.4c-2.5-3.7-7.4-2.8-9,1.2c-4.6,11.5,0.5,24.7,10,32c10.5,8,25.2,7.1,36.3,0.8
		c25.2-14.2,24.7-45.1,18.2-70.2c19.3,2,33.7,1.9,37.6,2c1.4,0,2.8,0,4.2,0.1C240.1,557.9,241.5,574.4,239.2,590.7z M166.8,542.4
		c-3.1-3.6-6.9-6.4-11-8.6c9.6,2.2,18.9,3.8,27.6,5c6,19.8,9.3,44.4-7.7,59.5c-7.4,6.5-19.1,9.7-28.1,4.8c-5.6-3-9.2-8.7-9.8-14.8
		c9.1,5,21.4,3.8,29.1-4C178.3,572.9,176.7,554,166.8,542.4z M345.3,633c-11.7,5.5-25.1,7.6-37.8,8c-25.1,0.8-54.1-9.4-61.1-35.9
		c5.1-20.6,4.8-42.3-0.5-62.8c7.7,0.1,15.5,0.2,23.2,0.3c2.2,11.5,4.8,23.3,12.1,32.8c6.8,8.9,17.1,14.7,28.6,13.4
		c23-2.5,38.6-25.1,38.6-47.2c6.1-0.2,12.2-0.4,18.2-0.6c-5.8,21.4-6.1,44.1-0.6,65.6c0.3,1.2,0.7,2.5,1.1,3.7
		C365.5,620.7,353.8,628.9,345.3,633z M279,542.6c19.8,0,39.6-0.2,59.4-0.7c-0.2,16.8-11.8,35.8-29.9,37.2
		C288.7,580.7,282.3,558.5,279,542.6z M522.7,596.2c-0.5,13.9-6.6,26.8-17.5,35.6c-10.3,8.3-23.3,12.3-36.1,14.7
		c-13.8,2.6-28.4,3.7-42.4,3.2c-15.1-0.5-28.7-5.2-38.2-17.4c-9.2-11.7-13.7-27-15.7-41.5c-2.3-16.8-0.8-33.9,4-50.1
		c13.9-0.5,27.8-1.1,41.7-2c-6.9,25.3-7.9,57.1,17.8,71.6c11.1,6.3,25.8,7.1,36.3-0.8c9.6-7.3,14.6-20.5,10-32c-1.6-4-6.4-4.9-9-1.2
		c-3.6,5.2-10.9,6.5-16.6,4.4c-6.6-2.4-10-9.4-10.1-16.1c-0.4-15.3,14.2-25.4,28.3-25.9C504.4,537.6,523.6,570.1,522.7,596.2z
		 M445.1,584.3c7.8,7.8,20,9,29.1,4c-0.6,6.1-4.2,11.8-9.8,14.8c-9.1,4.9-20.7,1.7-28.1-4.8c-17.2-15.3-13.6-40.4-7.4-60.4
		c8.2-0.6,16.3-1.4,24.4-2.4c-3,1.9-5.7,4.2-8.1,6.9C435.3,554,433.7,572.9,445.1,584.3z M545.6,482.9
		c-32.5,40-88.1,43.4-135.6,46.2c-56.9,3.3-113.8,4.4-170.8,3.3c-6.8-0.1-111.7,0.4-163.4-48.2C58.2,467.6,53.6,442,51,418.6
		c-2.9-27.1-3.4-54.5-1.6-81.7c1.8-27.7,6-55.1,12.6-82c5.7-23.4,13-46.2,30.8-63.4c32.2-31.1,81.4-39,124.1-44
		c55.5-6.5,111.6-5.8,167.4-3.1c46.1,2.2,102.7,0.6,136.9,37.2c36.4,38.9,35.2,97.5,37.7,147.2c1.4,28.2,3.1,56.4,4.1,84.6
		C563.9,438.1,561.8,462.9,545.6,482.9z"/>
	<path class="st0" d="M485.5,235.5c-11.5-15.1-28.1-24.5-46.1-29c-86.7-21.6-222.6-12.7-261.9-0.1c-16.7,5.4-33,13.5-45.3,26.3
		c-12.8,13.4-20.6,31-24.4,49c-4.3,20.7-3.6,42-2.1,62.9c1.5,21.3,2.8,42.9,7.9,63.7c4.4,17.8,12.1,35.2,24.4,49
		c12.5,13.9,29.5,22.2,47.3,27.1c18.8,5.2,38.6,7.4,58,9.5c22,2.3,44.1,3.5,66.2,3.3c21.9-0.2,43.7-1.9,65.3-5.2
		c18.3-2.8,36.6-6.5,54-12.9c15.6-5.7,30.5-13.5,42.9-24.8c13.7-12.5,22.3-28.8,27.2-46.5c5.4-19.8,7.4-40.9,8.2-61.3
		c0.8-20.7-0.1-41.6-3.2-62.2C501.2,267.1,496.2,249.6,485.5,235.5z M496.5,306.2c0.3,4,0.5,8.1,0.7,12.1c0,0.1,0,0.2,0,0.3
		c-1.8,0-3.6-0.1-5.4-0.1c-1.4-1.8-2.8-3.6-4.3-5.4c2.4-3.1,4.7-6.1,7.1-9.2C495.3,304.6,495.9,305.4,496.5,306.2z M404,286.4
		c-3.1-3.7-6.3-7.3-9.4-11c3.2-3.3,6.3-6.5,9.5-9.7c3.2,3.6,6.5,7.2,9.7,10.8C410.5,279.7,407.3,283,404,286.4z M410.2,308.6
		c-3.8-0.8-7.7-1.8-11.4-3.1c1.5-1.6,3.1-3.1,4.6-4.7C405.8,303.4,408,306,410.2,308.6z M404.4,251.4c-2.9-3.2-5.7-6.4-8.6-9.6
		c3.1-3.1,6.1-6.3,9.2-9.5c3,3.2,6,6.5,8.9,9.7C410.8,245.1,407.6,248.2,404.4,251.4z M420.5,249.3c3.2,3.5,6.3,7.1,9.5,10.6
		c-3.1,3.2-6.2,6.3-9.4,9.5c-3.2-3.6-6.4-7.2-9.7-10.8C414.2,255.5,417.3,252.4,420.5,249.3z M397.5,258.3c-3.1,3.2-6.2,6.4-9.4,9.6
		c-2.9-3.4-5.8-6.8-8.8-10.2c3.2-3,6.3-6,9.4-9.1C391.7,251.8,394.6,255.1,397.5,258.3z M373,250.2c-1.5-1.8-3-3.5-4.6-5.3
		c-0.3-3.1-0.5-6.2-0.7-9.3c1.8-1.6,3.5-3.1,5.2-4.7c3.1,3.5,6.2,6.9,9.3,10.4C379.2,244.3,376.1,247.3,373,250.2z M372.2,264.3
		c3,3.5,6.1,7.1,9.1,10.6c-2.1,2.2-4.2,4.4-6.2,6.7c-1.8-5.2-3-10.8-3.9-16.3C371.5,264.9,371.9,264.6,372.2,264.3z M387.7,282.4
		c3.1,3.7,6.3,7.3,9.4,11c-2.5,2.6-5.1,5.2-7.6,7.7c-4.2-2.7-7.4-6.1-9.9-10C382.3,288.2,385,285.2,387.7,282.4z M420.3,283.8
		c3.3,3.6,6.5,7.3,9.8,10.9c-3.4,3.4-6.7,6.9-10.1,10.3c-3.2-3.7-6.3-7.4-9.5-11.1C413.7,290.5,417,287.1,420.3,283.8z M436.6,302
		c3.4,3.7,6.7,7.5,10.1,11.2c-0.5,0.5-0.9,1.1-1.4,1.6c-6.2-0.8-12.3-1.8-18.5-2.9C430.1,308.6,433.4,305.3,436.6,302z M443.5,294.9
		c2.9-3.1,5.7-6.3,8.6-9.4c2.9,3.5,5.9,6.9,8.8,10.4c-2.6,3.2-5.3,6.4-7.9,9.6C449.8,302,446.7,298.5,443.5,294.9z M452,270.3
		c0.2,0.1,0.3,0.1,0.5,0.2c-0.1,0.1-0.1,0.1-0.2,0.2C452.2,270.5,452.1,270.4,452,270.3z M458.7,278.2c1.4-1.6,2.8-3.3,4.2-4.9
		c1.7,0.3,3.4,0.6,5,0.8c1.5,0.2,3,0.3,4.5,0.5c0.8,1.1,1.6,2.3,2.4,3.4c-2.6,3.4-5.2,6.7-7.8,10
		C464.3,284.7,461.5,281.5,458.7,278.2z M467.2,303.6c2.7,3.2,5.3,6.4,7.9,9.7c-1.1,1.4-2.2,2.8-3.3,4.3c-3-0.2-5.9-0.5-8.9-0.7
		c-1.2-1.3-2.3-2.6-3.5-3.9C462.1,309.8,464.7,306.7,467.2,303.6z M473.4,295.7c2.5-3.2,5-6.4,7.4-9.6c2.5,3.3,5,6.7,7.6,10
		c-2.4,3.1-4.8,6.1-7.2,9.2C478.6,302.1,476,298.9,473.4,295.7z M494.6,288.2c-2.6-3.4-5.2-6.8-7.7-10.2c0.4-0.6,0.8-1.1,1.3-1.7
		c1.5,0.1,2.9,0.3,4.4,0.4C493.4,280.5,494,284.3,494.6,288.2z M459.6,225.7c14.7,9.3,24.5,22.5,29.7,38.8c0.2,0.7,0.4,1.4,0.6,2
		c-6.5-0.7-13-1.3-19.4-2.1c-6.9-0.8-14.8-1.9-20.3-6.5c-6.3-5.3-7.9-14.3-9.5-21.9c-1.3-6.5-2.1-13-2.5-19.6
		C446.7,219.1,454,222.1,459.6,225.7z M445.7,278c-2.9,3.2-5.8,6.5-8.8,9.7c-3.2-3.6-6.5-7.2-9.7-10.9c3.1-3.1,6.2-6.3,9.3-9.4
		C439.6,270.9,442.7,274.4,445.7,278z M431.7,240.6c0.6,3,1.4,6.1,2.3,9.1c-2.1-2.4-4.3-4.8-6.4-7.2c1.2-1.2,2.5-2.4,3.8-3.5
		C431.4,239.5,431.5,240.1,431.7,240.6z M428.3,213.8c0.2,4.5,0.6,9,1.1,13.4c-2.8,2.6-5.6,5.2-8.4,7.9c-3-3.3-6.1-6.7-9.1-10
		c3.9-4.1,7.7-8.3,11.4-12.5C425,213.1,426.7,213.5,428.3,213.8z M396.7,208.3c5.3,0.7,10.4,1.4,15.4,2.3c-2.3,2.5-4.6,5-6.9,7.5
		c-2.9-3.1-5.9-6.3-8.8-9.4C396.5,208.5,396.6,208.4,396.7,208.3z M398.4,225.1c-3,3.1-6,6.3-9.1,9.4c-3.1-3.4-6.1-6.8-9.2-10.2
		c3.1-2.9,6.2-5.9,9.2-8.8C392.4,218.6,395.4,221.8,398.4,225.1z M367,205.5c4.7,0.3,9.3,0.7,13.9,1.1c0.6,0.6,1.1,1.2,1.7,1.8
		c-3,2.9-6,5.8-9,8.6c-2.2-2.5-4.4-4.9-6.6-7.4C367,208.2,367,206.8,367,205.5z M357.2,204.9c-0.5,17.4,0.5,34.9,2.8,52.1
		c1.9,14,3.8,29.7,12.3,41.4c8.1,11.2,21,16.3,34.1,19.4c29.7,6.9,60.5,10.1,91,10.5c0.1,6.9,0.1,13.7-0.2,20.6
		c-19.9-3-40-3-60.2-2.9c-20.5,0.1-41.2,0.3-61.4-3.6c-16.9-3.2-34.6-9.2-42.6-25.7c-8-16.3-7.1-36.6-8.5-54.2
		c-1.5-19.6-2.9-39.2-4.4-58.8C332.4,203.8,344.9,204.2,357.2,204.9z M301.3,203.7c3,0,6,0,9,0c1.8,23.8,3.5,47.7,5.3,71.5
		c1.3,17.4,1.7,36.7,11.8,51.7c10.3,15.2,28.2,21.7,45.5,25c40.8,7.8,82.7,0.3,123.5,6.9c-0.5,6.7-1.1,13.4-2,20
		c-0.1,0.5-0.1,0.9-0.2,1.4c-1.5-0.4-3-0.8-4.6-1.1c-19.5-3.6-40.4-4-60.2-2.2c-16.9,1.5-34.7,6.6-46.3,19.8
		c-0.6-1.8-1.3-3.5-2.1-5.3c-7-15.2-21.5-22.9-37.4-25.8c-19.5-3.6-40.4-4-60.2-2.2c-17.1,1.6-35.1,6.6-46.6,20.2
		c-3.4,4-5.9,8.4-7.7,13c-7.8-9.8-19.6-15.2-32.3-17.6c-19.5-3.6-40.4-4-60.2-2.2c-6,0.6-12.2,1.6-18.1,3.2
		c-0.2-2.1-0.5-4.3-0.7-6.4c-0.5-5.1-1-10.1-1.5-15.2c40.4-6.2,81.8,1.1,122.1-6.7c17.3-3.3,35.2-9.8,45.5-25
		c10.1-15,10.6-34.3,11.8-51.7C297.8,251.3,299.6,227.5,301.3,203.7z M254.4,205c11.1-0.5,23.7-1,37.1-1.2
		c-1.5,19.6-2.9,39.1-4.4,58.7c-1.3,17.6-0.5,38-8.5,54.2c-8.1,16.5-25.8,22.4-42.6,25.7c-20.2,3.9-40.9,3.7-61.4,3.6
		c-19.7-0.1-39.4-0.1-58.9,2.7c-0.5-6.8-1-13.6-1.2-20.4c30.4-0.4,61.1-3.6,90.6-10.5c13.1-3.1,26-8.2,34.1-19.4
		c8.5-11.7,10.4-27.5,12.3-41.4C254,239.8,254.9,222.4,254.4,205z M159.6,285.5c2.9,3.2,5.7,6.3,8.6,9.4c-3.2,3.5-6.3,7.1-9.5,10.6
		c-2.6-3.2-5.3-6.4-7.9-9.6C153.7,292.4,156.6,289,159.6,285.5z M159.2,270.5c0.2-0.1,0.3-0.1,0.5-0.2c-0.1,0.1-0.2,0.3-0.3,0.4
		C159.3,270.6,159.2,270.5,159.2,270.5z M207.7,286.4c-3.3-3.3-6.5-6.6-9.8-9.9c3.2-3.6,6.5-7.2,9.7-10.8c3.2,3.2,6.3,6.5,9.5,9.7
		C214,279,210.8,282.7,207.7,286.4z M212.8,305.5c-3.7,1.3-7.5,2.3-11.4,3.1c2.2-2.6,4.5-5.2,6.7-7.8
		C209.7,302.4,211.2,303.9,212.8,305.5z M224,282.4c2.7,2.9,5.4,5.8,8.1,8.7c-2.5,3.9-5.7,7.3-9.9,10c-2.5-2.6-5.1-5.2-7.6-7.7
		C217.7,289.7,220.8,286,224,282.4z M230.4,274.9c3-3.5,6.1-7.1,9.1-10.6c0.3,0.3,0.7,0.6,1,0.9c-0.9,5.6-2.1,11.2-3.9,16.3
		C234.5,279.3,232.5,277.1,230.4,274.9z M238.7,250.2c-3.1-2.9-6.2-5.9-9.3-8.9c3.1-3.5,6.2-6.9,9.3-10.4c1.7,1.6,3.5,3.2,5.2,4.7
		c-0.2,3.1-0.4,6.2-0.7,9.3C241.7,246.7,240.2,248.4,238.7,250.2z M232.3,257.7c-2.9,3.4-5.8,6.8-8.8,10.2c-3.1-3.2-6.2-6.4-9.4-9.6
		c2.9-3.2,5.8-6.5,8.7-9.7C226,251.6,229.1,254.7,232.3,257.7z M207.2,251.4c-3.2-3.1-6.3-6.2-9.5-9.4c3-3.3,5.9-6.5,8.9-9.7
		c3.1,3.2,6.1,6.4,9.2,9.5C212.9,245,210.1,248.2,207.2,251.4z M200.7,258.7c-3.2,3.6-6.4,7.2-9.7,10.8c-3.1-3.2-6.2-6.3-9.4-9.5
		c3.1-3.6,6.3-7.1,9.5-10.6C194.3,252.4,197.5,255.5,200.7,258.7z M191.3,283.8c3.3,3.4,6.6,6.7,9.9,10.1c-3.2,3.7-6.3,7.4-9.5,11.1
		c-3.4-3.4-6.8-6.8-10.1-10.3C184.8,291,188.1,287.4,191.3,283.8z M184.9,311.9c-6.1,1.1-12.3,2.1-18.5,2.9
		c-0.5-0.5-0.9-1.1-1.4-1.6c3.4-3.7,6.7-7.5,10.1-11.2C178.3,305.3,181.5,308.6,184.9,311.9z M152.1,312.9c-1.2,1.3-2.3,2.6-3.5,3.9
		c-2.9,0.3-5.9,0.5-8.9,0.7c-1.1-1.4-2.2-2.8-3.3-4.3c2.6-3.2,5.3-6.4,7.9-9.7C147,306.7,149.5,309.8,152.1,312.9z M144.6,288
		c-2.6-3.3-5.2-6.7-7.8-10c0.8-1.1,1.6-2.3,2.4-3.4c1.5-0.2,3-0.3,4.5-0.5c1.7-0.2,3.4-0.5,5-0.8c1.4,1.7,2.7,3.3,4.2,4.9
		C150.2,281.5,147.4,284.7,144.6,288z M138.3,295.7c-2.6,3.2-5.3,6.4-7.9,9.6c-2.4-3.1-4.8-6.1-7.2-9.2c2.6-3.3,5.1-6.6,7.6-10
		C133.3,289.4,135.8,292.5,138.3,295.7z M230.9,206.4c4.1-0.3,8.7-0.6,13.7-0.9c0,1.3,0.1,2.7,0.1,4c-2.2,2.5-4.4,4.9-6.6,7.4
		c-3-2.8-6-5.7-9-8.6C229.7,207.7,230.3,207.1,230.9,206.4z M231.5,224.3c-3.1,3.4-6.1,6.8-9.2,10.2c-3.1-3.1-6.1-6.3-9.1-9.4
		c3-3.2,6-6.4,9-9.6C225.4,218.4,228.4,221.3,231.5,224.3z M211.1,208.5c0.9-0.2,2.1-0.3,3.5-0.5c0.2,0.2,0.4,0.4,0.6,0.6
		c-3,3.1-5.9,6.3-8.8,9.4c-2.3-2.4-4.5-4.9-6.8-7.3C203.5,209.9,207.3,209.1,211.1,208.5z M183.3,214.8c1.8-0.6,3.7-1.1,5.6-1.6
		c3.6,4,7.2,8,10.9,12c-3.1,3.3-6.1,6.6-9.1,10c-2.8-2.7-5.6-5.3-8.4-7.9C182.7,223.1,183.1,219,183.3,214.8z M180,240.6
		c0.1-0.6,0.2-1.1,0.3-1.7c1.3,1.2,2.5,2.3,3.8,3.5c-2.2,2.4-4.3,4.8-6.4,7.2C178.6,246.7,179.4,243.7,180,240.6z M184.5,276.8
		c-3.2,3.6-6.5,7.2-9.7,10.9c-3-3.2-5.9-6.4-8.8-9.7c3.1-3.6,6.2-7.1,9.2-10.6C178.3,270.5,181.4,273.6,184.5,276.8z M125.5,259.6
		c7.7-15.9,20-27.9,35.6-36c4-2.1,8-3.8,12.2-5.4c-0.4,6-1.2,12-2.4,18c-1.5,7.6-3.2,16.6-9.5,21.9c-5.5,4.6-13.4,5.7-20.3,6.5
		c-6.2,0.7-12.4,1.3-18.7,2C123.4,264.2,124.4,261.9,125.5,259.6z M119.2,276.7c1.4-0.1,2.9-0.3,4.3-0.4c0.4,0.6,0.8,1.1,1.3,1.7
		c-2.5,3.4-5.1,6.9-7.7,10.2c-0.1-0.1-0.2-0.3-0.3-0.4C117.4,284.1,118.2,280.4,119.2,276.7z M114.7,306.7c0.8-0.9,1.6-1.9,2.3-2.8
		c2.4,3,4.7,6.1,7.1,9.2c-1.4,1.8-2.9,3.6-4.3,5.4c-1.8,0-3.6,0.1-5.4,0.1c0-1.7-0.1-3.5,0-5.2C114.5,311.1,114.6,308.9,114.7,306.7
		z M443.3,462.2c-31.5,16.5-69.4,21.6-104.5,24.1c-40.7,2.9-81.8,0.5-122.1-5.5c-17.1-2.6-34.6-5.8-50.1-13.9
		c-15.8-8.2-27.3-21.1-35-37c-6.1-12.6-9.5-26.2-11.6-40.1c4.3-1.3,8.8-2.2,13.1-2.8c17.2-2.1,35.4-1.8,52.6,0.1
		c14.7,1.7,30.4,5.3,38.4,19c0.7,1.1,1.2,2.3,1.8,3.5c-1.4,9.4-1,19.2-0.3,28.6c0.5,6.3,10.3,6.3,9.8,0c-1.1-14.6-2.2-30.8,5.7-43.8
		c8.1-13.3,24.2-19,38.9-20.8c17.2-2.1,35.4-1.8,52.6,0.1c14.7,1.7,30.4,5.3,38.4,19c7.5,13,7.1,29.5,5.6,44c-0.7,6.3,9.2,6.2,9.8,0
		c0.9-9,1.2-18.3,0-27.3c0.3-0.5,0.5-1.1,0.9-1.6c8.1-13.3,24.2-19,38.9-20.8c17.2-2.1,35.4-1.8,52.6,0.1c4.8,0.5,9.6,1.3,14.3,2.5
		c-2.6,14.8-6.7,29.5-14.9,42.3C469.5,445.2,457,455,443.3,462.2z"/>
</g>
</svg>
