<?xml version="1.0" encoding="utf-8"?>
<!-- Generator: Adobe Illustrator 27.3.1, SVG Export Plug-In . SVG Version: 6.00 Build 0)  -->
<svg version="1.1" id="katman_1" xmlns="http://www.w3.org/2000/svg" xmlns:xlink="http://www.w3.org/1999/xlink" x="0px" y="0px"
	 viewBox="0 0 612 792" style="enable-background:new 0 0 612 792;" xml:space="preserve">
<style type="text/css">
	.st0{fill:#1D1D1B;}
</style>
<g>
	<path class="st0" d="M511.2,226.2c-11.5-14.5-27-25.5-43.4-33.7c-39.1-19.6-85-26.9-128.3-27.5c-10.2-0.2-110.5-3.8-168.5,20.1
		c-18.5,7.6-35.7,19-49.7,33.4c-15.2,15.7-25.6,35-33.4,55.3c-8.4,22-13.5,45.5-13.3,69.1c0.2,23.2,4.8,46.5,11.3,68.7
		c5.5,19.1,13.5,38,26.9,52.9c14.4,15.9,34.4,24.1,54.5,30.2c45.1,13.7,92.7,16.8,139.6,15.6c23.8-0.6,47.6-2.4,71.4-4.5
		c22.9-2,47.3-2.4,69.4-9.4c36-11.4,62.3-42.1,76.2-76.3c17.5-42.9,15.2-91.5,9.1-136.5C530.1,262.6,524.5,243,511.2,226.2z
		 M273.9,175.6c9.2-0.2,102.7-8.6,162.4,14.6c27,10.5,56.1,24.8,72.3,49.2c-12.8,16.1-28.4,29.1-45.7,39.6
		c9.7-14.3,15.1-31.6,14.5-49.1c-0.2-6.3-10-6.3-9.8,0c0.9,25.5-12.3,49.9-33.3,63.7c-19.5,8.4-40.1,14.7-60.5,19.6
		c20.6-18.3,33.4-45.2,33.7-72.9c0.1-6.3-9.7-6.3-9.8,0c-0.3,33.2-20.4,64.1-50.1,78.6c-26.6,5.3-56.1,9.9-84.5,9
		c32.3-16.1,57.7-45,69.1-79.5c2-6-7.5-8.6-9.5-2.6c-12.5,37.6-43.3,68.1-81,80.3c-19.7-2.9-38.3-9.1-54.5-20.6
		c32.5-10.5,59.2-36.7,69.1-70c1.8-6.1-7.7-8.7-9.5-2.6c-9.5,31.8-36.7,57.3-68.9,65.2c-3.4-3-6.6-6.3-9.7-9.9
		c-19.7-22.9-26.3-59.5-9.7-85.8C193.3,182.3,234.1,176.6,273.9,175.6z M523.5,386.6c-7.1,35.9-25.8,71-57.6,90.7
		c-17.9,11-37.8,14-58.4,16c-22.2,2.1-44.4,4.2-66.6,5.6c-44.6,2.9-89.8,3.3-133.9-4.8c-21.1-3.8-43.1-8.9-62.4-18.4
		c-18-8.8-30.9-22.8-39.5-40.8c-8.8-18.1-13.7-38.5-17.2-58.3c-4.1-22.7-4.5-45.7,0.2-68.3c4.5-21.3,12.2-42.5,23.6-61.2
		c8.3-13.6,19.2-25.3,31.8-34.8c-6.9,20.9-4.4,44.7,5.7,64.7c15,29.5,45.9,48,77.2,55.8c38.6,9.6,78.9,3.8,117.3-3.3
		c31.8-5.9,63.3-13.7,93.1-26.4c29.5-12.5,56.4-30.3,77.1-54.8c0.9,1.8,1.7,3.6,2.4,5.4c8,20.7,9.4,44.6,10.7,66.5
		C528.2,342.4,527.8,364.8,523.5,386.6z"/>
	<path class="st0" d="M571,375.5c-1.5-30.2-2.5-60.5-4.7-90.7c-1.9-26.9-5.9-53.8-17.2-78.5c-10-21.7-25.9-40.5-47.2-51.7
		c-22-11.6-47-15.4-71.5-17.4c-57.6-4.7-116.1-6.6-173.8-3.1c-28.1,1.7-56.3,4.7-83.9,10.3c-21.6,4.4-43.1,11-62.3,21.9
		c-19.6,11.2-36.2,27.3-45.6,48c-5.5,12.1-9,25-12.2,37.9c-3.6,14.6-6.4,29.3-8.6,44.2c-4.2,28.3-6,56.9-5.2,85.5
		c0.7,26.2,2.1,54.4,11.6,79.1c8.6,22.5,25.9,37.3,46.3,49.8c12.8,7.8,26.8,13.7,40.9,18c-4.4-0.2-8.9,0.2-13.1,1.2
		c-16.5,4.3-30,17.3-37.5,32.3c-7.7,15.3-10.1,33.9-4.8,50.4c5,15.6,16.7,27.6,31.3,34.6c14.8,7.1,31.2,9.8,47.4,11.1
		c18,1.5,38,2.8,54.3-6.3c12.6-7,21-19.2,26.3-32.4c12.7,22.7,41.9,32.1,67.5,30.9c14.9-0.7,30.2-3.5,43.5-10.5
		c6.9-3.6,14.4-9.5,19.3-16.7c5.4,11.8,13.3,22.4,24.7,28.8c16.4,9.1,36.3,7.8,54.3,6.3c16.2-1.3,32.7-4,47.4-11.1
		c14.6-7,26.3-19.1,31.3-34.6c5.3-16.5,2.9-35-4.8-50.4c-7.5-15-21-28-37.5-32.3c-0.9-0.2-1.7-0.3-2.6-0.5
		c14.9-3.8,29.3-9.3,42.4-17.7c19.6-12.6,35.6-30.9,41.9-53.6C576.5,431.7,572.4,402.6,571,375.5z M239.2,590.7
		c-2,14.5-6.5,29.8-15.7,41.5c-9.5,12.2-23.1,17-38.2,17.4c-14,0.4-28.6-0.7-42.4-3.2c-12.8-2.4-25.9-6.4-36.1-14.7
		c-10.9-8.8-17-21.6-17.5-35.6c-0.9-26.1,18.3-58.6,47.5-57.6c14.2,0.5,28.7,10.6,28.3,25.9c-0.2,6.7-3.5,13.7-10.1,16.1
		c-5.7,2.1-13.1,0.9-16.6-4.4c-2.5-3.7-7.4-2.8-9,1.2c-4.6,11.5,0.5,24.7,10,32c10.5,8,25.2,7.1,36.3,0.8
		c25.2-14.2,24.7-45.1,18.2-70.2c19.3,2,33.7,1.9,37.6,2c1.4,0,2.8,0,4.2,0.1C240.1,557.9,241.5,574.4,239.2,590.7z M166.8,542.4
		c-3.1-3.6-6.9-6.4-11-8.6c9.6,2.2,18.9,3.8,27.6,5c6,19.8,9.3,44.4-7.7,59.5c-7.4,6.5-19.1,9.7-28.1,4.8c-5.6-3-9.2-8.7-9.8-14.8
		c9.1,5,21.4,3.8,29.1-4C178.3,572.9,176.7,554,166.8,542.4z M345.3,633c-11.7,5.5-25.1,7.6-37.8,8c-25.1,0.8-54.1-9.4-61.1-35.9
		c5.1-20.6,4.8-42.3-0.5-62.8c7.7,0.1,15.5,0.2,23.2,0.3c2.2,11.5,4.8,23.3,12.1,32.8c6.8,8.9,17.1,14.7,28.6,13.4
		c23-2.5,38.6-25.1,38.6-47.2c6.1-0.2,12.2-0.4,18.2-0.6c-5.8,21.4-6.1,44.1-0.6,65.6c0.3,1.2,0.7,2.5,1.1,3.7
		C365.5,620.7,353.8,628.9,345.3,633z M279,542.6c19.8,0,39.6-0.2,59.4-0.7c-0.2,16.8-11.8,35.8-29.9,37.2
		C288.7,580.7,282.3,558.5,279,542.6z M522.7,596.2c-0.5,13.9-6.6,26.8-17.5,35.6c-10.3,8.3-23.3,12.3-36.1,14.7
		c-13.8,2.6-28.4,3.7-42.4,3.2c-15.1-0.5-28.7-5.2-38.2-17.4c-9.2-11.7-13.7-27-15.7-41.5c-2.3-16.8-0.8-33.9,4-50.1
		c13.9-0.5,27.8-1.1,41.7-2c-6.9,25.3-7.9,57.1,17.8,71.6c11.1,6.3,25.8,7.1,36.3-0.8c9.6-7.3,14.6-20.5,10-32c-1.6-4-6.4-4.9-9-1.2
		c-3.6,5.2-10.9,6.5-16.6,4.4c-6.6-2.4-10-9.4-10.1-16.1c-0.4-15.3,14.2-25.4,28.3-25.9C504.4,537.6,523.6,570.1,522.7,596.2z
		 M445.1,584.3c7.8,7.8,20,9,29.1,4c-0.6,6.1-4.2,11.8-9.8,14.8c-9.1,4.9-20.7,1.7-28.1-4.8c-17.2-15.3-13.6-40.4-7.4-60.4
		c8.2-0.6,16.3-1.4,24.4-2.4c-3,1.9-5.7,4.2-8.1,6.9C435.3,554,433.7,572.9,445.1,584.3z M545.6,482.9
		c-32.5,40-88.1,43.4-135.6,46.2c-56.9,3.3-113.8,4.4-170.8,3.3c-6.8-0.1-111.7,0.4-163.4-48.2C58.2,467.6,53.6,442,51,418.6
		c-2.9-27.1-3.4-54.5-1.6-81.7c1.8-27.7,6-55.1,12.6-82c5.7-23.4,13-46.2,30.8-63.4c32.2-31.1,81.4-39,124.1-44
		c55.5-6.5,111.6-5.8,167.4-3.1c46.1,2.2,102.7,0.6,136.9,37.2c36.4,38.9,35.2,97.5,37.7,147.2c1.4,28.2,3.1,56.4,4.1,84.6
		C563.9,438.1,561.8,462.9,545.6,482.9z"/>
	<ellipse class="st0" cx="230.4" cy="380" rx="34.3" ry="26.6"/>
	<ellipse class="st0" cx="371.7" cy="380" rx="34.3" ry="26.6"/>
	<ellipse class="st0" cx="298.9" cy="433.2" rx="34.3" ry="26.6"/>
</g>
</svg>
