<?xml version="1.0" encoding="utf-8"?>
<!-- Generator: Adobe Illustrator 27.3.1, SVG Export Plug-In . SVG Version: 6.00 Build 0)  -->
<svg version="1.1" id="katman_1" xmlns="http://www.w3.org/2000/svg" xmlns:xlink="http://www.w3.org/1999/xlink" x="0px" y="0px"
	 viewBox="0 0 612 792" style="enable-background:new 0 0 612 792;" xml:space="preserve">
<style type="text/css">
	.st0{fill:#1D1D1B;}
</style>
<g>
	<path class="st0" d="M511.2,226.2c-11.5-14.5-27-25.5-43.4-33.7c-7.8-3.9-15.9-7.3-24.2-10.3c-0.4-0.2-0.8-0.4-1.3-0.5
		c-32.8-11.6-68.6-16.3-102.8-16.8c-10.2-0.2-110.5-3.8-168.5,20.1c-18.5,7.6-35.7,19-49.7,33.4c-15.2,15.7-25.6,35-33.4,55.3
		c-8.4,22-13.5,45.5-13.3,69.1c0.2,23.2,4.8,46.5,11.3,68.7c5.5,19.1,13.5,38,26.9,52.9c14.4,15.9,34.4,24.1,54.5,30.2
		c45.1,13.7,92.7,16.8,139.6,15.6c23.8-0.6,47.6-2.4,71.4-4.5c22.9-2,47.3-2.4,69.4-9.4c36-11.4,62.3-42.1,76.2-76.3
		c17.5-42.9,15.2-91.5,9.1-136.5C530.1,262.6,524.5,243,511.2,226.2z M526.8,320.4c0.9,15.5,1,31.1-0.5,46.6
		c-8.1,7.7-19,12.4-30.4,10.6c-9.5-1.4-17.5-7.7-21.1-16.3c3.6-6.2,5-13.6,2.2-20.4c-2.7-6.5-8.4-11.1-15.6-11.3
		c-6.3-0.2-6.3,9.6,0,9.8c5.9,0.2,8.1,7.1,7,11.9c-1.3,6.1-6.2,11.1-10.9,14.9c-10.8,9-26.1,14.6-40.1,11.5
		c-11.1-2.4-21.6-10.6-23.5-22.3c-1.6-9.3,2.3-19.1,9.4-25.2c18.7-2.6,36.9-7.6,53.3-17.3c25.7-15.1,45.6-39.3,55.7-67.3
		c1.4,2.6,2.7,5.3,3.8,8.1C524.1,274.5,525.5,298.4,526.8,320.4z M417.7,492.1c-23.3-29.3-59.4-51.3-95.7-59.2
		c-41.1-9-85.1-3.4-123.5,13.1c-17.1,7.3-33.5,18.2-43,34.5c-2.3-0.9-4.6-1.9-6.8-2.9c24-33.9,65.8-48.1,105.5-53.3
		c41.3-5.4,87-6.3,122.4,18.8c18.2,12.9,32.4,30.8,45.8,48.4C420.8,491.7,419.3,491.9,417.7,492.1z M267.1,500.3
		c-10.6-0.4-21.1-1.1-31.6-2.2c-0.1-0.1-0.2-0.3-0.3-0.4c-7.4-7.6-6.2-19.6-3.6-28.9c2.7-10,7.8-19.2,14.6-27c2.8-0.5,5.6-1,8.4-1.4
		c5.7-0.8,11.5-1.4,17.3-1.7c-5.2,10.8-8.5,22.5-9.8,34.5C261.1,482.6,262.2,492.5,267.1,500.3z M153.1,314c5.9,3.4,12.2,6,18.7,8
		c10.1,7.3,18.3,18.4,23.8,28.7c5.3,10.1,11.8,22.1,11.7,33.9c-0.2,14.1-14.4,19.1-25.3,24c-12.8,5.8-26.2,11.3-36.4,21.3
		c-5.7,5.7-10.4,12.6-12.7,20.2c-4.9-11.2-9.3-22.5-13.1-34.1c-4.4-13.5-8.7-27.3-10.3-41.5c-2.5-22.4,4-51.8,28.6-59.4
		C143.2,313.6,148.3,313.3,153.1,314z M202.9,343.6c-3.4-6.1-7.6-12.2-12.4-17.6c4.5,0.7,9.1,1.1,13.7,1.5
		c-0.7,6.3-0.6,12.5,0.1,18.7C203.8,345.3,203.4,344.4,202.9,343.6z M213.9,328.2c4.6,0.3,9.2,0.5,13.8,0.8
		c-1.3,13.8,3.4,27.2,12.6,37.7c10.5,12.1,26.1,18.2,41.9,18.3c31.5,0.3,56.6-20.9,71.5-47c-0.8,28.2-18.2,55.5-45.4,65.2
		c-30.8,11-66.5-0.1-83.9-28.2C215.8,361.1,211.9,344.4,213.9,328.2z M398.2,379.3c-9.8,11.2-17.1,25.4-16.4,40.5
		c0.3,7.2,2.6,13.8,6.1,19.7c-17.3-13.7-37.5-22.2-59.3-25.7c-5.5-0.9-11.1-1.5-16.7-1.8c14-5.2,26.6-14.3,35.9-27
		c11-14.9,16.6-33.7,15.7-52.1c8.6-0.1,17.3-0.4,26-1.1c-3.1,5.2-5.1,11.1-5.5,17.3C383,361,388.9,372,398.2,379.3z M345.4,332.8
		c-12.4,21.8-32.3,40.5-58.5,42.2c-13.4,0.9-27-2.8-36.8-12.3c-0.5-0.5-0.9-1-1.4-1.5c8.5,1.5,17.2,1.6,25.6-0.1
		c15.3-3.1,28.5-13.9,32.3-29C319.5,332.5,332.5,332.7,345.4,332.8z M272.9,351.5c-6.9,1.6-14.3,1.5-21.2,0.4
		c-3.5-0.5-8.7-1.3-11.7-4c-2.4-5.8-3.5-12.2-2.6-18.5c19.8,1,39.6,1.9,59.4,2.5C293.4,342.2,283.1,349.1,272.9,351.5z M406.3,456.9
		c11.9,6.6,24.5,8.1,36.8,6c-1,2.3-2.4,4.5-3.9,6.2c-4.2,4.7-9.8,7.5-15.6,8.2C418.1,470.4,412.3,463.4,406.3,456.9z M417.9,451.5
		c-11.7-4.1-22.2-13.4-25.4-25.6c-3.9-15.2,4.1-30.3,14.2-41.4c7.6,3.3,16,4.4,24.4,3.5c-2.2,5.4-3.7,11-4.1,16.8
		c-0.5,7.1,1.3,15.1,7.1,19.8c7.2,5.8,17.1,4.5,24.6-0.2c7.3-4.6,13.4-11.4,18.6-18.2c4.8-6.2,8.6-13,11.7-20.1
		c1.4,0.4,2.9,0.8,4.4,1c5.3,0.9,10.7,0.7,15.8-0.4c-9,25.7-26.8,49.8-51.5,61.7C445.3,454.3,431,456.1,417.9,451.5z M468.2,370
		c3,4.8,7.1,8.9,12,11.9c-2.9,6.7-6.6,13.1-11.1,18.9c-2.7,3.5-5.7,6.7-8.8,9.7c-3,2.8-6.2,5.7-10.1,7.2c-3.3,1.3-7.4,1.5-10.2-1
		c-2.2-2-2.9-5.1-3.2-7.9c-0.6-8.1,2.5-16.4,6.4-23.4C452.8,382.3,461.6,377,468.2,370z M175.8,193.8c7.9-3.4,16.1-6.2,24.4-8.5
		c-2.2,18,4.2,35.9,15.6,50.2c14.1,17.8,35.1,28,57.1,32.4c23.6,4.7,48.5,4.1,72.3,1c23.1-3,46.4-9.8,65.3-23.9
		c17-12.8,29.9-30.6,34.1-51.4c7.5,3.1,15,6.5,22.3,10.4c-16.1,44.8-60.2,72.2-105.4,80.8c-27.6,5.2-56.3,4.5-84,0.7
		c-24.9-3.5-50.3-10.1-70.7-25.3C186.4,245,171.9,219.4,175.8,193.8z M259.8,176.2c-9,10.5-12.2,24.6-12,39.3
		c0.2,12.5,1.9,26,7.9,37.1c-9.2-3.7-17.8-8.7-25-15.4c-14.7-13.8-24.3-34.2-20-54.5C226.7,179,243.3,177.1,259.8,176.2z
		 M283.4,222.9c1.1,9.2,3.8,18,7.9,26.2c1.5,2.9,4,8.4,7.2,12c-3.7-0.2-7.5-0.5-11.1-0.9c-5.1-0.6-10.3-1.4-15.5-2.6
		c-11.4-10.1-14-26-14.3-40.6c-0.4-16.6,3.2-32.5,18-41.6c3.3-0.2,9.7-0.6,18.4-1C285.3,188.9,281.4,206.1,283.4,222.9z
		 M347.1,252.2c-1.2-1.7-2.3-3.4-3.4-5.2c-2.1-3.5-4.1-7.1-5.8-10.8c-3.4-7.4-5.7-15.5-6.2-23.6c-0.8-14.3,3.8-28.7,14.8-38.2
		c0,0,0,0,0.1-0.1c29.2,1.3,62.1,5.3,88.6,15.4c-6.3,39.8-46.6,61.6-83,68.1c-0.4,0.1-0.8,0.1-1.2,0.2
		C349.4,255.6,347.4,252.8,347.1,252.2z M333.6,174c-8.9,11.3-12.8,26.3-11.5,40.6c0.9,9.8,3.8,19.1,8,27.9
		c2.2,4.6,4.8,9.1,7.6,13.3c0.7,1.1,1.5,2.4,2.4,3.7c-10.1,1.2-20.3,1.9-30.5,1.8c-3-5.3-8.2-14.1-8.8-15.3
		c-1.7-3.1-3.1-6.3-4.3-9.6c-2.4-6.8-3.7-13.8-3.9-21c-0.3-14.7,4.4-28.9,12.8-40.9c0.1-0.2,0.2-0.3,0.3-0.5
		C314,173.9,323.4,173.8,333.6,174z M152.5,205.9c4.2-2.7,8.5-5.1,12.9-7.3c-1.1,21.7,8.4,42.8,23.3,58.6
		c18.8,20,45.7,30.2,72.1,35.3c55.1,10.8,118.7,8.9,166.4-24.1c21.4-14.8,38.8-35.2,48.1-59.6c11.5,7.1,22,15.6,30,26.1
		c-7.3,25.7-23.5,48.6-45.4,64.1c-27.8,19.6-61.4,23.2-94.5,23.9c-37.8,0.7-75.8-0.8-113.6-2.6c-18-0.8-36.1-1.5-54-3.3
		c-15.6-1.6-31.6-5-44.6-14.4c-22.9-16.7-31.8-47.8-27-75C134,219.3,142.8,212,152.5,205.9z M104.9,434.9
		c-8.8-18.1-13.7-38.5-17.2-58.3c-4.1-22.7-4.5-45.7,0.2-68.3c4.5-21.3,12.2-42.5,23.6-61.2c1.2-2,2.5-3.9,3.8-5.8
		c-0.2,21.2,6.8,42.5,20.8,58.7c1.4,1.6,2.9,3.1,4.4,4.5c-0.3,0.1-0.6,0.1-0.9,0.1C114,309.4,100.1,336.1,99,360
		c-0.8,17.6,3.9,35.1,9,51.7c5.1,16.6,11.7,32.7,18.6,48.7c4.1,9.4,15,10.1,14.4,3.8c-3-31.3,35.8-41.4,57.2-52.6
		c11.9-6.3,19.9-16.1,18.7-30.2c0-0.1,0-0.1,0-0.2c8,12.5,19.3,22.7,33.3,28.9c3.3,1.4,6.6,2.6,10,3.6c-23.4,2.6-46.7,7.4-68.2,17.2
		c-20.7,9.4-39.1,23.6-52.1,42.2C124.2,464.3,112.9,451.3,104.9,434.9z M164.8,483.9c7.9-12.5,20.5-21,33.8-27.3
		c10.5-4.9,21.7-8.8,33-11.7c-4.6,7.2-8.1,15-10.1,23.4c-2.2,9.3-2.7,19.7,1.2,28.4c-5.3-0.7-10.6-1.6-15.9-2.5
		C192.9,491.6,178.5,488.4,164.8,483.9z M280.1,500.7c-0.3-0.5-0.7-0.9-1.2-1.3c-8.4-6.3-8-19.4-6.7-28.6
		c1.6-11.4,5.3-22.3,10.8-32.3c9,0.1,17.9,0.8,26.8,2.2c-4.7,10.4-8.4,21.3-8.9,32.8c-0.4,9.4,1.5,18.9,5.9,27.1
		C297.9,500.7,289,500.8,280.1,500.7z M340.8,498.9c-7.5,0.5-15.1,0.9-22.7,1.2c-13-16.8-6.8-39.5,1.6-57.5
		c15.6,3.4,30.7,9,44.8,16.9c15.7,8.8,29.6,20.3,41.2,34C384.1,495.5,362.5,497.5,340.8,498.9z M523.5,386.6
		c-7.1,35.9-25.8,71-57.6,90.7c-10.3,6.4-21.3,10-32.7,12.4c-1-1.3-1.9-2.5-2.9-3.8c6.1-1.8,11.7-5.1,15.9-9.8
		c4.1-4.5,6.9-10.1,8.2-16c14-4.9,27-14,37.1-24.8c13.8-14.9,23.8-33,29.5-52.5c1.2-0.6,2.4-1.3,3.6-2
		C524.2,382.6,523.8,384.6,523.5,386.6z"/>
	<path class="st0" d="M571,375.5c-1.5-30.2-2.5-60.5-4.7-90.7c-1.9-26.9-5.9-53.8-17.2-78.5c-10-21.7-25.9-40.5-47.2-51.7
		c-22-11.6-47-15.4-71.5-17.4c-57.6-4.7-116.1-6.6-173.8-3.1c-28.1,1.7-56.3,4.7-83.9,10.3c-21.6,4.4-43.1,11-62.3,21.9
		c-19.6,11.2-36.2,27.3-45.6,48c-5.5,12.1-9,25-12.2,37.9c-3.6,14.6-6.4,29.3-8.6,44.2c-4.2,28.3-6,56.9-5.2,85.5
		c0.7,26.2,2.1,54.4,11.6,79.1c8.6,22.5,25.9,37.3,46.3,49.8c12.8,7.8,26.8,13.7,40.9,18c-4.4-0.2-8.9,0.2-13.1,1.2
		c-16.5,4.3-30,17.3-37.5,32.3c-7.7,15.3-10.1,33.9-4.8,50.4c5,15.6,16.7,27.6,31.3,34.6c14.8,7.1,31.2,9.8,47.4,11.1
		c18,1.5,38,2.8,54.3-6.3c12.6-7,21-19.2,26.3-32.4c12.7,22.7,41.9,32.1,67.5,30.9c14.9-0.7,30.2-3.5,43.5-10.5
		c6.9-3.6,14.4-9.5,19.3-16.7c5.4,11.8,13.3,22.4,24.7,28.8c16.4,9.1,36.3,7.8,54.3,6.3c16.2-1.3,32.7-4,47.4-11.1
		c14.6-7,26.3-19.1,31.3-34.6c5.3-16.5,2.9-35-4.8-50.4c-7.5-15-21-28-37.5-32.3c-0.9-0.2-1.7-0.3-2.6-0.5
		c14.9-3.8,29.3-9.3,42.4-17.7c19.6-12.6,35.6-30.9,41.9-53.6C576.5,431.7,572.4,402.6,571,375.5z M239.2,590.7
		c-2,14.5-6.5,29.8-15.7,41.5c-9.5,12.2-23.1,17-38.2,17.4c-14,0.4-28.6-0.7-42.4-3.2c-12.8-2.4-25.9-6.4-36.1-14.7
		c-10.9-8.8-17-21.6-17.5-35.6c-0.9-26.1,18.3-58.6,47.5-57.6c14.2,0.5,28.7,10.6,28.3,25.9c-0.2,6.7-3.5,13.7-10.1,16.1
		c-5.7,2.1-13.1,0.9-16.6-4.4c-2.5-3.7-7.4-2.8-9,1.2c-4.6,11.5,0.5,24.7,10,32c10.5,8,25.2,7.1,36.3,0.8
		c25.2-14.2,24.7-45.1,18.2-70.2c19.3,2,33.7,1.9,37.6,2c1.4,0,2.8,0,4.2,0.1C240.1,557.9,241.5,574.4,239.2,590.7z M166.8,542.4
		c-3.1-3.6-6.9-6.4-11-8.6c9.6,2.2,18.9,3.8,27.6,5c6,19.8,9.3,44.4-7.7,59.5c-7.4,6.5-19.1,9.7-28.1,4.8c-5.6-3-9.2-8.7-9.8-14.8
		c9.1,5,21.4,3.8,29.1-4C178.3,572.9,176.7,554,166.8,542.4z M345.3,633c-11.7,5.5-25.1,7.6-37.8,8c-25.1,0.8-54.1-9.4-61.1-35.9
		c5.1-20.6,4.8-42.3-0.5-62.8c7.7,0.1,15.5,0.2,23.2,0.3c2.2,11.5,4.8,23.3,12.1,32.8c6.8,8.9,17.1,14.7,28.6,13.4
		c23-2.5,38.6-25.1,38.6-47.2c6.1-0.2,12.2-0.4,18.2-0.6c-5.8,21.4-6.1,44.1-0.6,65.6c0.3,1.2,0.7,2.5,1.1,3.7
		C365.5,620.7,353.8,628.9,345.3,633z M279,542.6c19.8,0,39.6-0.2,59.4-0.7c-0.2,16.8-11.8,35.8-29.9,37.2
		C288.7,580.7,282.3,558.5,279,542.6z M522.7,596.2c-0.5,13.9-6.6,26.8-17.5,35.6c-10.3,8.3-23.3,12.3-36.1,14.7
		c-13.8,2.6-28.4,3.7-42.4,3.2c-15.1-0.5-28.7-5.2-38.2-17.4c-9.2-11.7-13.7-27-15.7-41.5c-2.3-16.8-0.8-33.9,4-50.1
		c13.9-0.5,27.8-1.1,41.7-2c-6.9,25.3-7.9,57.1,17.8,71.6c11.1,6.3,25.8,7.1,36.3-0.8c9.6-7.3,14.6-20.5,10-32c-1.6-4-6.4-4.9-9-1.2
		c-3.6,5.2-10.9,6.5-16.6,4.4c-6.6-2.4-10-9.4-10.1-16.1c-0.4-15.3,14.2-25.4,28.3-25.9C504.4,537.6,523.6,570.1,522.7,596.2z
		 M445.1,584.3c7.8,7.8,20,9,29.1,4c-0.6,6.1-4.2,11.8-9.8,14.8c-9.1,4.9-20.7,1.7-28.1-4.8c-17.2-15.3-13.6-40.4-7.4-60.4
		c8.2-0.6,16.3-1.4,24.4-2.4c-3,1.9-5.7,4.2-8.1,6.9C435.3,554,433.7,572.9,445.1,584.3z M545.6,482.9
		c-32.5,40-88.1,43.4-135.6,46.2c-56.9,3.3-113.8,4.4-170.8,3.3c-6.8-0.1-111.7,0.4-163.4-48.2C58.2,467.6,53.6,442,51,418.6
		c-2.9-27.1-3.4-54.5-1.6-81.7c1.8-27.7,6-55.1,12.6-82c5.7-23.4,13-46.2,30.8-63.4c32.2-31.1,81.4-39,124.1-44
		c55.5-6.5,111.6-5.8,167.4-3.1c46.1,2.2,102.7,0.6,136.9,37.2c36.4,38.9,35.2,97.5,37.7,147.2c1.4,28.2,3.1,56.4,4.1,84.6
		C563.9,438.1,561.8,462.9,545.6,482.9z"/>
	<path class="st0" d="M121.1,356.7c-4.6,17.4-1,37.4,5.8,53.7c1,2.5,3.2,4.2,6,3.4c2.3-0.6,4.4-3.6,3.4-6c-5.7-13.5-9-29.1-6.8-43.8
		c1.7-11.7,10.3-26.4,24.3-23.9c6.2,1.1,8.8-8.3,2.6-9.5C139.2,327.5,125.3,340.8,121.1,356.7z"/>
</g>
</svg>
