<?xml version="1.0" encoding="UTF-8"?>
<svg width="635px" height="90px" viewBox="0 0 635 90" version="1.1" xmlns="http://www.w3.org/2000/svg" xmlns:xlink="http://www.w3.org/1999/xlink">
    <title>logo</title>
    <g id="Page-1" stroke="none" stroke-width="1" fill="none" fill-rule="evenodd">
        <g id="logo" fill="#FFFFFF" fill-rule="nonzero">
            <path d="M277.838676,0 C275.895607,2.09911909 273.858176,4.22686925 271.747754,6.28021812 C271.099841,6.91060754 270.885434,7.53931584 270.886263,8.42260946 C270.909806,32.8442746 270.910827,57.2659768 270.882626,81.6876313 C270.881606,82.5923298 271.154807,83.2000981 271.7898,83.8110279 C273.852785,85.7958285 275.861346,87.8367459 278,89.9646382 C269.767776,89.9646382 261.662264,89.9646382 253.2858,89.9646382 C254.724255,88.556271 255.946836,87.0974268 257.424753,85.9707555 C259.933269,84.058426 260.55078,81.7068054 260.528242,78.6020134 C260.379965,58.1721487 260.451743,37.7406995 260.451743,17.3097705 C260.451743,16.8498814 260.451743,16.3899912 260.451743,15.9301021 C260.334697,15.8884724 260.217652,15.8468424 260.100623,15.8052127 C250.844388,31.8057697 241.588153,47.8063247 232.173784,64.0802156 C222.628684,47.6890793 213.209003,31.5133352 203.620262,15.0472725 C203.55,15.6717944 203.485225,15.9791119 203.485161,16.2864445 C203.480424,38.1054622 203.476276,59.9244878 203.508529,81.7434621 C203.509294,82.2627782 203.796931,82.9013888 204.163316,83.2807824 C206.320696,85.5148715 208.541193,87.6885152 210.85819,90 C203.180489,90 195.685039,90 188,90 C190.252015,87.7536231 192.368912,85.602903 194.537043,83.5046853 C195.137455,82.923637 195.399763,82.3471159 195.398917,81.4950869 C195.374832,57.1601771 195.384641,32.8252315 195.349199,8.49035139 C195.348338,7.89388838 195.044352,7.15786276 194.630466,6.72550278 C192.498447,4.49824794 190.284283,2.34897289 188.080455,0.0862430217 C194.339607,0 200.617103,0 207.017449,0.0969902389 C207.612837,1.07690835 208.05923,1.97488842 208.562232,2.84022707 C211.109269,7.2219744 213.693119,11.5826245 216.221015,15.975226 C218.475933,19.8934771 220.659345,23.8524745 222.902252,27.777653 C225.582142,32.4676254 228.287424,37.143225 230.990681,41.8199089 C231.980638,43.5325693 232.996228,45.2305352 234.064837,47.0450833 C235.884081,43.8660449 237.583855,40.8866397 239.292529,37.9122864 C241.421007,34.207125 243.550314,30.5024102 245.691153,26.8043297 C248.187371,22.4923706 250.69182,18.185118 253.201437,13.8808645 C255.037014,10.7326407 256.91427,7.60815768 258.717659,4.4418542 C259.538779,3.00014463 260.226297,1.48295702 260.974411,0 C266.55501,0 272.135609,0 277.838676,0 Z" id="Path"></path>
            <path d="M353.053125,0 C353.383801,0.172339134 353.579398,0.471517748 353.806712,0.498413782 C359.050225,1.11881661 363.957703,2.66644442 368.405257,5.61466616 C373.860413,9.23079651 377.39188,14.265512 378.506103,20.6767506 C379.44485,26.0783479 379.178141,31.5457056 376.543676,36.5824336 C373.521652,42.3601252 368.872672,46.2934557 362.839875,48.6244199 C359.610314,49.8722639 356.291494,50.7813707 352.837094,50.9227012 C348.201935,51.1123455 343.559536,51.1257115 338.920052,51.2036378 C337.643546,51.2250777 336.366351,51.2068974 335.005101,51.2068974 C334.983131,51.6314812 334.947246,52.0028973 334.947121,52.3743172 C334.944049,61.9362069 334.93192,71.4981558 334.975547,81.059844 C334.978242,81.6514564 335.287136,82.3680933 335.688516,82.8100561 C337.668243,84.9899505 339.731305,87.0929323 341.74955,89.2377841 C341.891429,89.3885778 341.908823,89.65824 342.058788,89.9363234 C334.16912,90 326.204704,90 318.120003,90 C318.191272,89.590846 318.293035,89.0937228 318.589142,88.7868711 C320.466886,86.8409652 322.411606,84.9602272 324.273273,82.9992545 C324.631434,82.6220022 324.904443,81.9845503 324.905101,81.466733 C324.935627,57.0766037 324.93641,32.6864289 324.901685,8.29631334 C324.900901,7.7481187 324.576181,7.08213113 324.191129,6.67301442 C322.426023,4.79763998 320.581092,2.9986626 318.776684,1.16047497 C318.487159,0.865543428 318.25762,0.510888609 318,0.0919210324 C329.64406,0 341.288434,0 353.053125,0 M335.20145,28.3189669 C335.20145,33.686009 335.20145,39.0530551 335.20145,44.224139 C339.890421,44.224139 344.437764,44.2143838 348.985044,44.2270779 C353.180964,44.2386295 356.980079,43.011448 360.417399,40.600699 C362.73338,38.9763759 364.509549,36.8542823 365.726695,34.3302641 C367.469989,30.7149513 367.97263,26.8550663 367.558087,22.8561634 C367.056198,18.0143973 364.677974,14.190639 361.02992,11.2239654 C357.280229,8.17463516 352.756549,7.1007451 348.017464,6.9996707 C344.128024,6.91671838 340.235513,6.98112527 336.34435,6.9854282 C335.976912,6.98583424 335.609568,7.02355484 335.20145,7.04621208 C335.20145,14.1137239 335.20145,21.0870352 335.20145,28.3189669 Z" id="Shape"></path>
            <path d="M599.973093,0 C600.904654,2.58526259 601.672411,5.18473523 602.532177,7.75325574 C605.855279,17.6815628 609.214183,27.5978454 612.54698,37.5228993 C614.897142,44.5216108 617.213276,51.5317999 619.568951,58.5286171 C621.884704,65.4069738 624.267754,72.2627799 626.544157,79.154104 C627.340175,81.563748 628.326169,83.7525721 630.34549,85.4338921 C631.914906,86.7406131 633.286615,88.2860891 635,89.9757733 C626.250703,89.9757733 617.930212,89.9757733 609.393512,89.9757733 C610.254102,89.1115579 611.047015,88.3159871 611.839232,87.5196779 C613.121973,86.2302493 614.426894,84.9616873 615.669398,83.6343065 C615.950114,83.3344127 616.244772,82.754737 616.141103,82.4293454 C614.191295,76.3058469 612.182365,70.2012211 610.165071,64.0292134 C606.916299,64.0292134 603.675321,64.0292134 600.434343,64.0292134 C594.291782,64.0292134 588.149094,64.0551994 582.006913,64.0032829 C580.999565,63.994772 580.575892,64.2433412 580.249868,65.2544177 C578.43218,70.8909173 576.538579,76.5035121 574.590608,82.0961619 C574.320537,82.8716522 574.493339,83.2732343 574.98678,83.7636927 C577.029864,85.7944638 579.056537,87.8418125 581.205635,90 C573.757266,90 566.486009,90 559,90 C560.545019,88.455183 561.870534,86.9180076 563.410102,85.6400886 C565.72706,83.716836 566.978689,81.2347344 567.904863,78.4512139 C570.722359,69.9844523 573.597137,61.5366706 576.487314,53.0944652 C578.877778,46.1117514 581.335474,39.1522195 583.738548,32.1738284 C586.956017,22.8302712 590.151243,13.4790123 593.351223,4.12942315 C593.796187,2.82926491 594.21384,1.51970635 594.644103,0.107245291 C596.37992,0 598.115674,0 599.973093,0 M607.143787,57.2618741 C607.888098,57.3142872 607.959259,57.1156725 607.70446,56.3736228 C606.715868,53.4941132 605.865988,50.5671035 604.92169,47.6718229 C601.974482,38.6353978 599.007694,29.6053987 595.965626,20.3198148 C595.635166,20.701551 595.291969,20.9367558 595.178732,21.2543727 C594.282784,23.767534 593.423588,26.2939881 592.566483,28.8209406 C590.436713,35.099863 588.305991,41.3785314 586.191682,47.6627081 C585.123881,50.8364362 584.090933,54.0219479 583.022562,57.261898 C591.072729,57.261898 598.986783,57.261898 607.143787,57.2618741 Z" id="Shape"></path>
            <path d="M151.876135,0 C152,5.50375609 152,11.0075122 152,16.8523812 C150.944617,15.7908709 150.082936,14.9121305 149.207929,14.0464605 C147.032989,11.8947283 144.864194,9.73662998 142.659231,7.61507758 C142.354118,7.32150639 141.85874,7.05598715 141.450396,7.0545199 C132.600956,7.02273069 123.751371,7.03032081 114.816816,7.03032081 C114.816816,17.5882763 114.816816,28.107872 114.816816,38.724642 C115.095117,38.745906 115.428501,38.7933608 115.761918,38.7936033 C121.84005,38.7980688 127.918335,38.8158326 133.99604,38.7654138 C134.559126,38.7607376 135.24577,38.4450543 135.658211,38.0526264 C137.806534,36.0085812 139.884648,33.8929127 142.132055,31.6581346 C142.132055,38.7478766 142.132055,45.6382759 142.132055,52.8632627 C141.512877,52.2694975 141.064412,51.8447801 140.6219,51.4141469 C138.715322,49.5588124 136.81047,47.7017457 134.905005,45.8453066 C132.262643,45.8392595 129.620281,45.8298871 126.97792,45.8279522 C122.935869,45.8249922 118.89381,45.8271695 114.792053,45.8271695 C114.792053,58.343586 114.792053,70.7722364 114.792053,83.3221263 C115.242656,83.3221263 115.668939,83.3221263 116.095214,83.3221263 C124.243434,83.3221263 132.391703,83.3082998 140.539786,83.3417138 C141.43728,83.3453927 142.075382,83.1284055 142.714049,82.481361 C145.384868,79.7756104 148.116264,77.1278592 150.82827,74.4616173 C151.120686,74.1741471 151.431348,73.9047068 151.913659,73.4613396 C151.913659,79.1215653 151.913659,84.514655 151.913659,90 C133.700155,90 115.422919,90 97,90 C99.3061296,87.7243782 101.551964,85.5498483 103.733947,83.3148158 C104.104396,82.9353679 104.394965,82.296357 104.395643,81.7768573 C104.427682,57.3053889 104.428367,32.8338728 104.392924,8.36241716 C104.392126,7.80931734 104.066033,7.13269194 103.668482,6.72477571 C101.504277,4.50412205 99.2699931,2.34974802 97.041299,0.0862847487 C115.265935,0 133.509091,0 151.876135,0 Z" id="Path"></path>
            <path d="M62.878994,0 C63,5.50344197 63,11.0068842 63,16.8466738 C61.9081204,15.7254641 61.0041127,14.7863193 60.0883293,13.858996 C58.0241384,11.7687888 55.9664324,9.67170412 53.8725551,7.61207698 C53.5744763,7.31887014 53.0905229,7.05685129 52.6907267,7.05407176 C47.4022328,7.01730205 42.1134037,7.02955532 36.7272623,7.02955532 C36.7047742,7.43966786 36.6665228,7.81208253 36.6664795,8.18450058 C36.6636664,32.7431349 36.6588402,57.3017802 36.6941879,81.860358 C36.6950469,82.4557352 37.001427,83.1908393 37.4120256,83.6217158 C39.4320677,85.7415127 41.5355223,87.7804891 43.7620081,90 C35.6190131,90 27.6970667,90 19.5378892,90 C21.4395744,88.0950379 23.1817759,86.2164222 25.0724852,84.5045957 C26.2561157,83.4329421 26.6341622,82.2866341 26.6306797,80.6932171 C26.5781645,56.655378 26.5942623,32.6173837 26.5942623,8.57942748 C26.5942623,8.10855186 26.5942623,7.63767649 26.5942623,7.029541 C25.8612898,7.029541 25.1874101,7.029541 24.5135282,7.029541 C19.9953379,7.029541 15.4767798,7.00205446 10.9593992,7.06304197 C10.3702193,7.07099681 9.6512992,7.3922195 9.22323925,7.80920875 C6.50047271,10.4615517 3.8455923,13.1846649 1.15875435,15.8747205 C0.864947914,16.1688795 0.510090086,16.4010369 0.0917747336,16.6622819 C0,11.1163084 0,5.57000131 0,0 C20.919324,0 41.8386561,0 62.878994,0 Z" id="Path"></path>
            <path d="M438.464896,0 C438.368759,0.347672871 438.204566,0.749212433 437.920811,1.03433905 C435.982953,2.98143589 434.002359,4.88724527 432.082558,6.85130734 C431.764198,7.17703776 431.506052,7.72250925 431.50557,8.16673536 C431.478258,33.1527609 431.481247,58.138819 431.481247,83.2286155 C431.82438,83.2563118 432.154597,83.305976 432.484878,83.3062064 C438.976175,83.310783 445.467568,83.3269669 451.958511,83.2790266 C452.521778,83.2748713 453.214022,82.9748117 453.622094,82.5834794 C456.423748,79.8965758 459.164415,77.1475024 461.928475,74.4221844 C462.214799,74.1398739 462.525641,73.8818672 463,73.4552832 C463,79.1299368 463,84.525585 463,90 C446.769252,90 430.520254,90 414,90 C415.450358,88.5850469 416.678236,87.1231627 418.165191,85.9954698 C420.688264,84.0819428 421.311103,81.7328375 421.292338,78.6271755 C421.151505,55.2894556 421.211816,31.950522 421.23087,8.61198747 C421.231577,7.78216258 421.017581,7.18618698 420.405087,6.58571604 C418.267981,4.49057906 416.202141,2.3243113 414.108894,0.0925345871 C422.18624,0 430.263876,0 438.464896,0 Z" id="Path"></path>
            <path d="M522.895665,0 C521.393043,1.76284222 519.766469,3.51632769 518.163249,5.29359355 C517.609575,5.90735085 517.083711,6.55643412 516.608146,7.23896153 C516.440713,7.47928129 516.404349,7.867582 516.40423,8.18835544 C516.395378,32.8286216 516.392866,57.4688927 516.420169,82.1091243 C516.420707,82.5922726 516.671154,83.1863605 516.99026,83.5396571 C518.937467,85.6954808 520.938321,87.7965377 523,90 C515.334799,90 507.737779,90 500.057536,90 C500.235555,89.7716765 500.403466,89.5182898 500.606396,89.3020209 C502.47926,87.3059358 504.376198,85.3347225 506.218351,83.3072172 C506.540598,82.9525143 506.816254,82.369146 506.816822,81.8909958 C506.84553,57.3375349 506.84547,32.7840225 506.817659,8.23055354 C506.817091,7.74915057 506.558749,7.15696557 506.237669,6.80516204 C504.192796,4.56476563 502.096547,2.37739163 500,0.0862741189 C507.582158,0 515.18151,0 522.895665,0 Z" id="Path"></path>
        </g>
    </g>
</svg>