<svg height="174" viewBox="0 0 1226 174" width="1226" xmlns="http://www.w3.org/2000/svg"><g fill="#fff" transform="translate(.3828 .2461)"><path d="m121.523438 31.453125v-31.453125h-121.523438v31.453125l18.5859375-18.4667969h32.7636719v146.0664059l-13.7011719 13.701172h46.3457031l-13.7011718-13.701172v-146.0664059h32.7636722z"/><path d="m288.342969 172.753906v-31.453125l-18.466797 18.466797h-52.183594v-72.4374999h38.720703l13.701172 13.7011719v-40.2695312l-13.701172 13.7011718h-38.720703v-61.4765625h52.183594l18.466797 18.4667969v-31.453125h-103.414063l13.701172 13.7011719v145.3515621l-13.701172 13.701172z"/><path d="m535.842187 172.753906-13.701171-13.701172v-145.3515621l13.701171-13.7011719h-31.453125l-52.302734 90.7851562-51.945312-90.7851562h-35.623047l13.701172 13.7011719v145.3515621l-13.701172 13.701172h42.771484l-13.701172-13.701172v-131.5312496l54.923828 94.7167966 54.566407-94.7167966v131.5312496l-13.582032 13.701172z"/><path d="m728.536719 49.3242188c0-10.1269532-2.621094-18.9433594-7.982422-26.4492188s-12.628906-13.22460938-21.802734-17.03710938c-9.173829-3.8125-19.539063-5.71874999-31.095704-5.71874999h-57.30664l13.701172 13.70117187v145.3515625l-13.701172 13.701172h46.345703l-13.582031-13.701172v-60.5234375h24.542968c11.556641 0 21.921875-1.90625 31.095704-5.71875 9.173828-3.8125 16.441406-9.53125 21.802734-17.0371094 5.361328-7.5058593 7.982422-16.3222656 7.982422-26.4492187zm-21.445313.1191406c0 10.6035156-3.574218 19.3007812-10.603515 26.0917968-7.029297 6.7910157-16.560547 10.2460938-28.59375 10.2460938h-24.542969v-72.6757812h24.542969c12.033203 0 21.564453 3.4550781 28.71289 10.2460937 7.148438 6.7910156 10.722657 15.4882813 10.722657 26.0917969z"/><path d="m890.680469 172.753906v-31.453125l-18.466797 18.466797h-41.222656v-146.0664061l13.582031-13.7011719h-46.345703l13.701172 13.7011719v145.3515621l-13.701172 13.701172z"/><path d="m1011.31641 172.753906-13.582035-13.701172v-145.3515621l13.582035-13.7011719h-46.345707l13.701172 13.7011719v145.3515621l-13.701172 13.701172z"/><path d="m1225.12422 172.753906-13.93945-13.939453-53.61329-158.814453h-9.29296l-54.92383 158.814453-13.93946 13.939453h41.9375l-13.34375-13.46289 12.39063-36.576172h57.42578l11.91406 36.576172-13.46289 13.46289zm-51.46875-62.90625h-48.84766l24.90039-73.5097654z"/></g></svg>