<?xml version="1.0" encoding="utf-8"?>
<!-- Generator: Adobe Illustrator 27.3.1, SVG Export Plug-In . SVG Version: 6.00 Build 0)  -->
<svg version="1.1" id="katman_1" xmlns="http://www.w3.org/2000/svg" xmlns:xlink="http://www.w3.org/1999/xlink" x="0px" y="0px"
	 viewBox="0 0 612 792" style="enable-background:new 0 0 612 792;" xml:space="preserve">
<style type="text/css">
	.st0{fill:currentColor;}
</style>
<g>
	<path class="st0" d="M571,375.5c-1.5-30.2-2.5-60.5-4.7-90.7c-1.9-26.9-5.9-53.8-17.2-78.5c-10-21.7-25.9-40.5-47.2-51.7
		c-22-11.6-47-15.4-71.5-17.4c-57.6-4.7-116.1-6.6-173.8-3.1c-28.1,1.7-56.3,4.7-83.9,10.3c-21.6,4.4-43.1,11-62.3,21.9
		c-19.6,11.2-36.2,27.3-45.6,48c-5.5,12.1-9,25-12.2,37.9c-3.6,14.6-6.4,29.3-8.6,44.2c-4.2,28.3-6,56.9-5.2,85.5
		c0.7,26.2,2.1,54.4,11.6,79.1c8.6,22.5,25.9,37.3,46.3,49.8c12.8,7.8,26.8,13.7,40.9,18c-4.4-0.2-8.9,0.2-13.1,1.2
		c-16.5,4.3-30,17.3-37.5,32.3c-7.7,15.3-10.1,33.9-4.8,50.4c5,15.6,16.7,27.6,31.3,34.6c14.8,7.1,31.2,9.8,47.4,11.1
		c18,1.5,38,2.8,54.3-6.3c12.6-7,21-19.2,26.3-32.4c12.7,22.7,41.9,32.1,67.5,30.9c14.9-0.7,30.2-3.5,43.5-10.5
		c6.9-3.6,14.4-9.5,19.3-16.7c5.4,11.8,13.3,22.4,24.7,28.8c16.4,9.1,36.3,7.8,54.3,6.3c16.2-1.3,32.7-4,47.4-11.1
		c14.6-7,26.3-19.1,31.3-34.6c5.3-16.5,2.9-35-4.8-50.4c-7.5-15-21-28-37.5-32.3c-0.9-0.2-1.7-0.3-2.6-0.5
		c14.9-3.8,29.3-9.3,42.4-17.7c19.6-12.6,35.6-30.9,41.9-53.6C576.5,431.7,572.4,402.6,571,375.5z M183.4,538.8
		c6,19.8,9.3,44.4-7.7,59.5c-7.4,6.5-19.1,9.7-28.1,4.8c-5.6-3-9.2-8.7-9.8-14.8c9.1,5,21.4,3.8,29.1-4c11.4-11.4,9.8-30.2-0.1-41.9
		c-3.1-3.6-6.9-6.4-11-8.6C165.4,536,174.7,537.6,183.4,538.8z M223.6,632.2c-9.5,12.2-23.1,17-38.2,17.4c-14,0.4-28.6-0.7-42.4-3.2
		c-12.8-2.4-25.9-6.4-36.1-14.7c-10.9-8.8-17-21.6-17.5-35.6c-0.9-26.1,18.3-58.6,47.5-57.6c14.2,0.5,28.7,10.6,28.3,25.9
		c-0.2,6.7-3.5,13.7-10.1,16.1c-5.7,2.1-13.1,0.9-16.6-4.4c-2.5-3.7-7.4-2.8-9,1.2c-4.6,11.5,0.5,24.7,10,32
		c10.5,8,25.2,7.1,36.3,0.8c25.2-14.2,24.7-45.1,18.2-70.2c19.3,2,33.7,1.9,37.6,2c1.4,0,2.8,0,4.2,0.1c4.4,15.8,5.8,32.3,3.6,48.6
		C237.2,605.3,232.7,620.5,223.6,632.2z M345.3,633c-11.7,5.5-25.1,7.6-37.8,8c-25.1,0.8-54.1-9.4-61.1-35.9
		c5.1-20.6,4.8-42.3-0.5-62.8c7.7,0.1,15.5,0.2,23.2,0.3c2.2,11.5,4.8,23.3,12.1,32.8c6.8,8.9,17.1,14.7,28.6,13.4
		c23-2.5,38.6-25.1,38.6-47.2c6.1-0.2,12.2-0.4,18.2-0.6c-5.8,21.4-6.1,44.1-0.6,65.6c0.3,1.2,0.7,2.5,1.1,3.7
		C365.5,620.7,353.8,628.9,345.3,633z M279,542.6c19.8,0,39.6-0.2,59.4-0.7c-0.2,16.8-11.8,35.8-29.9,37.2
		C288.7,580.7,282.3,558.5,279,542.6z M522.7,596.2c-0.5,13.9-6.6,26.8-17.5,35.6c-10.3,8.3-23.3,12.3-36.1,14.7
		c-13.8,2.6-28.4,3.7-42.4,3.2c-15.1-0.5-28.7-5.2-38.2-17.4c-9.2-11.7-13.7-27-15.7-41.5c-2.3-16.8-0.8-33.9,4-50.1
		c13.9-0.5,27.8-1.1,41.7-2c-6.9,25.3-7.9,57.1,17.8,71.6c11.1,6.3,25.8,7.1,36.3-0.8c9.6-7.3,14.6-20.5,10-32c-1.6-4-6.4-4.9-9-1.2
		c-3.6,5.2-10.9,6.5-16.6,4.4c-6.6-2.4-10-9.4-10.1-16.1c-0.4-15.3,14.2-25.4,28.3-25.9C504.4,537.6,523.6,570.1,522.7,596.2z
		 M445.1,584.3c7.8,7.8,20,9,29.1,4c-0.6,6.1-4.2,11.8-9.8,14.8c-9.1,4.9-20.7,1.7-28.1-4.8c-17.2-15.3-13.6-40.4-7.4-60.4
		c8.2-0.6,16.3-1.4,24.4-2.4c-3,1.9-5.7,4.2-8.1,6.9C435.3,554,433.7,572.9,445.1,584.3z M545.6,482.9
		c-32.5,40-88.1,43.4-135.6,46.2c-56.9,3.3-113.8,4.4-170.8,3.3c-6.8-0.1-111.7,0.4-163.4-48.2C58.2,467.6,53.6,442,51,418.6
		c-2.9-27.1-3.4-54.5-1.6-81.7c1.8-27.7,6-55.1,12.6-82c5.7-23.4,13-46.2,30.8-63.4c32.2-31.1,81.4-39,124.1-44
		c55.5-6.5,111.6-5.8,167.4-3.1c46.1,2.2,102.7,0.6,136.9,37.2c36.4,38.9,35.2,97.5,37.7,147.2c1.4,28.2,3.1,56.4,4.1,84.6
		C563.9,438.1,561.8,462.9,545.6,482.9z"/>
	<path class="st0" d="M438,221.4c-14.9-10.3-31.6-16.3-49.4-19.2c-19.3-3.2-39.2-6.4-58.8-5.7c-5.7,0.2-47.8,2.3-86.2,7.9
		c-0.8,0-1.6,0.1-2.4,0.4c-19.8,3-38.4,6.9-50.4,12c-32,13.6-56.8,37.8-67.6,71.3c-5.4,17-7.4,35.1-8.1,52.9
		c-0.7,19.4-0.8,39.2,1.7,58.4c4.6,35.4,21,69.2,56,82.7c18.3,7.1,38.7,9.6,58,11.9c20.5,2.5,41.2,3.5,61.9,3
		c38.5-0.8,78.7-5.6,115.2-18.3c33.3-11.5,61.6-32.1,76-65.1c14.4-33.2,16.7-72.3,8.9-107.4C485.4,272.3,466.6,241.2,438,221.4z
		 M275.6,258c5.1-4.8,10.2-9.6,15.3-14.5c3.5,4.6,6.9,9.3,10.4,13.8c-5.4,5.5-10.8,10.9-16.3,16.4
		C281.8,268.6,278.7,263.3,275.6,258z M284.8,292.1c-1.2-0.2-2.3-0.4-3.5-0.6c0.6-0.6,1.3-1.3,1.9-1.9
		C283.8,290.4,284.3,291.2,284.8,292.1z M268.3,265c3.2,5.4,6.4,10.7,9.6,16c-2.5,2.5-4.9,5-7.4,7.5c-6.1-2.3-11.8-5.5-16.2-10.2
		C258.9,273.8,263.6,269.4,268.3,265z M248.5,270.2c-2.1-4.1-3.5-8.4-4.3-12.8c4.1-4.3,8.2-8.6,12.3-12.8c2.2,3.9,4.4,7.9,6.6,11.8
		C258.3,260.9,253.4,265.6,248.5,270.2z M307.4,265.2c3,3.8,6,7.7,9,11.5c-5.5,5.5-10.9,11.1-16.4,16.6c-0.9,0-1.9,0-2.8-0.1
		c-2.3-3.6-4.6-7.2-6.9-10.8C296,276.7,301.7,270.9,307.4,265.2z M322.6,284.3c1.8,2.1,3.5,4.3,5.3,6.4c-4.5,1.1-9.1,1.7-13.7,2.1
		C317,290,319.8,287.2,322.6,284.3z M323.3,269.7c-3-3.8-6-7.7-9-11.5c6.4-6.4,12.7-12.8,19.1-19.2c2.9,3.9,5.8,7.8,8.7,11.7
		C335.8,257,329.5,263.3,323.3,269.7z M348,258.5c3.9,5.1,7.8,10.2,11.7,15.2c-5.4,5.3-11.7,9.8-19.4,13c-0.8,0.3-1.6,0.6-2.4,0.9
		c-2.8-3.4-5.7-6.9-8.5-10.3C335.7,271.1,341.9,264.8,348,258.5z M354.9,251.4c4.8-4.9,9.5-9.9,14.3-14.9c2.5,3.4,5,6.9,7.6,10.3
		c-2.7,7-6.2,13.5-10.5,19.4C362.4,261.3,358.6,256.4,354.9,251.4z M376.1,229.4c2.5-2.6,5.1-5.3,7.6-7.9c-0.8,4.7-1.8,9.4-3.1,14
		C379,233.4,377.5,231.4,376.1,229.4z M363.7,208.3c5.6,0.7,11.3,1.3,16.9,2.2c-3.5,3.6-7,7.2-10.4,10.8c-2.7-3.8-5.4-7.6-8.2-11.3
		C362.5,209.4,363.1,208.9,363.7,208.3z M363.3,228.5c-4.8,5-9.6,10-14.4,15c-2.9-3.8-5.8-7.7-8.6-11.6c4.9-5,9.8-9.9,14.7-14.9
		C357.8,220.8,360.5,224.7,363.3,228.5z M327.9,207.8c7.3-0.3,14.3-0.5,20.1-0.5c0.4,0.5,0.8,1.1,1.2,1.6c-4.9,5-9.8,9.9-14.8,14.9
		c-3.2-4.4-6.4-8.8-9.5-13.2C325.9,209.7,326.9,208.7,327.9,207.8z M327.5,230.9c-6.4,6.5-12.9,13-19.3,19.5
		c-3.5-4.5-6.9-9.1-10.3-13.7c6.6-6.4,13.3-12.8,19.9-19.2C321,222,324.3,226.4,327.5,230.9z M289.8,209.9c6-0.4,13.7-0.9,21.8-1.3
		c0.2,0.3,0.4,0.5,0.6,0.8c-6.7,6.5-13.4,13-20.1,19.4c-2.9-4-5.8-8.1-8.7-12.2C285.4,214.4,287.6,212.1,289.8,209.9z M284.9,235.6
		c-4.8,4.6-9.6,9.1-14.4,13.7c-2.3-4.1-4.6-8.1-6.9-12.2c4.2-4.4,8.5-8.9,12.7-13.3C279.2,227.8,282.1,231.7,284.9,235.6z
		 M267.3,211c1.1,1.5,2.2,3.1,3.3,4.6c-4,4.1-7.9,8.3-11.9,12.4c-2.8-5.2-5.5-10.5-8.2-15.7C256.1,211.7,261.7,211.3,267.3,211z
		 M246.4,225.6c1.7,3.3,3.5,6.6,5.2,9.8c-2.7,2.8-5.3,5.6-8,8.4C244,237.8,245,231.6,246.4,225.6z M223.2,216.6
		c5.3-1.2,10.7-2.2,16.1-2.9c-4.9,18.6-8.9,38.4-1.4,56.8c7.1,17.6,23.4,27.2,41.5,30.6c36.2,6.8,77.8-1.2,98.5-34.2
		c10.1-16.1,14.6-35,16.8-53.7c1.8,0.4,3.5,0.8,5.3,1.3c0.5,23.2,0.8,47.8-11.3,68.4c-12.2,21-35.9,28.5-58.2,33.7
		c-22.8,5.3-47.1,6.2-69.4-2.2c-19.2-7.3-34.6-21.9-41.3-41.5C213.4,254.4,214.3,233.9,223.2,216.6z M482.2,388.5
		c-3.8,14.8-9.8,29.2-18.9,41.4c0.3-5.7-0.1-11.5-0.9-17.1c-2.2-16.2-6.6-32.1-12.7-47.2c-2.3-5.8-11.8-3.3-9.5,2.6
		c5.6,13.9,9.7,28.3,12.1,43.1c1.8,11,2.5,22.9-2.4,33.1c-8,7-17.1,12.8-26.8,17.5c-5.2,2.5-10.6,4.8-16.1,6.8
		c11.8-25.2,9.1-54.9,1.3-81.2c-1.8-6-11.2-3.5-9.5,2.6c8.1,27.5,10.6,58.3-5.7,83.2c-12.3,3.6-25,6.3-37.7,8.3
		c1.2-2.2,2.3-4.5,3.3-6.9c3.3-8.3,6.1-16.9,8.2-25.6c4.2-17.4,5.5-35.3,1.5-52.9c-1.4-6.1-10.9-3.5-9.5,2.6
		c3.5,15.2,2.4,30.9-1.1,46c-1.8,7.5-4.1,14.9-6.7,22.2c-2.2,6-4.4,12.9-10.2,16.4c-0.1,0.1-0.1,0.1-0.2,0.2
		c-7,0.8-13.9,1.5-20.7,2.1c-7.8,0.6-15.7,1-23.6,1.3c1.7-2.3,3.3-4.7,4.7-7.1c4.8-8.2,9.1-16.6,12.7-25.4
		c7.3-17.9,10.6-37.3,6.4-56.4c-1.4-6.2-10.8-3.6-9.5,2.6c3.7,16.8,0.5,33.9-5.8,49.7c-3,7.5-6.7,14.7-10.7,21.7
		c-3.3,5.9-6.6,12-12.7,15.1c-11.3,0-22.5-0.5-33.8-1.4c1.8-2.3,3.4-4.7,4.9-6.9c5.1-7.5,9.3-15.7,12.7-24.2
		c6.6-16.8,9.4-35.1,8.2-53.1c-0.4-6.3-10.2-6.3-9.8,0c1,15.3-0.9,30.5-5.9,45.1c-2.4,7.1-5.6,14-9.4,20.5c-1.9,3.3-4.1,6.6-6.3,9.7
		c-1.7,2.4-4.5,7.3-7.8,7.4c-0.4,0-0.6,0-0.8,0.1c-9.7-1.1-19.4-2.6-29.1-4.4c-0.6-0.1-1.3-0.3-1.9-0.4c1.8-2,3.4-4.2,4.8-6.5
		c4.2-6.9,7.8-14.2,10.7-21.7c6-15.1,9.2-31.1,9.7-47.3c0.2-6.3-9.6-6.3-9.8,0c-0.5,14-3.2,27.8-7.9,40.9
		c-2.3,6.4-5.2,12.5-8.5,18.5c-2.2,3.9-4.9,10.7-8.9,14c-12.9-3-25.7-7.3-35.9-16c-2.6-2.2-5.1-4.7-7.3-7.3
		c10-4.5,17.6-14.1,22.1-23.9c5.9-12.8,7.5-27.1,4.6-40.9c-1.3-6.2-10.8-3.6-9.5,2.6c2.4,11.1,1.1,23-3.6,33.4
		c-4,8.7-10.5,17.5-19.9,20.7c-5-7.5-8.9-15.8-11.5-24.4c-5.6-18-6.6-37-6.8-55.7c-0.2-17.3,0-34.7,2.6-51.8
		c2.5-16.3,7.1-32.5,15.8-46.7c8.2-13.3,19.9-24.2,33.1-32.4c11-6.8,22.7-11.7,34.8-15.3c-13.9,36.2,1.1,80,36,98.7
		c23.1,12.4,49.9,13.8,75.3,9.6c24.2-4.1,52.7-11.6,68.8-31.6c18-22.3,19.2-51.4,18.7-78.9c0.9,0.3,1.8,0.6,2.7,1
		c29.5,12,52.3,37.8,63.9,67.1C489.2,317.9,490.7,355.1,482.2,388.5z"/>
	<path class="st0" d="M181.4,274.3c0.7-0.7,1.2-1.5,1.5-2.4c0.5-0.9,0.7-1.8,0.6-2.8c-0.1-0.7-0.2-1.3-0.3-2c-0.3-1.2-1-2.3-1.9-3.2
		c-0.5-0.4-1-0.8-1.5-1.1c-1.1-0.7-2.4-1-3.7-1h-0.8c-1,0-2,0.2-2.8,0.6c-0.9,0.3-1.7,0.8-2.4,1.5c-0.7,0.7-1.2,1.5-1.5,2.4
		c-0.5,0.9-0.7,1.8-0.6,2.8l0.3,2c0.3,1.2,1,2.3,1.9,3.2c0.5,0.4,1,0.8,1.5,1.1c1.1,0.7,2.4,1,3.7,1h0.8c1,0,2-0.2,2.8-0.6
		C180,275.6,180.8,275.1,181.4,274.3z"/>
	<path class="st0" d="M186.2,309c-9.5,0-9.5,14.7,0,14.7C195.6,323.7,195.6,309,186.2,309z"/>
	<path class="st0" d="M225.9,338.8c-9.5,0-9.5,14.7,0,14.7C235.3,353.5,235.4,338.8,225.9,338.8z"/>
	<path class="st0" d="M297.1,349.5c-9.5,0-9.5,14.7,0,14.7C306.5,364.2,306.5,349.5,297.1,349.5z"/>
	<path class="st0" d="M369.9,339.6c-9.5,0-9.5,14.7,0,14.7C379.4,354.3,379.4,339.6,369.9,339.6z"/>
	<path class="st0" d="M427.2,310.3c-0.3-0.3-0.6-0.6-0.8-0.8c-0.7-0.7-1.5-1.2-2.4-1.5c-0.9-0.5-1.8-0.7-2.8-0.6c-1,0-2,0.2-2.8,0.6
		c-0.9,0.3-1.7,0.8-2.4,1.5c-0.4,0.5-0.8,1-1.1,1.5c-0.7,1.1-1,2.4-1,3.7l0.3,2c0.3,1.2,1,2.3,1.9,3.2c0.3,0.3,0.6,0.6,0.8,0.8
		c0.7,0.7,1.5,1.2,2.4,1.5c0.9,0.5,1.8,0.7,2.8,0.6c1,0,2-0.2,2.8-0.6c0.9-0.3,1.7-0.8,2.4-1.5c0.4-0.5,0.8-1,1.1-1.5
		c0.7-1.1,1-2.4,1-3.7c-0.1-0.7-0.2-1.3-0.3-2C428.8,312.3,428.1,311.2,427.2,310.3z"/>
	<path class="st0" d="M433.6,261c-9.5,0-9.5,14.7,0,14.7C443.1,275.7,443.1,261,433.6,261z"/>
</g>
</svg>
