<?xml version="1.0" encoding="utf-8"?>
<!-- Generator: Adobe Illustrator 27.3.1, SVG Export Plug-In . SVG Version: 6.00 Build 0)  -->
<svg version="1.1" id="katman_1" xmlns="http://www.w3.org/2000/svg" xmlns:xlink="http://www.w3.org/1999/xlink" x="0px" y="0px"
	 viewBox="0 0 612 792" style="enable-background:new 0 0 612 792;" xml:space="preserve">
<style type="text/css">
	.st0{fill:currentColor;}
</style>
<g>
	<path class="st0" d="M571,375.5c-1.5-30.2-2.5-60.5-4.7-90.7c-1.9-26.9-5.9-53.8-17.2-78.5c-10-21.7-25.9-40.5-47.2-51.7
		c-22-11.6-47-15.4-71.5-17.4c-57.6-4.7-116.1-6.6-173.8-3.1c-28.1,1.7-56.3,4.7-83.9,10.3c-21.6,4.4-43.1,11-62.3,21.9
		c-19.6,11.2-36.2,27.3-45.6,48c-5.5,12.1-9,25-12.2,37.9c-3.6,14.6-6.4,29.3-8.6,44.2c-4.2,28.3-6,56.9-5.2,85.5
		c0.7,26.2,2.1,54.4,11.6,79.1c8.6,22.5,25.9,37.3,46.3,49.8c12.8,7.8,26.8,13.7,40.9,18c-4.4-0.2-8.9,0.2-13.1,1.2
		c-16.5,4.3-30,17.3-37.5,32.3c-7.7,15.3-10.1,33.9-4.8,50.4c5,15.6,16.7,27.6,31.3,34.6c14.8,7.1,31.2,9.8,47.4,11.1
		c18,1.5,38,2.8,54.3-6.3c12.6-7,21-19.2,26.3-32.4c12.7,22.7,41.9,32.1,67.5,30.9c14.9-0.7,30.2-3.5,43.5-10.5
		c6.9-3.6,14.4-9.5,19.3-16.7c5.4,11.8,13.3,22.4,24.7,28.8c16.4,9.1,36.3,7.8,54.3,6.3c16.2-1.3,32.7-4,47.4-11.1
		c14.6-7,26.3-19.1,31.3-34.6c5.3-16.5,2.9-35-4.8-50.4c-7.5-15-21-28-37.5-32.3c-0.9-0.2-1.7-0.3-2.6-0.5
		c14.9-3.8,29.3-9.3,42.4-17.7c19.6-12.6,35.6-30.9,41.9-53.6C576.5,431.7,572.4,402.6,571,375.5z M239.2,590.7
		c-2,14.5-6.5,29.8-15.7,41.5c-9.5,12.2-23.1,17-38.2,17.4c-14,0.4-28.6-0.7-42.4-3.2c-12.8-2.4-25.9-6.4-36.1-14.7
		c-10.9-8.8-17-21.6-17.5-35.6c-0.9-26.1,18.3-58.6,47.5-57.6c14.2,0.5,28.7,10.6,28.3,25.9c-0.2,6.7-3.5,13.7-10.1,16.1
		c-5.7,2.1-13.1,0.9-16.6-4.4c-2.5-3.7-7.4-2.8-9,1.2c-4.6,11.5,0.5,24.7,10,32c10.5,8,25.2,7.1,36.3,0.8
		c25.2-14.2,24.7-45.1,18.2-70.2c19.3,2,33.7,1.9,37.6,2c1.4,0,2.8,0,4.2,0.1C240.1,557.9,241.5,574.4,239.2,590.7z M166.8,542.4
		c-3.1-3.6-6.9-6.4-11-8.6c9.6,2.2,18.9,3.8,27.6,5c6,19.8,9.3,44.4-7.7,59.5c-7.4,6.5-19.1,9.7-28.1,4.8c-5.6-3-9.2-8.7-9.8-14.8
		c9.1,5,21.4,3.8,29.1-4C178.3,572.9,176.7,554,166.8,542.4z M345.3,633c-11.7,5.5-25.1,7.6-37.8,8c-25.1,0.8-54.1-9.4-61.1-35.9
		c5.1-20.6,4.8-42.3-0.5-62.8c7.7,0.1,15.5,0.2,23.2,0.3c2.2,11.5,4.8,23.3,12.1,32.8c6.8,8.9,17.1,14.7,28.6,13.4
		c23-2.5,38.6-25.1,38.6-47.2c6.1-0.2,12.2-0.4,18.2-0.6c-5.8,21.4-6.1,44.1-0.6,65.6c0.3,1.2,0.7,2.5,1.1,3.7
		C365.5,620.7,353.8,628.9,345.3,633z M279,542.6c19.8,0,39.6-0.2,59.4-0.7c-0.2,16.8-11.8,35.8-29.9,37.2
		C288.7,580.7,282.3,558.5,279,542.6z M522.7,596.2c-0.5,13.9-6.6,26.8-17.5,35.6c-10.3,8.3-23.3,12.3-36.1,14.7
		c-13.8,2.6-28.4,3.7-42.4,3.2c-15.1-0.5-28.7-5.2-38.2-17.4c-9.2-11.7-13.7-27-15.7-41.5c-2.3-16.8-0.8-33.9,4-50.1
		c13.9-0.5,27.8-1.1,41.7-2c-6.9,25.3-7.9,57.1,17.8,71.6c11.1,6.3,25.8,7.1,36.3-0.8c9.6-7.3,14.6-20.5,10-32c-1.6-4-6.4-4.9-9-1.2
		c-3.6,5.2-10.9,6.5-16.6,4.4c-6.6-2.4-10-9.4-10.1-16.1c-0.4-15.3,14.2-25.4,28.3-25.9C504.4,537.6,523.6,570.1,522.7,596.2z
		 M445.1,584.3c7.8,7.8,20,9,29.1,4c-0.6,6.1-4.2,11.8-9.8,14.8c-9.1,4.9-20.7,1.7-28.1-4.8c-17.2-15.3-13.6-40.4-7.4-60.4
		c8.2-0.6,16.3-1.4,24.4-2.4c-3,1.9-5.7,4.2-8.1,6.9C435.3,554,433.7,572.9,445.1,584.3z M545.6,482.9
		c-32.5,40-88.1,43.4-135.6,46.2c-56.9,3.3-113.8,4.4-170.8,3.3c-6.8-0.1-111.7,0.4-163.4-48.2C58.2,467.6,53.6,442,51,418.6
		c-2.9-27.1-3.4-54.5-1.6-81.7c1.8-27.7,6-55.1,12.6-82c5.7-23.4,13-46.2,30.8-63.4c32.2-31.1,81.4-39,124.1-44
		c55.5-6.5,111.6-5.8,167.4-3.1c46.1,2.2,102.7,0.6,136.9,37.2c36.4,38.9,35.2,97.5,37.7,147.2c1.4,28.2,3.1,56.4,4.1,84.6
		C563.9,438.1,561.8,462.9,545.6,482.9z"/>
	<path class="st0" d="M477.1,246.1c-10.1-12.6-23.8-22.1-38.4-28.7c-32.2-14.5-68.9-17.4-103.8-17.6c-10.8-0.1-88.3-5.2-145.2,15.9
		c-30.7,11.4-58.6,33.3-71.6,64.1c-7.7,18.3-9.6,38.4-9.5,58.1c0.1,19.3,2.1,39,7,57.7c4.3,16.1,11,31.7,21.4,44.7
		c11.1,14,26.2,22.8,42.9,28.3c38.9,12.9,81.1,15.4,121.8,14.9c21.1-0.3,42.1-1.4,63.1-2.7c18.7-1.2,37.5-2,55.9-6.1
		c17.1-3.8,33.5-10.9,46.5-22.8c12.6-11.5,21.5-26.7,27.3-42.7c6.7-18.8,8.7-39.1,8.8-58.9c0.1-18.8-0.9-37.9-4.7-56.4
		C494.9,276.6,488.3,260,477.1,246.1z M482.6,412.2c-2.7-3.4-5.3-6.9-7.8-10.4c4.5-4.3,9-8.5,13.5-12.7c0.2,0.3,0.4,0.6,0.6,1
		c0.2,0.3,0.4,0.5,0.6,0.8C487.8,398.1,485.5,405.3,482.6,412.2z M470,434c-4-5-8-10.3-12.1-15.9c3.3-3.2,6.5-6.5,9.8-9.6
		c3.3,4.6,6.7,9.1,10.2,13.5C475.5,426.2,472.9,430.2,470,434z M411.5,375.8c0.6-1.8,1.2-3.7,2-5.4c2.2,3.6,4.5,7.1,6.8,10.7
		c-3.5,3.2-7,6.5-10.5,9.7C409.5,385.6,410,380.6,411.5,375.8z M444.5,399.6c3.3-3.4,6.5-6.7,9.8-10.1c2.4,3.7,5,7.2,7.5,10.8
		c-3.3,3.2-6.6,6.4-9.9,9.7C449.5,406.6,447,403.1,444.5,399.6z M438.8,391.4c-2-2.9-3.9-5.7-5.9-8.6c3.6-3.3,7.1-6.6,10.6-10
		c1.7,2.8,3.5,5.5,5.2,8.3C445.5,384.6,442.1,388,438.8,391.4z M461.2,382.4c4.6-4.7,9.1-9.4,13.7-14c2.6,4.1,5.2,8.1,7.8,12.2
		c-4.6,4.3-9.2,8.7-13.8,13C466.4,389.9,463.7,386.2,461.2,382.4z M455.8,373.9c-1.7-2.7-3.4-5.3-5-8c4.7-4.5,9.3-8.9,13.9-13.4
		c1.6,2.5,3.2,4.9,4.8,7.4C464.9,364.6,460.4,369.3,455.8,373.9z M471.8,345.5c1.9-1.9,3.9-3.8,5.8-5.8c3.2,0.6,6.3,1.4,9.3,2.3
		c-3.5,3.6-7,7.2-10.5,10.7C474.9,350.3,473.4,347.9,471.8,345.5z M456.1,339.1c1,1.6,2.1,3.2,3.1,4.8c-4.5,4.4-9,8.8-13.6,13.2
		c-2.4-4.1-4.9-8.3-7.2-12.5c0-0.1-0.1-0.1-0.2-0.2c1.1-0.5,2.2-1.1,3.3-1.6C446.3,341,451.2,339.8,456.1,339.1z M430,349.7
		C430,349.7,430,349.7,430,349.7c2.7,4.9,5.6,9.8,8.4,14.6c-3.6,3.5-7.3,6.8-11,10.2c-3-4.6-5.9-9-8.6-13.4
		C421.9,356.8,425.7,352.9,430,349.7z M425.8,389.5c2,3,4.1,6,6.1,9c-5.2,5.3-10.4,10.6-15.5,15.9c-2-3.9-3.6-7.9-4.7-12.1
		C416.4,398.1,421.1,393.8,425.8,389.5z M437.5,406.8c2.4,3.4,4.9,6.8,7.4,10.2c-5,5-9.9,10-14.9,15c-3.1-2.6-5.9-5.7-8.4-9
		C427,417.6,432.3,412.2,437.5,406.8z M450.9,425.1c4,5.4,8.2,10.7,12.3,16c-8.9,1.9-17.4,0.4-24.8-3.5
		C442.5,433.4,446.7,429.3,450.9,425.1z M492.5,371.6c-0.8,0.7-1.6,1.5-2.4,2.2c-2.7-4.2-5.4-8.4-8.1-12.6c3.9-4,7.7-7.9,11.6-11.9
		C493.5,356.8,493.2,364.2,492.5,371.6z M288,209.3c0.2,0.8,0.5,1.6,0.6,2.3c0.1,0.5,0.2,1,0.3,1.6c0,0.2,0.1,0.7,0.1,0.8
		c0.1,1.2,0.1,2.5,0.1,3.7c0,0.5-0.1,1-0.1,1.6c0,0.1-0.1,0.7-0.1,0.8c-0.2,1.2-0.5,2.4-0.9,3.6c-0.2,0.5-0.3,1-0.5,1.5
		c-0.1,0.2-0.3,0.6-0.3,0.7c-1.2,2.5-1.9,3.4-3.6,5c-0.4,0.3-0.7,0.7-1.1,1c0.8-0.7-0.5,0.4-0.7,0.5c-0.9,0.6-1.8,1-2.8,1.5
		c0,0,0,0,0,0c-0.2,0.1-0.4,0.2-0.6,0.2c-0.5,0.2-1.1,0.4-1.6,0.5c-0.5,0.1-1.1,0.3-1.7,0.4c-0.2,0-0.3,0.1-0.5,0.1c0,0,0,0-0.1,0
		c-1.1,0-2.1,0.1-3.1,0.1c-0.3,0-0.5,0-0.8-0.1c-0.5-0.1-0.9-0.2-1.4-0.3c-0.5-0.1-0.9-0.3-1.4-0.4c-0.2-0.1-0.4-0.1-0.5-0.2
		c-0.1,0-0.1,0-0.2-0.1c-0.4-0.2-0.8-0.5-1.3-0.7c2.3-3.6,3.7-7.7,4.2-12c0.4-3.7-0.1-7.4-1.4-10.8c4.4-0.4,8.9-0.7,13.3-1
		C283,209.6,285.1,209.4,288,209.3z M225.9,215.9c0.1,0.2,0.2,0.4,0.4,0.6c0.1,0.1,0.4,1,0.6,1.2c0.4,1.1,0.8,2.3,1,3.5
		c0,0.1,0.2,1.2,0.2,1.3c0.1,0.5,0.1,1.1,0.1,1.6c0,1.2,0,2.4-0.2,3.6c-0.1,0.2-0.2,1.1-0.2,1.3c-0.1,0.6-0.3,1.2-0.5,1.8
		c-0.2,0.6-0.4,1.2-0.6,1.8c0,0.1,0,0.1-0.1,0.2c-0.1,0.3-0.3,0.6-0.4,0.8c-1.3,2.5-1.9,3.4-3.9,5.3c-3,2.8-7.7,4.5-11.9,4.5
		c-2.9,0.1-4.1-0.1-6.9-1c-1.7-0.6-4.2-1.9-5.5-3c-0.2-0.2-0.4-0.3-0.7-0.4c0-0.1,0.1-0.3,0.1-0.4c0.6-4.8-0.3-9.9-2.4-14.3
		C205.1,220.5,215.4,217.9,225.9,215.9z M258.4,212.1c0.2,0.4,0.4,0.8,0.6,1.2c0,0.2,0.3,1,0.4,1.1c0.3,0.8,0.4,1.7,0.6,2.6
		c0,0.3,0.1,1,0.1,1.1c0,0.6,0,1.1,0,1.7c0,0.5-0.1,1-0.1,1.5c0,0.1,0,0.1,0,0.1c0,0.2-0.1,0.3-0.1,0.5c-0.2,1.1-0.5,2.2-0.9,3.3
		c0,0.1-0.2,0.6-0.3,0.7c-0.2,0.4-0.4,0.8-0.6,1.2c-0.3,0.5-0.6,1-0.9,1.5c-0.1,0.1-0.5,0.7-0.6,0.9c-0.2,0.2-0.6,0.7-0.7,0.8
		c-0.4,0.4-0.8,0.8-1.2,1.2c-0.2,0.2-0.3,0.3-0.5,0.4c-0.1,0-0.1,0-0.2,0.1c-0.4,0.2-0.7,0.5-1.1,0.7c-0.5,0.3-1,0.6-1.5,0.8
		c-0.2,0.1-0.3,0.1-0.3,0.2c-0.2,0.1-0.3,0.1-0.5,0.2c-1,0.3-1.9,0.6-3,0.8c-0.3,0.1-0.5,0.1-0.8,0.1c0,0,0,0-0.1,0
		c-0.6,0-1.2,0.1-1.8,0.1c-0.9,0-1.8,0-2.8-0.1c-0.3-0.1-1-0.2-1.2-0.2c-0.6-0.1-1.1-0.3-1.7-0.5c-0.4-0.1-0.8-0.3-1.2-0.4
		c1,0.4-0.6-0.3-0.8-0.4c-0.2-0.1-0.4-0.3-0.6-0.4c0.6-2.1,1-4.3,1.2-6.5c0.3-4.1-0.5-8.4-2-12.2c7.3-1.1,14.8-2,22.3-2.7
		C258.4,211.7,258.4,211.9,258.4,212.1z M230.6,260.5c-6.4,0-8.4-5.9-9-9.7c4.5-2,8.3-5.1,11-8.9c3,1.6,6.4,2.5,9.8,2.8
		C242.2,249.4,240.8,259.3,230.6,260.5z M194.3,248.6c4.4,2.8,9.6,4.4,14.8,4.6c0,0.3,0,0.5,0,0.8c0,0.2,0,0.3,0,0.5c0,0,0,0,0,0
		c-0.1,0.5-0.2,0.9-0.3,1.4c-0.1,0.5-0.3,1-0.5,1.6c-0.1,0.2-0.1,0.2-0.1,0.3c0,0-0.1,0.1-0.2,0.3c-0.4,0.8-0.9,1.6-1.4,2.4
		c-0.1,0.1-0.5,0.7-0.5,0.7c-0.2,0.3-0.5,0.6-0.7,0.8c-0.3,0.3-0.7,0.7-1,1c0,0-0.5,0.4-0.6,0.5c-0.7,0.5-1.5,0.9-2.2,1.3
		c-0.2,0.1-0.2,0.1-0.3,0.2c0,0-0.1,0-0.3,0.1c-0.5,0.2-1,0.3-1.6,0.5c-0.1,0-0.7,0.1-0.9,0.2c-0.2,0-0.8,0.1-0.9,0.1
		c-0.5,0-0.9,0-1.4,0c-0.1,0-0.8-0.1-1-0.1c-0.8-0.1-1.6-0.3-2.4-0.6c-0.3-0.1-0.7-0.2-1-0.4c-0.1-0.1-0.7-0.3-0.7-0.4
		c-0.7-0.4-1.5-0.8-2.2-1.3c-0.1-0.1-0.5-0.4-0.6-0.5c-0.3-0.3-0.7-0.6-1-0.9c-0.3-0.3-0.5-0.5-0.7-0.8c0-0.1-0.4-0.6-0.5-0.7
		c-0.3-0.4-0.6-0.9-0.8-1.4c0,0,0-0.1,0-0.1C189.1,256.2,192.2,252.6,194.3,248.6z M215.1,265.3c0.3-0.5,0.5-1,0.8-1.5
		c2.3,3,5.6,5.2,9.3,6c0.5,0.1,1.1,0.1,1.6,0.2c-0.7,3.7-3.3,12.5-8.8,12.9c-4.6,0.4-10.5-4.5-11.7-9.8
		C209.8,271.5,212.8,268.7,215.1,265.3z M228.8,286.4c1.1-1,2.1-2.1,2.9-3.4c0.1-0.1,0.2-0.3,0.2-0.4c2.2,3.2,5.4,5.7,9.1,6.7
		c-0.8,3.5-4,14-10.7,11.6C223.3,298.4,225.9,291.3,228.8,286.4z M241.3,278.8c-3.2-2.2-3.1-8.4-3.6-10.4c3.9-1.8,7.3-4.8,9.7-8.4
		c2.7,3.1,6.2,5.4,10.2,6.4c0.1,0,0.2,0,0.3,0c-0.4,2.6-1.1,4.7-1.8,6.3C253.8,277.6,247.4,282.8,241.3,278.8z M262.7,257.1
		c-2.4,0-9.8-0.6-9.9-13.7c0.8-0.2,1.5-0.5,2.3-0.8c1.3-0.6,2.6-1.3,3.7-2.1c0.1,0.1,0.2,0.3,0.4,0.4c3.6,2.7,7.8,4,12.2,4.2
		C271,248.4,269.4,257.1,262.7,257.1z M186,227.9c0.2,0.4,0.4,0.7,0.6,1.1c0,0,0,0,0,0.1c0.1,0.2,0.1,0.3,0.2,0.5
		c0.2,0.5,0.3,1,0.5,1.5c0.1,0.4,0.2,0.9,0.3,1.3c0.1,0.3,0.1,0.5,0.1,0.8c0.1,1,0.1,2,0.1,3c0,0.5-0.1,0.9-0.1,1.4
		c0,0.1,0,0.1,0,0.2c0,0.2-0.1,0.4-0.1,0.6c-0.2,1-0.4,2-0.7,2.9c-0.1,0.4-0.3,0.9-0.5,1.3c0,0.1,0,0.1,0,0.1
		c-0.1,0.2-0.2,0.4-0.3,0.6c-0.5,0.9-0.9,1.8-1.5,2.6c-0.1,0.2-0.3,0.4-0.4,0.6c0,0,0,0,0,0.1c0,0,0,0,0,0c-0.3,0.4-0.6,0.7-0.9,1
		c-0.3,0.3-0.6,0.7-1,1c-0.1,0.1-0.6,0.5-0.8,0.6c-0.8,0.6-1.6,1-2.4,1.5c-0.2,0.1-0.4,0.2-0.6,0.3c-0.5,0.2-1,0.4-1.5,0.5
		c-0.5,0.2-1,0.3-1.6,0.4c-0.1,0-0.7,0.1-0.9,0.2c-0.2,0-0.8,0.1-1,0.1c-0.6,0-1.2,0.1-1.9,0c-0.5,0-0.9,0-1.4-0.1
		c-0.2,0-0.4,0-0.6-0.1c-1.1-0.2-2.1-0.4-3.1-0.7c-0.5-0.2-1-0.3-1.5-0.5c0,0-0.1-0.1-0.2-0.1c-0.1-0.1-0.5-0.2-0.5-0.2
		c-1-0.5-2-1.1-3-1.8c0,0-0.1-0.1-0.2-0.2c-0.1-0.1-0.4-0.3-0.4-0.3c-0.4-0.4-0.8-0.7-1.2-1.1c-0.4-0.4-0.8-0.9-1.2-1.4
		c0.5,0.6-0.5-0.7-0.6-0.9c0,0-0.1,0-0.1-0.1c5.6-4.4,11.5-8.3,17.7-11.7C178.8,231.2,182.4,229.5,186,227.9z M388.7,469.4
		c-19,1.6-38.2,2.6-57.3,3.4c-38.9,1.7-78.3,1.7-116.6-5.6c-17.7-3.4-36.5-7.5-52-16.9c-13.5-8.3-23.2-21.1-29.9-35.3
		c-6.9-14.7-10.6-30.9-12.6-46.9c-2.4-19.3-3.1-39.4-0.2-58.6c2.6-17.1,8.7-33.4,19.5-47.1c3.2-4.1,6.8-7.8,10.6-11.4
		c5.9,8,15.9,11.8,25.7,10.5c3.8,8.5,12.5,14.2,21.8,13.8c1.1,7.2,6.4,13.3,13.4,15.5c2.3,0.7,4.6,0.9,6.9,0.6
		c-1.6,5.7,1.3,12.5,6.6,15.3c3.6,1.8,7.7,2.2,11.5,1.1c4-1.1,7.2-3.6,9.7-6.9c1.2-1.6,2-3.3,2.7-5.1c0.1,0,0.2,0,0.3,0
		c4.5-0.6,7.7,3,7.9,7.4c0.2,4.9-2.8,9.5-5.9,13.1c-6.7,7.9-14.2,14.3-18.3,24.1c-3.5,8.5-4,18.2,0.3,26.5
		c4.1,7.9,11.7,13.3,20.6,13.7c6.3,0.3,6.3-9.5,0-9.8c-8.9-0.4-14.2-9.6-14-17.7c0.3-10.8,7.7-18.8,14.7-26.1
		c6.5-6.8,13-15.1,12.1-25.1c-0.6-6.5-4.8-12.6-10.8-15c3.7-2.1,6.8-5.3,8.7-9.2c2-3.8,3-8,3.4-12.2c5-1.8,9.1-5.8,11.4-10.9
		c1.6-3.6,2.3-7.4,2-11.2c1-0.3,1.9-0.7,2.9-1.2c8.1-3.8,13.3-12.3,14.5-21c0.6-4.2,0.4-8.4-0.5-12.5c26-0.8,76-0.8,112,8.8
		c30.5,8.1,58.3,24.5,71.5,54.3c6.9,15.5,9.6,32.7,10.9,49.5c0.3,4,0.6,8.1,0.7,12.1c-28.7-10.5-62.8-4.4-81.8,20.9
		c-8.4,11.2-13,25.6-11.4,39.6c1.7,15.3,9.2,30.6,20,41.6c8.6,8.8,19.9,14.5,31.9,15.6c-3.3,2.3-6.8,4.3-10.5,6.1
		c-0.3-3.4-2.6-6.6-7-6.6c-6.7,0-8.6,7.4-5.8,11.7C415.6,466.6,402,468.3,388.7,469.4z"/>
	<path class="st0" d="M479,323.1c9.5,0,9.5-14.7,0-14.7C469.5,308.4,469.5,323.1,479,323.1z"/>
	<path class="st0" d="M450,323.1c9.5,0,9.5-14.7,0-14.7C440.5,308.4,440.5,323.1,450,323.1z"/>
	<path class="st0" d="M422.2,329.2c9.5,0,9.5-14.7,0-14.7C412.8,314.5,412.7,329.2,422.2,329.2z"/>
	<path class="st0" d="M398.1,349.7c9.5,0,9.5-14.7,0-14.7C388.6,335,388.6,349.7,398.1,349.7z"/>
	<path class="st0" d="M383.6,375.1c9.5,0,9.5-14.7,0-14.7C374.1,360.4,374.1,375.1,383.6,375.1z"/>
	<path class="st0" d="M381.2,391.8c-9.5,0-9.5,14.7,0,14.7C390.6,406.5,390.6,391.8,381.2,391.8z"/>
	<path class="st0" d="M392,419.5c-9.5,0-9.5,14.7,0,14.7C401.5,434.2,401.5,419.5,392,419.5z"/>
	<path class="st0" d="M412.6,440.1c-9.5,0-9.5,14.7,0,14.7C422,454.8,422,440.1,412.6,440.1z"/>
</g>
</svg>
