<?xml version="1.0" encoding="utf-8"?>
<!-- Generator: Adobe Illustrator 27.3.1, SVG Export Plug-In . SVG Version: 6.00 Build 0)  -->
<svg version="1.1" id="katman_1" xmlns="http://www.w3.org/2000/svg" xmlns:xlink="http://www.w3.org/1999/xlink" x="0px" y="0px"
	 viewBox="0 0 612 792" style="enable-background:new 0 0 612 792;" xml:space="preserve">
<style type="text/css">
	.st0{fill:currentColor;}
</style>
<g>
	<path class="st0" d="M511.2,229.1c-11.5-14.5-27-25.5-43.4-33.7c-39.1-19.6-85-26.9-128.3-27.5c-10.2-0.2-110.5-3.8-168.5,20.1
		c-18.5,7.6-35.7,19-49.7,33.4c-15.2,15.7-25.6,35-33.4,55.3c-8.4,22-13.5,45.5-13.3,69.1c0.2,23.2,4.8,46.5,11.3,68.7
		c5.5,19.1,13.5,38,26.9,52.9c14.4,15.9,34.4,24.1,54.5,30.2c45.1,13.7,92.7,16.8,139.6,15.6c23.8-0.6,47.6-2.4,71.4-4.5
		c22.9-2,47.3-2.4,69.4-9.4c36-11.4,62.3-42.1,76.2-76.3c17.5-42.9,15.2-91.5,9.1-136.5C530.1,265.5,524.5,245.9,511.2,229.1z
		 M516.1,256.7c8,20.7,9.4,44.6,10.7,66.5c0.4,6.1,0.6,12.3,0.7,18.5c-7.3,10.8-22.6,16.7-34.9,19.6c-13.7,3.2-29.1,4.2-42.5-0.9
		c-15.5-5.9-21.6-21-24.5-36.3c-2.5-12.9-1.9-26.5,2.7-38.7c13.3,15.1,33.3,23.5,54.1,15.4c5.8-2.3,3.3-11.8-2.6-9.5
		c-27.1,10.6-51.5-12.2-56.9-37.6c-2.7-12.8-1.1-27.4,7-38c6.4-8.4,16.9-14,27.5-13.6C482.4,214,505.9,230.5,516.1,256.7z
		 M441.5,195.1c-4.2,1.6-8.2,3.9-11.8,6.8c-7.9-10.2-19.1-16.3-31.4-19.2c13.4,2.4,26.3,5.7,38,10.3
		C438,193.7,439.7,194.4,441.5,195.1z M407.4,496.1c-22.2,2.1-44.4,4.2-66.6,5.6c-44.6,2.9-89.8,3.3-133.9-4.8
		c-21.1-3.8-43.1-8.9-62.4-18.4c-18-8.8-30.9-22.8-39.5-40.8c-8.8-18.1-13.7-38.5-17.2-58.3c-4.1-22.7-4.5-45.7,0.2-68.3
		c4.5-21.3,12.2-42.5,23.6-61.2c10.3-16.8,24.4-30.7,41-41.3c36.1-22.9,79.3-29.2,121.3-30.3c7-0.2,63.2-5.1,115.9,2.9
		c-9.2-1-18.6-0.3-27.4,1.8c-15.9,3.8-30.6,11.6-44.9,19.3c-15,8.2-30.1,16.1-46.2,22.2c-32.2,12.2-66.5,18.9-101,19.2
		c-15.6,0.2-31.9-0.6-45.3,8.8c-10.6,7.5-18.3,19.7-17.8,33c0.2,6.2,2.2,12.5,5.4,17.9c-21,13.2-22.4,44.5-1.9,58.9
		c-0.7,12.8,2,25.6,7.5,37.1c-6.1,5.2-9,13-6.9,21.7c2.7,11.2,12.1,19.9,22.1,24.8c10.8,5.3,22.6,7.6,34.3,10.2
		c14.4,3.2,27.8,8.4,41.5,13.7c30.2,11.8,61.7,13.6,93.7,15.3c57,3,116.1,5.1,171.4-11.1c-2.7,2.1-5.5,4.1-8.5,5.9
		C447.9,491.2,428,494.2,407.4,496.1z M278,380.4c5.2,1.4,16.8,5,17,11.8c0.2,5.2-7.3,8.2-11.4,9.4c-5.3,1.6-10.9,2.4-16.4,2.9
		c0.5-8.6,1.8-17.1,3.7-25.5C273.4,379.4,275.7,379.8,278,380.4z M259.6,442.5c-16.2-17.5-27.3-40.1-21.5-64.3c6,0,12-0.1,18-0.1
		c1.7,0,3.3,0,5,0.1C256.5,399.4,256,421.2,259.6,442.5z M227.9,403.8c-5.7-0.6-11.4-1.4-17-2.2c-1.4-0.2-2.9-0.5-4.3-0.7
		c1-7.9,3-15.6,6.6-22.8c5,0.1,9.9,0.2,14.9,0.2C226.3,387,226.3,395.6,227.9,403.8z M197.4,434.5c-14.2-15.1-19.6-38-13.2-57.9
		c6.2,0.5,12.3,0.8,18.5,1.1C195.2,395.6,195.4,415.3,197.4,434.5z M171.6,395.1c-3.3-0.5-6.6-1-9.9-1.5c-5.4-0.7-10.8-1.4-16.3-1.5
		c-0.2-6.5,1.1-12.9,4.5-18.9c2.1,0.2,4.2,0.4,6.3,0.7c6,0.7,12,1.3,18,1.8C172.3,382.1,171.5,388.6,171.6,395.1z M139.9,414
		c-12-12.3-19-29.1-19.4-46.4c6,2.2,12.5,3.5,19,4.4C133.3,385.3,135.4,400.1,139.9,414z M523.5,389.5c-4.9,24.9-15.4,49.4-32,68.6
		c-51.9,20.1-109,20.9-164,18.7c-30.3-1.2-61.9-1.3-91.5-8.3c-14.8-3.5-28.4-9.8-42.7-15c-11.8-4.3-24-6.5-36.2-9.5
		c-10.3-2.5-21.5-5.7-29.3-13.4c-4.3-4.2-8.3-10.6-7.3-16.9c0.3-2,1.3-3.7,2.6-5.2c6.4,9.9,14.9,18.5,25.1,24.6
		c3.4,2,8.9-1.4,7.2-5.5c-3.3-8-6.9-16.8-8.7-25.7c6.6,0.2,13.2,1.3,19.3,2.2c2.2,0.3,4.4,0.7,6.6,1c3.1,18,13.2,34.9,28.6,45.4
		c2.9,2,7.8-0.6,7.4-4.2c-1.4-11.5-2.9-23.7-2.6-35.6c2.3,0.4,4.7,0.8,7,1.1c5.9,0.9,11.8,1.6,17.7,2.2c6.1,18,18.8,34.1,33.5,46.4
		c3.6,3,9.5,0.3,8.2-4.8c-3.6-13.4-5.4-27.2-5.4-41c10.6-0.8,22-2.5,30.3-8.8c10.1-7.6,9.3-20-0.6-27.4c-10.8-8.1-25.1-9.8-38.1-10
		c-15.5-0.3-31.1,0.4-46.6-0.1c-16.4-0.5-32.7-1.6-49-3.4c-8.1-0.9-16.1-1.9-24.2-3.1c-6.8-1-14-2.2-20.1-5.7
		c-11.2-6.3-16.4-20.6-11.1-32.5c2.4-5.4,6.4-9.5,11.4-12.4c3.5,3.1,7.6,5.4,12.4,6.4c13.2,3,28.4-3.3,33.8-16
		c2.4-5.7-6-10.7-8.5-4.9c-4,9.5-15.3,14.4-25.1,10.9c-10.8-3.9-16.4-17.1-14.2-27.9c2.5-11.9,12.8-21,24.3-24.1
		c14.2-3.8,29.9-1.6,44.5-2.5c29.7-1.9,59.1-8.2,86.9-18.6c13.6-5.1,26.7-11.3,39.5-18.1c12.7-6.8,25.1-14.2,38.6-19.4
		c23.1-8.8,55.7-10.7,71.5,12c-9.8,12.4-12.5,28.8-10,44.1c1.3,8,4.3,15.9,8.7,23c-5.7,11.8-7.9,24.9-7,38c1,14.7,4.7,31.4,14.3,43
		c17.5,21.1,52.8,19.5,76.1,10.7c7.4-2.8,15.6-7,22.4-12.4C526.8,366.9,525.7,378.2,523.5,389.5z"/>
	<path class="st0" d="M571,375.5c-1.5-30.2-2.5-60.5-4.7-90.7c-1.9-26.9-5.9-53.8-17.2-78.5c-10-21.7-25.9-40.5-47.2-51.7
		c-22-11.6-47-15.4-71.5-17.4c-57.6-4.7-116.1-6.6-173.8-3.1c-28.1,1.7-56.3,4.7-83.9,10.3c-21.6,4.4-43.1,11-62.3,21.9
		c-19.6,11.2-36.2,27.3-45.6,48c-5.5,12.1-9,25-12.2,37.9c-3.6,14.6-6.4,29.3-8.6,44.2c-4.2,28.3-6,56.9-5.2,85.5
		c0.7,26.2,2.1,54.4,11.6,79.1c8.6,22.5,25.9,37.3,46.3,49.8c12.8,7.8,26.8,13.7,40.9,18c-4.4-0.2-8.9,0.2-13.1,1.2
		c-16.5,4.3-30,17.3-37.5,32.3c-7.7,15.3-10.1,33.9-4.8,50.4c5,15.6,16.7,27.6,31.3,34.6c14.8,7.1,31.2,9.8,47.4,11.1
		c18,1.5,38,2.8,54.3-6.3c12.6-7,21-19.2,26.3-32.4c12.7,22.7,41.9,32.1,67.5,30.9c14.9-0.7,30.2-3.5,43.5-10.5
		c6.9-3.6,14.4-9.5,19.3-16.7c5.4,11.8,13.3,22.4,24.7,28.8c16.4,9.1,36.3,7.8,54.3,6.3c16.2-1.3,32.7-4,47.4-11.1
		c14.6-7,26.3-19.1,31.3-34.6c5.3-16.5,2.9-35-4.8-50.4c-7.5-15-21-28-37.5-32.3c-0.9-0.2-1.7-0.3-2.6-0.5
		c14.9-3.8,29.3-9.3,42.4-17.7c19.6-12.6,35.6-30.9,41.9-53.6C576.5,431.7,572.4,402.6,571,375.5z M239.2,590.7
		c-2,14.5-6.5,29.8-15.7,41.5c-9.5,12.2-23.1,17-38.2,17.4c-14,0.4-28.6-0.7-42.4-3.2c-12.8-2.4-25.9-6.4-36.1-14.7
		c-10.9-8.8-17-21.6-17.5-35.6c-0.9-26.1,18.3-58.6,47.5-57.6c14.2,0.5,28.7,10.6,28.3,25.9c-0.2,6.7-3.5,13.7-10.1,16.1
		c-5.7,2.1-13.1,0.9-16.6-4.4c-2.5-3.7-7.4-2.8-9,1.2c-4.6,11.5,0.5,24.7,10,32c10.5,8,25.2,7.1,36.3,0.8
		c25.2-14.2,24.7-45.1,18.2-70.2c19.3,2,33.7,1.9,37.6,2c1.4,0,2.8,0,4.2,0.1C240.1,557.9,241.5,574.4,239.2,590.7z M166.8,542.4
		c-3.1-3.6-6.9-6.4-11-8.6c9.6,2.2,18.9,3.8,27.6,5c6,19.8,9.3,44.4-7.7,59.5c-7.4,6.5-19.1,9.7-28.1,4.8c-5.6-3-9.2-8.7-9.8-14.8
		c9.1,5,21.4,3.8,29.1-4C178.3,572.9,176.7,554,166.8,542.4z M345.3,633c-11.7,5.5-25.1,7.6-37.8,8c-25.1,0.8-54.1-9.4-61.1-35.9
		c5.1-20.6,4.8-42.3-0.5-62.8c7.7,0.1,15.5,0.2,23.2,0.3c2.2,11.5,4.8,23.3,12.1,32.8c6.8,8.9,17.1,14.7,28.6,13.4
		c23-2.5,38.6-25.1,38.6-47.2c6.1-0.2,12.2-0.4,18.2-0.6c-5.8,21.4-6.1,44.1-0.6,65.6c0.3,1.2,0.7,2.5,1.1,3.7
		C365.5,620.7,353.8,628.9,345.3,633z M279,542.6c19.8,0,39.6-0.2,59.4-0.7c-0.2,16.8-11.8,35.8-29.9,37.2
		C288.7,580.7,282.3,558.5,279,542.6z M522.7,596.2c-0.5,13.9-6.6,26.8-17.5,35.6c-10.3,8.3-23.3,12.3-36.1,14.7
		c-13.8,2.6-28.4,3.7-42.4,3.2c-15.1-0.5-28.7-5.2-38.2-17.4c-9.2-11.7-13.7-27-15.7-41.5c-2.3-16.8-0.8-33.9,4-50.1
		c13.9-0.5,27.8-1.1,41.7-2c-6.9,25.3-7.9,57.1,17.8,71.6c11.1,6.3,25.8,7.1,36.3-0.8c9.6-7.3,14.6-20.5,10-32c-1.6-4-6.4-4.9-9-1.2
		c-3.6,5.2-10.9,6.5-16.6,4.4c-6.6-2.4-10-9.4-10.1-16.1c-0.4-15.3,14.2-25.4,28.3-25.9C504.4,537.6,523.6,570.1,522.7,596.2z
		 M445.1,584.3c7.8,7.8,20,9,29.1,4c-0.6,6.1-4.2,11.8-9.8,14.8c-9.1,4.9-20.7,1.7-28.1-4.8c-17.2-15.3-13.6-40.4-7.4-60.4
		c8.2-0.6,16.3-1.4,24.4-2.4c-3,1.9-5.7,4.2-8.1,6.9C435.3,554,433.7,572.9,445.1,584.3z M545.6,482.9
		c-32.5,40-88.1,43.4-135.6,46.2c-56.9,3.3-113.8,4.4-170.8,3.3c-6.8-0.1-111.7,0.4-163.4-48.2C58.2,467.6,53.6,442,51,418.6
		c-2.9-27.1-3.4-54.5-1.6-81.7c1.8-27.7,6-55.1,12.6-82c5.7-23.4,13-46.2,30.8-63.4c32.2-31.1,81.4-39,124.1-44
		c55.5-6.5,111.6-5.8,167.4-3.1c46.1,2.2,102.7,0.6,136.9,37.2c36.4,38.9,35.2,97.5,37.7,147.2c1.4,28.2,3.1,56.4,4.1,84.6
		C563.9,438.1,561.8,462.9,545.6,482.9z"/>
	<path class="st0" d="M187.8,301.3c-2,7.6-6.1,13.9-12.2,19.2c-2.5,2.2-6.1,4.5-9.6,6.1c-1.1,0.5-3.2,1.3-5,1.8
		c-1,0.3-2,0.5-3.1,0.7c-0.4,0.1-0.9,0.2-1.3,0.2c-0.3,0-0.5,0.1-0.8,0.1c0.4-0.1,0.3-0.1-0.3,0c-2.6,0.3-4.9,2-4.9,4.9
		c0,2.4,2.3,5.2,4.9,4.9c19.5-2.1,36.6-16.3,41.7-35.4C198.9,297.8,189.4,295.2,187.8,301.3z"/>
	<path class="st0" d="M348.2,285.5c-12.8-10.6-25.2-22.7-39.7-31c-13.9-8-28.9-9.8-43.9-3.9c-14.6,5.8-27.4,15.2-37.5,27.2
		c-1.4,1.7-1.9,3.9-0.8,5.9c10.7,19.4,31.2,31.4,52.8,34.3c12.7,1.7,25.7,0.5,38.2-2.6c12.3-3.1,23.6-8.8,35.4-13.4
		c10.4,8.6,20.8,17.3,31.2,25.9c4.8,4,11.8-2.9,6.9-6.9C390.9,321.1,350.4,287.4,348.2,285.5z M284.5,308.9
		c-17.5-1.3-34.5-9.4-45.1-23.4c4-1.8,8.1-3.2,12.2-4.1c2.5,10.1,10.6,18.9,20.9,21.1c11.1,2.4,23.3-2.5,29.6-11.9
		c5.8,3.9,11,8.8,15.4,14.6C306.8,308.2,295.6,309.7,284.5,308.9z M327.2,302.1c-18.2-26.3-50.9-37.6-80.7-29.6
		c6.7-5.5,14.1-10,22.2-13c14.6-5.4,27.7-1.6,40.2,6.9c12.5,8.5,23.8,18.9,35.3,28.6C338.7,297.4,333,299.9,327.2,302.1z"/>
</g>
</svg>
